<svg width="111" height="111" viewBox="0 0 111 111" fill="none" xmlns="http://www.w3.org/2000/svg">
<path d="M15.5229 88.1959H6.40552V91.0976H15.5229V88.1959Z" fill="#EBEBEB"/>
<path d="M20.9999 54.3535H11.8825V57.2552H20.9999V54.3535Z" fill="#EBEBEB"/>
<path d="M10.438 94.7665C8.91847 94.7924 5.08845 94.8572 3.62075 94.8728H1.32067H1.20398V94.7665V91.8648V91.7351H1.33363L5.89232 91.7533C7.0255 91.7533 9.31522 91.787 10.451 91.8025H10.5132V91.8648L10.438 94.7665ZM10.438 94.7665L10.3758 91.8648L10.438 91.927C9.29966 91.9426 7.01513 91.9659 5.87935 91.9763L1.32067 91.9944L1.45032 91.8648V94.7665L1.33104 94.6472H3.58964C5.034 94.6653 8.95218 94.7301 10.4484 94.7561L10.438 94.7665Z" fill="#EBEBEB"/>
<path d="M62.0231 43.3617C60.5036 43.3876 56.6736 43.4524 55.2059 43.468H52.9058H52.7865V43.3487V40.447V40.3174H52.9162L57.4748 40.3355C58.608 40.3355 60.8977 40.3692 62.0335 40.3848H62.0958V40.447L62.0361 43.3487L62.0231 43.3617ZM62.0231 43.3617L61.9583 40.46L62.0205 40.5196C60.8822 40.5378 58.5977 40.5611 57.4619 40.5715L52.9032 40.5897L53.0328 40.46L53.0199 43.3617L52.9032 43.2424H55.1618C56.6061 43.2606 60.5243 43.3254 62.0205 43.3513L62.0231 43.3617Z" fill="#EBEBEB"/>
<path d="M56.935 47.0194C55.418 47.0453 51.588 47.1101 50.1177 47.1257H47.8202H47.6957V47.009V44.1073V43.9777H47.828L52.3841 43.9958C53.5199 43.9958 55.8096 44.0295 56.9428 44.0451H57.0076V44.1073L56.9454 47.009L56.935 47.0194ZM56.935 47.0194L56.8753 44.1177L56.935 44.1773C55.7992 44.1955 53.5147 44.2188 52.3763 44.2292L47.8202 44.2473L47.9499 44.1177V47.0194L47.8332 46.9001H50.0918C51.5361 46.9182 55.4543 46.9831 56.9479 47.009L56.935 47.0194Z" fill="#EBEBEB"/>
<path d="M51.8706 40.4601H42.7532V43.3618H51.8706V40.4601Z" fill="#EBEBEB"/>
<path d="M108.592 91.8544H99.4751V94.7561H108.592V91.8544Z" fill="#EBEBEB"/>
<path d="M103.507 2.24982H94.3898V5.1515H103.507V2.24982Z" fill="#EBEBEB"/>
<path d="M108.593 8.81033C107.073 8.83626 103.243 8.90109 101.775 8.91665H99.4752H99.3586V8.79996L99.3456 5.89827V5.76862H99.4752L104.034 5.78677C105.17 5.78677 107.457 5.82048 108.593 5.83604H108.655V5.89827L108.593 8.79996V8.81033ZM108.593 8.81033L108.53 5.90864L108.593 5.96829C107.454 5.98644 105.172 6.00977 104.034 6.02015L99.4752 6.0383L99.6049 5.90864V8.81033L99.4856 8.69105H101.744C103.191 8.7092 107.109 8.77403 108.603 8.79996L108.593 8.81033Z" fill="#EBEBEB"/>
<path d="M15.5233 5.15164C14.0037 5.17757 10.1737 5.2424 8.70602 5.25796H6.40594H6.28925V5.13867V2.23699V2.10733H6.4189L10.9776 2.12548C12.1134 2.12548 14.4005 2.15919 15.5363 2.17475H15.5985V2.23699L15.5363 5.13867L15.5233 5.15164ZM15.5233 5.15164L15.4611 2.24995L15.5233 2.30959C14.3849 2.32775 12.1004 2.35108 10.9646 2.36146L6.40594 2.37961L6.53559 2.24995V5.15164L6.40594 5.04532H8.66453C10.1089 5.06347 14.0271 5.1283 15.5233 5.15423V5.15164Z" fill="#EBEBEB"/>
<path d="M68.096 101.432C66.5764 101.457 62.7464 101.522 61.2787 101.538H58.9786H58.8619V101.419V98.5169V98.3976H58.9916L63.5503 98.4157C64.6861 98.4157 66.9732 98.4494 68.109 98.465H68.1712V98.5272L68.1116 101.429L68.096 101.432ZM68.096 101.432L68.0338 98.5298L68.096 98.5921C66.9576 98.6076 64.6731 98.631 63.5373 98.6413L58.9786 98.6595L59.1083 98.5298V101.432L58.989 101.312H61.2476C62.692 101.33 66.6101 101.395 68.1064 101.421L68.096 101.432Z" fill="#EBEBEB"/>
<path d="M18.469 21.0469C18.2082 22.8032 17.4486 24.4476 16.2805 25.7847C15.1124 27.1218 13.5848 28.0953 11.8795 28.5896C10.1742 29.0838 8.36277 29.0778 6.66071 28.5725C4.95864 28.0672 3.43748 27.0837 2.27809 25.739C1.1187 24.3943 0.369849 22.745 0.120574 20.9871C-0.128701 19.2292 0.132084 17.4367 0.871923 15.8226C1.61176 14.2086 2.79953 12.841 4.29402 11.8824C5.7885 10.9238 7.52683 10.4146 9.30233 10.4152V19.6856L18.469 21.0469Z" fill="#EBEBEB"/>
<path d="M20.4683 17.8013C20.4688 18.2561 20.435 18.7104 20.3671 19.1601L11.2005 17.8013V8.53095C12.4181 8.52992 13.6239 8.76903 14.7489 9.23458C15.874 9.70013 16.8962 10.383 17.757 11.244C18.6178 12.1051 19.3004 13.1275 19.7656 14.2527C20.2309 15.3779 20.4696 16.5837 20.4683 17.8013Z" fill="#DBDBDB"/>
<path d="M20.1624 22.9792H10.306V23.2385H20.1624V22.9792Z" fill="#C7C7C7"/>
<path d="M20.8543 23.9282C20.6915 23.9287 20.5322 23.8808 20.3967 23.7907C20.2611 23.7006 20.1553 23.5722 20.0928 23.4219C20.0303 23.2716 20.0138 23.1061 20.0454 22.9464C20.077 22.7867 20.1554 22.64 20.2705 22.5249C20.3856 22.4098 20.5323 22.3315 20.692 22.2998C20.8517 22.2682 21.0172 22.2847 21.1675 22.3472C21.3178 22.4098 21.4462 22.5155 21.5363 22.6511C21.6264 22.7867 21.6743 22.946 21.6738 23.1088C21.6731 23.3259 21.5865 23.5339 21.433 23.6874C21.2795 23.8409 21.0714 23.9275 20.8543 23.9282ZM20.8543 22.546C20.7429 22.5455 20.6339 22.5781 20.541 22.6396C20.4481 22.7011 20.3756 22.7888 20.3326 22.8916C20.2896 22.9944 20.2781 23.1076 20.2995 23.2169C20.3209 23.3263 20.3743 23.4268 20.4529 23.5057C20.5315 23.5847 20.6318 23.6385 20.741 23.6604C20.8502 23.6824 20.9635 23.6714 21.0665 23.6289C21.1694 23.5864 21.2575 23.5142 21.3194 23.4216C21.3814 23.3291 21.4144 23.2202 21.4144 23.1088C21.4144 22.96 21.3555 22.8172 21.2505 22.7118C21.1456 22.6063 21.0031 22.5467 20.8543 22.546Z" fill="#C7C7C7"/>
<path d="M31.0171 22.5902H23.3596V22.9351H31.0171V22.5902Z" fill="#C7C7C7"/>
<path d="M27.6927 23.2805H23.3596V23.6254H27.6927V23.2805Z" fill="#C7C7C7"/>
<path d="M50.5845 56.3166H48.1392V73.7163H50.5845V56.3166Z" fill="#EBEBEB"/>
<path d="M54.7883 60.5274H52.343V73.7159H54.7883V60.5274Z" fill="#EBEBEB"/>
<path d="M58.989 67.1214H56.5437V73.7157H58.989V67.1214Z" fill="#EBEBEB"/>
<path d="M63.192 63.3537H60.7467V73.7131H63.192V63.3537Z" fill="#EBEBEB"/>
<path d="M67.3957 59.3991H64.9504V73.7157H67.3957V59.3991Z" fill="#EBEBEB"/>
<path d="M71.5964 57.0738H69.1511V73.7164H71.5964V57.0738Z" fill="#EBEBEB"/>
<path d="M46.7209 54.1015L46.7495 59.0051L46.7624 63.9087L46.7832 73.7158L46.7209 73.6536C48.9683 73.6536 51.2156 73.6536 53.463 73.6536L60.2051 73.6691L66.9472 73.6821L73.6892 73.7184L66.9472 73.7547L60.2051 73.7677L53.463 73.7806C51.2156 73.7806 48.9683 73.7806 46.7209 73.7806H46.6587V73.721L46.6794 63.9138V59.0103L46.7209 54.1015Z" fill="#EBEBEB"/>
<path d="M46.1815 55.0916C46.535 54.9983 46.9067 54.9983 47.2603 55.0916C46.9063 55.1815 46.5355 55.1815 46.1815 55.0916Z" fill="#EBEBEB"/>
<path d="M46.1815 56.5756C46.5355 56.4857 46.9063 56.4857 47.2603 56.5756C47.0849 56.6256 46.9032 56.6492 46.7209 56.6456C46.5387 56.6479 46.3571 56.6243 46.1815 56.5756Z" fill="#EBEBEB"/>
<path d="M46.1815 58.0664C46.5355 57.9765 46.9063 57.9765 47.2603 58.0664C46.9067 58.1597 46.535 58.1597 46.1815 58.0664Z" fill="#EBEBEB"/>
<path d="M46.1815 59.5575C46.535 59.4642 46.9067 59.4642 47.2603 59.5575C46.9067 59.6508 46.535 59.6508 46.1815 59.5575Z" fill="#EBEBEB"/>
<path d="M46.1815 61.0563C46.535 60.963 46.9067 60.963 47.2603 61.0563C46.9067 61.1496 46.535 61.1496 46.1815 61.0563Z" fill="#EBEBEB"/>
<path d="M46.1815 62.5398C46.535 62.4465 46.9067 62.4465 47.2603 62.5398C46.9063 62.6297 46.5355 62.6297 46.1815 62.5398Z" fill="#EBEBEB"/>
<path d="M46.1815 64.028C46.5355 63.9381 46.9063 63.9381 47.2603 64.028C46.9067 64.1213 46.535 64.1213 46.1815 64.028Z" fill="#EBEBEB"/>
<path d="M46.1815 65.5183C46.5355 65.4284 46.9063 65.4284 47.2603 65.5183C46.9067 65.6116 46.535 65.6116 46.1815 65.5183Z" fill="#EBEBEB"/>
<path d="M46.1815 67.0207C46.535 66.9274 46.9067 66.9274 47.2603 67.0207C46.9067 67.114 46.535 67.114 46.1815 67.0207Z" fill="#EBEBEB"/>
<path d="M46.1815 68.5012C46.535 68.4079 46.9067 68.4079 47.2603 68.5012C46.9067 68.5945 46.535 68.5945 46.1815 68.5012Z" fill="#EBEBEB"/>
<path d="M46.1815 69.9917C46.535 69.8984 46.9067 69.8984 47.2603 69.9917C46.9063 70.0816 46.5355 70.0816 46.1815 69.9917Z" fill="#EBEBEB"/>
<path d="M46.1815 71.4842C46.3571 71.4355 46.5387 71.4119 46.7209 71.4142C46.9032 71.4106 47.0849 71.4342 47.2603 71.4842C46.9063 71.5741 46.5355 71.5741 46.1815 71.4842Z" fill="#EBEBEB"/>
<path d="M0.887512 107.409C35.5262 107.251 74.3865 107.251 109.02 107.409C74.3813 107.57 35.521 107.567 0.887512 107.409Z" fill="#263238"/>
<path d="M105.782 0.971771H63.2781C62.7082 0.976855 62.1449 1.0942 61.6203 1.31709C61.0957 1.53998 60.6202 1.86405 60.2209 2.27079C59.8217 2.67753 59.5065 3.15896 59.2933 3.68756C59.0802 4.21617 58.9733 4.7816 58.9788 5.35153V92.8248C58.9691 93.9754 59.4164 95.0829 60.2225 95.904C61.0286 96.7252 62.1275 97.1929 63.2781 97.2046H105.782C106.933 97.1936 108.033 96.7262 108.84 95.9051C109.647 95.084 110.095 93.9761 110.086 92.8248V5.35153C110.096 4.20001 109.648 3.09177 108.841 2.27048C108.034 1.44918 106.933 0.982043 105.782 0.971771ZM107.395 90.1202C107.395 92.4229 105.67 94.2873 103.544 94.2873H65.5186C63.3871 94.2873 61.6626 92.4229 61.6626 90.1202V8.67589C61.6626 3.98496 63.3871 3.74899 65.5186 3.74899H73.1345C73.578 3.74899 73.9384 4.25205 73.9384 4.8744V5.13371C73.9384 6.59363 74.7397 6.59881 75.7199 6.59881H93.3348C94.3254 6.59881 95.1189 6.59881 95.1189 5.13371V4.8744C95.1189 4.25205 95.4767 3.74899 95.9254 3.74899H103.539C105.665 3.74899 107.389 4.37393 107.389 8.67589L107.395 90.1202Z" fill="#263238"/>
<path d="M107.384 8.67574V90.12C107.384 92.4227 105.66 94.2872 103.533 94.2872H65.5183C63.3868 94.2872 61.6624 92.4227 61.6624 90.12V8.67574C61.6624 3.98481 63.3868 3.74884 65.5183 3.74884H73.1343C73.5777 3.74884 73.9381 4.2519 73.9381 4.87425V5.13356C73.9381 6.59348 74.7394 6.59867 75.7196 6.59867H93.3346C94.3251 6.59867 95.1186 6.59867 95.1186 5.13356V4.87425C95.1186 4.2519 95.4765 3.74884 95.9251 3.74884H103.538C105.66 3.74884 107.384 4.37119 107.384 8.67574Z" fill="white"/>
<path d="M71.8119 5.57664C71.7886 5.59998 71.7626 5.62331 71.7393 5.64925L71.6978 5.69073C71.5096 5.50277 71.2546 5.3972 70.9886 5.3972C70.7226 5.3972 70.4675 5.50277 70.2794 5.69073L70.2379 5.64925L70.1653 5.57664L70.256 5.49625C70.4013 5.37874 70.5731 5.29861 70.7565 5.26287C70.8058 5.26287 70.8525 5.24991 70.8991 5.24213H71.034H71.1325C71.2212 5.25348 71.3082 5.27524 71.3918 5.30695C71.4527 5.32892 71.5117 5.35581 71.5682 5.38734C71.6274 5.42261 71.6837 5.4625 71.7367 5.50662L71.8145 5.57664H71.8119Z" fill="#C7C7C7"/>
<path d="M70.5156 5.92116L70.3989 5.80707C70.5257 5.67789 70.6916 5.59406 70.8708 5.5685C70.9998 5.54961 71.1315 5.5611 71.2553 5.60207C71.3791 5.64303 71.4916 5.71234 71.5839 5.80447L71.4672 5.92116C71.3409 5.79528 71.1698 5.72459 70.9914 5.72459C70.813 5.72459 70.6419 5.79528 70.5156 5.92116Z" fill="#C7C7C7"/>
<path d="M71.3556 6.03846L71.2389 6.15515C71.2074 6.12252 71.1695 6.09671 71.1275 6.07932C71.0856 6.06192 71.0406 6.05331 70.9952 6.05402C70.9498 6.05347 70.9048 6.06215 70.8629 6.07953C70.821 6.09692 70.7831 6.12265 70.7514 6.15515L70.6373 6.03846C70.7339 5.94575 70.8626 5.89398 70.9965 5.89398C71.1304 5.89398 71.259 5.94575 71.3556 6.03846Z" fill="#C7C7C7"/>
<path d="M71.1016 6.25879C71.1021 6.27992 71.0963 6.30072 71.0849 6.31854C71.0736 6.33636 71.0572 6.35039 71.0378 6.35884C71.0184 6.36729 70.9969 6.36977 70.9762 6.36596C70.9554 6.36216 70.9362 6.35224 70.9211 6.33748C70.9059 6.32272 70.8955 6.30378 70.8912 6.28309C70.8869 6.2624 70.8888 6.24089 70.8968 6.22131C70.9048 6.20174 70.9184 6.18498 70.9359 6.17318C70.9535 6.16137 70.9741 6.15507 70.9953 6.15506C71.0091 6.15472 71.0229 6.15714 71.0358 6.1622C71.0486 6.16726 71.0604 6.17484 71.0703 6.18451C71.0802 6.19418 71.0881 6.20573 71.0934 6.21848C71.0988 6.23124 71.1016 6.24494 71.1016 6.25879Z" fill="#C7C7C7"/>
<path d="M64.6445 5.79726C64.6445 5.73725 64.6623 5.6786 64.6957 5.6287C64.729 5.57881 64.7764 5.53992 64.8318 5.51696C64.8873 5.494 64.9483 5.48799 65.0071 5.4997C65.066 5.5114 65.12 5.5403 65.1625 5.58273C65.2049 5.62516 65.2338 5.67922 65.2455 5.73807C65.2572 5.79692 65.2512 5.85793 65.2282 5.91336C65.2053 5.9688 65.1664 6.01618 65.1165 6.04952C65.0666 6.08286 65.0079 6.10065 64.9479 6.10065C64.9081 6.10065 64.8686 6.09281 64.8318 6.07756C64.795 6.06231 64.7616 6.03996 64.7334 6.01179C64.7052 5.98362 64.6829 5.95017 64.6676 5.91336C64.6524 5.87655 64.6445 5.8371 64.6445 5.79726Z" fill="#C7C7C7"/>
<path d="M65.5883 5.79726C65.5883 5.73725 65.6061 5.6786 65.6394 5.6287C65.6728 5.57881 65.7202 5.53992 65.7756 5.51696C65.831 5.494 65.892 5.48799 65.9509 5.4997C66.0098 5.5114 66.0638 5.5403 66.1062 5.58273C66.1487 5.62516 66.1776 5.67922 66.1893 5.73807C66.201 5.79692 66.195 5.85793 66.172 5.91336C66.149 5.9688 66.1102 6.01618 66.0603 6.04952C66.0104 6.08286 65.9517 6.10065 65.8917 6.10065C65.8519 6.10065 65.8124 6.09281 65.7756 6.07756C65.7388 6.06231 65.7054 6.03996 65.6772 6.01179C65.649 5.98362 65.6267 5.95017 65.6114 5.91336C65.5962 5.87655 65.5883 5.8371 65.5883 5.79726Z" fill="#C7C7C7"/>
<path d="M66.5531 5.79726C66.5531 5.73725 66.5709 5.6786 66.6042 5.6287C66.6376 5.57881 66.685 5.53992 66.7404 5.51696C66.7958 5.494 66.8568 5.48799 66.9157 5.4997C66.9745 5.5114 67.0286 5.5403 67.071 5.58273C67.1135 5.62516 67.1423 5.67922 67.1541 5.73807C67.1658 5.79692 67.1598 5.85793 67.1368 5.91336C67.1138 5.9688 67.0749 6.01618 67.025 6.04952C66.9752 6.08286 66.9165 6.10065 66.8565 6.10065C66.8167 6.10065 66.7772 6.09281 66.7404 6.07756C66.7036 6.06231 66.6701 6.03996 66.642 6.01179C66.6138 5.98362 66.5914 5.95017 66.5762 5.91336C66.5609 5.87655 66.5531 5.8371 66.5531 5.79726Z" fill="#C7C7C7"/>
<path d="M67.5097 5.79725C67.5097 5.73713 67.5276 5.67837 67.561 5.62843C67.5945 5.57848 67.642 5.5396 67.6976 5.51671C67.7532 5.49383 67.8143 5.48797 67.8733 5.49989C67.9322 5.51181 67.9862 5.54096 68.0286 5.58365C68.0709 5.62634 68.0996 5.68064 68.111 5.73967C68.1224 5.79869 68.116 5.85977 68.0927 5.91516C68.0693 5.97055 68.03 6.01775 67.9798 6.05078C67.9295 6.0838 67.8706 6.10116 67.8105 6.10064C67.7708 6.10064 67.7315 6.09278 67.6948 6.0775C67.6581 6.06222 67.6249 6.03983 67.5969 6.01162C67.5689 5.98342 67.5468 5.94995 67.5319 5.91316C67.5169 5.87636 67.5094 5.83697 67.5097 5.79725Z" fill="#C7C7C7"/>
<path d="M68.4641 5.79725C68.4641 5.73713 68.4819 5.67837 68.5154 5.62843C68.5488 5.57848 68.5964 5.5396 68.652 5.51671C68.7075 5.49383 68.7687 5.48797 68.8276 5.49989C68.8865 5.51181 68.9406 5.54096 68.9829 5.58365C69.0252 5.62634 69.0539 5.68064 69.0653 5.73967C69.0767 5.79869 69.0704 5.85977 69.047 5.91516C69.0236 5.97055 68.9844 6.01775 68.9341 6.05078C68.8839 6.0838 68.825 6.10116 68.7649 6.10064C68.7251 6.10064 68.6858 6.09278 68.6492 6.0775C68.6125 6.06222 68.5792 6.03983 68.5512 6.01162C68.5233 5.98342 68.5012 5.94995 68.4862 5.91316C68.4712 5.87636 68.4637 5.83697 68.4641 5.79725Z" fill="#C7C7C7"/>
<path d="M103.967 6.46146H101.5V5.3179H103.967V6.46146ZM101.633 6.3344H103.85V5.44237H101.633V6.3344Z" fill="#C7C7C7"/>
<path d="M103.285 5.51175H101.695V6.26634H103.285V5.51175Z" fill="#C7C7C7"/>
<path d="M104.179 5.58224H103.958V6.19422H104.179V5.58224Z" fill="#C7C7C7"/>
<path d="M86.9272 4.78572H82.1247C82.0457 4.78572 81.9698 4.7543 81.9139 4.69837C81.858 4.64245 81.8265 4.5666 81.8265 4.48751C81.8272 4.40887 81.8589 4.33368 81.9148 4.27832C81.9706 4.22295 82.0461 4.19189 82.1247 4.19189H86.9272C87.0058 4.19189 87.0813 4.22295 87.1371 4.27832C87.193 4.33368 87.2247 4.40887 87.2254 4.48751C87.2254 4.5666 87.194 4.64245 87.138 4.69837C87.0821 4.7543 87.0063 4.78572 86.9272 4.78572Z" fill="white"/>
<path d="M67.6084 89.4926H67.3854V90.5195H66.9654V89.9982H66.2263V90.5195H65.8088V89.4926H65.5858L66.5971 88.4476L67.6084 89.4926Z" fill="#EBEBEB"/>
<path d="M103.826 88.4476H101.389V88.795H103.826V88.4476Z" fill="#EBEBEB"/>
<path d="M103.826 89.3115H101.389V89.659H103.826V89.3115Z" fill="#EBEBEB"/>
<path d="M103.826 90.1722H101.389V90.5197H103.826V90.1722Z" fill="#EBEBEB"/>
<path d="M85.4231 89.5204L84.7307 90.2594L84.0358 89.5204L84.1602 89.4037L84.7307 90.0131L85.3012 89.4037L85.4231 89.5204Z" fill="#EBEBEB"/>
<path d="M84.7307 91.0254C84.4814 91.026 84.2375 90.9525 84.0299 90.8143C83.8223 90.6761 83.6604 90.4795 83.5646 90.2493C83.4688 90.019 83.4435 89.7656 83.4918 89.5209C83.5401 89.2763 83.66 89.0515 83.8361 88.875C84.0122 88.6985 84.2368 88.5782 84.4813 88.5293C84.7259 88.4805 84.9794 88.5053 85.2098 88.6006C85.4402 88.6959 85.6372 88.8575 85.7758 89.0648C85.9144 89.2721 85.9884 89.5158 85.9884 89.7652C85.9877 90.0988 85.8551 90.4185 85.6194 90.6547C85.3838 90.8908 85.0643 91.0241 84.7307 91.0254ZM84.7307 88.6735C84.5141 88.673 84.3022 88.7368 84.1218 88.8568C83.9415 88.9769 83.8008 89.1478 83.7176 89.3478C83.6345 89.5479 83.6126 89.7681 83.6548 89.9806C83.6969 90.1931 83.8012 90.3884 83.9544 90.5416C84.1076 90.6948 84.3028 90.799 84.5153 90.8412C84.7278 90.8833 84.948 90.8614 85.1481 90.7783C85.3482 90.6951 85.5191 90.5545 85.6391 90.3741C85.7591 90.1938 85.8229 89.9818 85.8224 89.7652C85.8218 89.4759 85.7065 89.1986 85.5019 88.994C85.2973 88.7894 85.0201 88.6742 84.7307 88.6735Z" fill="#EBEBEB"/>
<path d="M104.967 9.81699H64.0845V21.7505H104.967V9.81699Z" fill="#90C5F9"/>
<path d="M66.4105 13.6522L65.0595 12.3842L66.4105 11.1187L66.6206 11.3417L65.5081 12.3842L66.6206 13.4266L66.4105 13.6522Z" fill="white"/>
<path d="M103.995 11.595C103.995 11.6463 103.98 11.6965 103.951 11.7391C103.923 11.7817 103.882 11.815 103.835 11.8346C103.788 11.8542 103.735 11.8594 103.685 11.8494C103.635 11.8394 103.589 11.8147 103.552 11.7784C103.516 11.7421 103.491 11.6959 103.481 11.6456C103.471 11.5953 103.476 11.5432 103.496 11.4958C103.516 11.4484 103.549 11.4079 103.592 11.3794C103.634 11.3509 103.684 11.3357 103.736 11.3357C103.804 11.3357 103.87 11.363 103.919 11.4117C103.968 11.4603 103.995 11.5263 103.995 11.595Z" fill="white"/>
<path d="M103.995 12.5421C103.995 12.5933 103.98 12.6435 103.951 12.6861C103.923 12.7288 103.882 12.762 103.835 12.7816C103.788 12.8013 103.735 12.8064 103.685 12.7964C103.635 12.7864 103.589 12.7617 103.552 12.7254C103.516 12.6891 103.491 12.6429 103.481 12.5926C103.471 12.5423 103.476 12.4902 103.496 12.4428C103.516 12.3954 103.549 12.3549 103.592 12.3264C103.634 12.298 103.684 12.2827 103.736 12.2827C103.804 12.2827 103.87 12.3101 103.919 12.3587C103.968 12.4073 103.995 12.4733 103.995 12.5421Z" fill="white"/>
<path d="M103.995 13.4856C103.995 13.5369 103.98 13.587 103.951 13.6296C103.923 13.6723 103.882 13.7055 103.835 13.7251C103.788 13.7448 103.735 13.7499 103.685 13.7399C103.635 13.7299 103.589 13.7052 103.552 13.6689C103.516 13.6327 103.491 13.5865 103.481 13.5362C103.471 13.4859 103.476 13.4337 103.496 13.3863C103.516 13.339 103.549 13.2985 103.592 13.27C103.634 13.2415 103.684 13.2263 103.736 13.2263C103.804 13.2263 103.87 13.2536 103.919 13.3022C103.968 13.3508 103.995 13.4168 103.995 13.4856Z" fill="white"/>
<path d="M68.4641 12.3841C73.1679 12.2103 77.9056 12.2103 82.612 12.3841C77.9056 12.5578 73.1679 12.5578 68.4641 12.3841Z" fill="white"/>
<path d="M68.4641 13.6519C71.6406 13.5664 75.1361 13.5664 78.3179 13.6519C75.1413 13.7375 71.6458 13.7349 68.4641 13.6519Z" fill="white"/>
<path d="M73.1423 18.0104C80.4342 17.93 88.6154 17.93 95.9046 18.0104C88.6154 18.0908 80.4342 18.0908 73.1423 18.0104Z" fill="white"/>
<path d="M65.9464 31.5549C72.3981 31.5082 78.8523 31.5186 85.304 31.5004C91.7556 31.4823 98.2098 31.5004 104.664 31.5549C98.2098 31.599 91.7582 31.5886 85.304 31.6067C78.8497 31.6249 72.3981 31.599 65.9464 31.5549Z" fill="#455A64"/>
<path d="M65.9464 35.9036C72.3981 35.8595 78.8523 35.8699 85.304 35.8518C91.7556 35.8336 98.2098 35.8518 104.664 35.9036C98.2098 35.9503 91.7582 35.9399 85.304 35.9581C78.8497 35.9762 72.3981 35.9607 65.9464 35.9036Z" fill="#455A64"/>
<path d="M65.9464 40.2758C72.3981 40.2317 78.8523 40.2421 85.304 40.224C91.7556 40.2058 98.2098 40.2239 104.664 40.2758C98.2098 40.3225 91.7582 40.3121 85.304 40.3303C78.8497 40.3484 72.3981 40.3121 65.9464 40.2758Z" fill="#455A64"/>
<path d="M65.9464 44.6372C72.3981 44.5931 78.8523 44.6035 85.304 44.5853C91.7556 44.5672 98.2098 44.5853 104.664 44.6372C98.2098 44.6838 91.7582 44.6709 85.304 44.6916C78.8523 44.6709 72.3981 44.6838 65.9464 44.6372Z" fill="#455A64"/>
<path d="M65.9464 48.9985C72.3981 48.9519 78.8523 48.9648 85.304 48.9467C91.7556 48.9285 98.2098 48.9467 104.664 48.9985C98.2098 49.0452 91.7582 49.0322 85.304 49.053C78.8523 49.0322 72.3981 49.0452 65.9464 48.9985Z" fill="#455A64"/>
<path d="M73.741 28.7182C73.798 32.7946 73.7825 36.8683 73.8084 40.9447C73.7851 45.0185 73.8084 49.0948 73.741 53.1686C73.6839 49.0948 73.6995 45.0185 73.6761 40.9447C73.6995 36.8683 73.6839 32.792 73.741 28.7182Z" fill="#455A64"/>
<path d="M80.4363 28.7182C80.4934 32.7946 80.4778 36.8683 80.5038 40.9447C80.4778 45.0185 80.5038 49.0948 80.4363 53.1686C80.3793 49.0948 80.3949 45.0185 80.3715 40.9447C80.3949 36.8683 80.3689 32.792 80.4363 28.7182Z" fill="#455A64"/>
<path d="M87.1319 28.7182C87.1889 32.7946 87.1734 36.8683 87.1967 40.9447C87.1734 45.0185 87.1967 49.0948 87.1319 53.1686C87.0748 49.0948 87.0904 45.0185 87.0645 40.9447C87.0904 36.8683 87.0748 32.792 87.1319 28.7182Z" fill="#455A64"/>
<path d="M93.8275 28.7182C93.8845 32.7946 93.869 36.8683 93.8923 40.9447C93.869 45.0185 93.8923 49.0948 93.8275 53.1686C93.7704 49.0948 93.7834 45.0185 93.7601 40.9447C93.786 36.8683 93.7704 32.792 93.8275 28.7182Z" fill="#455A64"/>
<path d="M100.523 28.7182C100.58 32.7946 100.564 36.8683 100.588 40.9447C100.564 45.0185 100.588 49.0948 100.523 53.1686C100.466 49.0948 100.479 45.0185 100.455 40.9447C100.479 36.8683 100.466 32.792 100.523 28.7182Z" fill="#455A64"/>
<path opacity="0.5" d="M66.9211 45.8344C68.1036 45.8344 68.8089 41.4054 70.4815 41.4054C72.154 41.4054 72.333 44.6364 73.741 44.6364C75.1491 44.6364 75.1076 38.9601 77.0005 38.9601C78.8935 38.9601 78.4553 41.2628 80.4364 41.2628C82.4175 41.2628 81.6655 35.9028 83.74 35.9028C85.8145 35.9028 84.9743 43.2724 87.1318 43.2724C88.4984 43.2724 89.0248 40.9386 90.6558 40.9386C91.7346 40.9386 92.3699 42.1081 93.7805 42.1081C95.1912 42.1081 95.4998 37.6065 97.2631 37.6065C99.0264 37.6065 99.2261 40.2696 100.523 40.2696C101.819 40.2696 102.283 35.908 104.672 35.908V53.1625H66.9211V45.8344Z" fill="#90C5F9"/>
<path opacity="0.3" d="M66.9211 45.8344C68.1036 45.8344 68.8089 41.4054 70.4815 41.4054C72.154 41.4054 72.333 44.6364 73.741 44.6364C75.1491 44.6364 75.1076 38.9601 77.0005 38.9601C78.8935 38.9601 78.4553 41.2628 80.4364 41.2628C82.4175 41.2628 81.6655 35.9028 83.74 35.9028C85.8145 35.9028 84.9743 43.2724 87.1318 43.2724C88.4984 43.2724 89.0248 40.9386 90.6558 40.9386C91.7346 40.9386 92.3699 42.1081 93.7805 42.1081C95.1912 42.1081 95.4998 37.6065 97.2631 37.6065C99.0264 37.6065 99.2261 40.2696 100.523 40.2696C101.819 40.2696 102.283 35.908 104.672 35.908V53.1625H66.9211V45.8344Z" fill="#90C5F9"/>
<path d="M66.9211 46.0477V45.6224C67.279 45.6224 67.7717 44.5852 68.1321 43.8332C68.7493 42.5366 69.3898 41.1934 70.4815 41.1934C71.5187 41.1934 72.0503 42.1762 72.5093 43.0423C72.8697 43.7217 73.2405 44.4244 73.741 44.4244C74.1818 44.4244 74.563 43.0604 74.8431 42.0647C75.2995 40.4336 75.7714 38.7481 77.0005 38.7481C78.0974 38.7481 78.5279 39.4093 78.9065 39.9928C79.2851 40.5762 79.5937 41.0508 80.4364 41.0508C81.1988 41.0508 81.497 39.8009 81.7848 38.5925C82.1245 37.1715 82.4746 35.7012 83.74 35.7012C85.0055 35.7012 85.3166 37.5526 85.6563 39.513C85.9312 41.0974 86.2709 43.0708 87.1318 43.0708C87.6504 43.0708 88.0653 42.5833 88.5113 42.0698C89.0507 41.4423 89.6653 40.7292 90.6559 40.7292C91.2497 40.7292 91.7138 41.0196 92.1624 41.3023C92.6111 41.5849 93.1193 41.9013 93.7805 41.9013C94.2706 41.9013 94.7167 40.8303 95.0771 39.9694C95.5957 38.7066 96.1481 37.3997 97.2657 37.3997C98.3833 37.3997 98.9201 38.2502 99.4024 38.9996C99.7551 39.5467 100.087 40.0628 100.525 40.0628C100.899 40.0628 101.319 39.2356 101.692 38.5069C102.327 37.257 103.118 35.7038 104.666 35.7038V36.1316C103.474 36.1316 102.789 37.48 102.182 38.6677C101.664 39.6868 101.254 40.4829 100.525 40.4829C99.7966 40.4829 99.3609 39.8527 98.933 39.1863C98.5052 38.5199 98.0514 37.8197 97.2657 37.8197C96.5292 37.8197 96.0262 39.0307 95.5802 40.0991C95.0823 41.2893 94.6544 42.3188 93.7831 42.3188C92.9119 42.3188 92.3569 41.9532 91.8409 41.6316C91.4286 41.3723 91.063 41.1493 90.6584 41.1493C89.9453 41.1493 89.4397 41.7353 88.947 42.3058C88.4543 42.8763 87.9253 43.4883 87.1318 43.4883C85.8119 43.4883 85.48 41.5823 85.1299 39.5649C84.8706 38.0298 84.5335 36.1213 83.74 36.1213C82.9465 36.1213 82.5887 37.4723 82.306 38.6651C81.9612 40.1069 81.637 41.4682 80.4364 41.4682C79.2358 41.4682 78.8287 40.7863 78.4371 40.1717C78.0845 39.6271 77.7759 39.1552 77.0005 39.1552C76.2252 39.1552 75.7325 40.8096 75.3591 42.1424C74.939 43.6439 74.6045 44.8315 73.741 44.8315C72.8775 44.8315 72.4704 44.0354 72.0218 43.1901C71.6069 42.4121 71.179 41.6005 70.4815 41.6005C69.7839 41.6005 69.1305 42.9126 68.6274 43.9654C68.0777 45.1375 67.6446 46.0477 66.9211 46.0477Z" fill="#90C5F9"/>
<path opacity="0.5" d="M87.1317 43.2828V53.1677H80.4363V41.2628C82.4175 41.2628 81.6655 35.9028 83.74 35.9028C85.8144 35.9028 84.9743 43.2828 87.1317 43.2828Z" fill="#90C5F9"/>
<path d="M83.7373 36.8368C84.3231 36.8368 84.7979 36.3619 84.7979 35.7762C84.7979 35.1904 84.3231 34.7156 83.7373 34.7156C83.1516 34.7156 82.6768 35.1904 82.6768 35.7762C82.6768 36.3619 83.1516 36.8368 83.7373 36.8368Z" fill="#263238"/>
<path d="M84.3444 35.7763C84.3444 35.8963 84.3088 36.0136 84.2421 36.1134C84.1754 36.2132 84.0807 36.291 83.9698 36.3369C83.8589 36.3828 83.7369 36.3948 83.6192 36.3714C83.5015 36.348 83.3934 36.2902 83.3085 36.2053C83.2237 36.1205 83.1659 36.0124 83.1425 35.8947C83.119 35.777 83.1311 35.6549 83.177 35.5441C83.2229 35.4332 83.3007 35.3384 83.4005 35.2718C83.5003 35.2051 83.6176 35.1695 83.7376 35.1695C83.8985 35.1695 84.0528 35.2334 84.1666 35.3472C84.2804 35.461 84.3444 35.6154 84.3444 35.7763Z" fill="#90C5F9"/>
<path d="M85.6485 31.4533H81.8004V33.6004H85.6485V31.4533Z" fill="#90C5F9"/>
<path d="M83.2167 33.6007H84.2306L83.725 34.3293L83.2167 33.6007Z" fill="#90C5F9"/>
<path d="M82.519 32.2464C83.331 32.2023 84.1447 32.2023 84.9566 32.2464C84.1446 32.2879 83.331 32.2879 82.519 32.2464Z" fill="white"/>
<path d="M82.519 32.6615C83.331 32.6174 84.1447 32.6174 84.9566 32.6615C84.1446 32.7043 83.331 32.7043 82.519 32.6615Z" fill="white"/>
<path d="M66.9211 28.982C66.9652 33.0143 67.0015 37.044 67.0041 41.0763L67.0456 53.1679L66.9211 53.0694L85.7911 53.0927L95.2275 53.1135L104.664 53.1679L95.2275 53.2224L85.7911 53.2431L66.9211 53.2691H66.7966V53.1679L66.8381 41.0763C66.8407 37.044 66.8848 33.0143 66.9211 28.982Z" fill="#455A64"/>
<path d="M68.9412 54.9785C69.8325 54.8436 70.739 54.8436 71.6303 54.9785C70.7388 55.1107 69.8327 55.1107 68.9412 54.9785Z" fill="#DBDBDB"/>
<path d="M64.0845 31.5544C64.4814 31.4196 64.9116 31.4196 65.3085 31.5544C64.9112 31.6867 64.4818 31.6867 64.0845 31.5544Z" fill="#DBDBDB"/>
<path d="M64.0845 35.9038C64.4818 35.7716 64.9112 35.7716 65.3085 35.9038C64.9116 36.0386 64.4814 36.0386 64.0845 35.9038Z" fill="#DBDBDB"/>
<path d="M64.0845 40.275C64.4818 40.1427 64.9112 40.1427 65.3085 40.275C64.9116 40.4098 64.4814 40.4098 64.0845 40.275Z" fill="#DBDBDB"/>
<path d="M64.0845 44.6364C64.4818 44.5041 64.9112 44.5041 65.3085 44.6364C64.9116 44.7711 64.4814 44.7711 64.0845 44.6364Z" fill="#DBDBDB"/>
<path d="M64.0845 48.9987C64.4816 48.8651 64.9114 48.8651 65.3085 48.9987C64.9114 49.1323 64.4816 49.1323 64.0845 48.9987Z" fill="#DBDBDB"/>
<path d="M75.538 54.9784C76.4284 54.8436 77.3341 54.8436 78.2245 54.9784C77.3339 55.1107 76.4286 55.1107 75.538 54.9784Z" fill="#DBDBDB"/>
<path d="M82.1323 54.9785C83.0235 54.8436 83.93 54.8436 84.8213 54.9785C83.9299 55.1107 83.0237 55.1107 82.1323 54.9785Z" fill="#DBDBDB"/>
<path d="M88.7267 54.9785C89.618 54.8436 90.5245 54.8436 91.4157 54.9785C90.5243 55.1107 89.6182 55.1107 88.7267 54.9785Z" fill="#DBDBDB"/>
<path d="M95.3209 54.9785C96.2122 54.8436 97.1187 54.8436 98.01 54.9785C97.1185 55.1107 96.2124 55.1107 95.3209 54.9785Z" fill="#DBDBDB"/>
<path d="M101.918 54.9785C102.809 54.8436 103.716 54.8436 104.607 54.9785C103.715 55.1107 102.809 55.1107 101.918 54.9785Z" fill="#DBDBDB"/>
<path d="M64.1182 24.7924C67.9145 24.6161 71.7393 24.6161 75.5278 24.7924C71.7289 24.9688 67.9041 24.9688 64.1182 24.7924Z" fill="#DBDBDB"/>
<path d="M64.1182 25.9924C66.5567 25.8135 69.0051 25.8135 71.4437 25.9924C69.005 26.1688 66.5568 26.1688 64.1182 25.9924Z" fill="#DBDBDB"/>
<path d="M97.3385 25.9926C99.7786 25.8604 102.224 25.8604 104.664 25.9926C102.224 26.1223 99.7786 26.1223 97.3385 25.9926Z" fill="#90C5F9"/>
<path d="M64.3723 58.9822C68.2101 58.8059 72.0816 58.8059 75.922 58.9822C72.079 59.1586 68.2101 59.1586 64.3723 58.9822Z" fill="#263238"/>
<path d="M95.9407 58.9822C98.8467 58.8526 101.754 58.8526 104.664 58.9822C101.758 59.1136 98.8502 59.1136 95.9407 58.9822Z" fill="#90C5F9"/>
<path d="M72.2343 62.612C75.257 62.4347 78.2875 62.4347 81.3102 62.612C78.2875 62.7881 75.257 62.7881 72.2343 62.612Z" fill="#263238"/>
<path d="M72.2343 63.9422C74.769 63.7659 77.3129 63.7659 79.8477 63.9422C77.3129 64.1185 74.769 64.1185 72.2343 63.9422Z" fill="#263238"/>
<path d="M104.664 68.2187C104.573 68.1306 64.1909 68.478 64.2842 68.2187V61.1344V61.0358H64.3828L84.5182 61.0566C91.2422 61.0721 97.9661 61.0566 104.693 61.0981C104.693 61.1214 104.654 68.1824 104.664 68.2109V68.2187ZM104.664 68.2187L104.636 61.1344C98.1035 61.2536 91.1799 61.1577 84.5182 61.2018C84.609 61.1318 63.9082 61.3911 64.4683 61.1344V68.2187C63.9186 67.9776 104.796 68.2939 104.674 68.2187H104.664Z" fill="#DBDBDB"/>
<path d="M70.5488 62.1535H65.4145V67.2879H70.5488V62.1535Z" fill="#90C5F9"/>
<path d="M103.484 64.7203C103.484 65.3435 103.257 65.9455 102.846 66.4139C102.435 66.8823 101.868 67.1853 101.25 67.2662C100.632 67.3471 100.006 67.2004 99.488 66.8536C98.9702 66.5068 98.5963 65.9835 98.4359 65.3812C98.2756 64.779 98.3398 64.139 98.6165 63.5807C98.8933 63.0223 99.3637 62.5836 99.9401 62.3466C100.516 62.1095 101.159 62.0901 101.749 62.2922C102.338 62.4942 102.834 62.9038 103.144 63.4445C103.367 63.8329 103.484 64.2727 103.484 64.7203Z" fill="#455A64"/>
<path d="M103.144 63.4449L100.917 64.7207V62.1535C101.369 62.1538 101.813 62.2734 102.204 62.5001C102.595 62.7269 102.92 63.0527 103.144 63.4449Z" fill="#90C5F9"/>
<path d="M100.917 66.4966C101.898 66.4966 102.693 65.7013 102.693 64.7203C102.693 63.7393 101.898 62.944 100.917 62.944C99.9357 62.944 99.1404 63.7393 99.1404 64.7203C99.1404 65.7013 99.9357 66.4966 100.917 66.4966Z" fill="white"/>
<path d="M72.2343 71.7164C75.257 71.5404 78.2875 71.5404 81.3102 71.7164C78.2875 71.8925 75.257 71.8925 72.2343 71.7164Z" fill="#263238"/>
<path d="M72.2343 73.0519C74.769 72.8755 77.3129 72.8755 79.8477 73.0519C77.3129 73.2282 74.769 73.2282 72.2343 73.0519Z" fill="#263238"/>
<path d="M104.664 77.3281C104.573 77.2399 64.1909 77.5874 64.2842 77.3281V70.2437V70.1452H64.3828L84.5286 70.1737C91.2525 70.1893 97.9765 70.1737 104.703 70.2152C104.703 70.2386 104.664 77.2996 104.674 77.3281H104.664ZM104.664 77.3281L104.636 70.2437C98.1035 70.363 91.1799 70.2671 84.5182 70.3112C84.609 70.2412 63.9082 70.5005 64.4683 70.2437V77.3281C63.9186 77.087 104.796 77.4033 104.674 77.3281H104.664Z" fill="#DBDBDB"/>
<path d="M70.5488 71.2634H65.4145V76.3978H70.5488V71.2634Z" fill="#455A64"/>
<path d="M103.484 73.8302C103.484 74.4534 103.257 75.0554 102.846 75.5238C102.435 75.9922 101.868 76.2951 101.25 76.3761C100.632 76.457 100.006 76.3103 99.488 75.9635C98.9702 75.6167 98.5963 75.0933 98.4359 74.4911C98.2756 73.8889 98.3398 73.2489 98.6165 72.6905C98.8933 72.1322 99.3637 71.6935 99.9401 71.4564C100.516 71.2194 101.159 71.2 101.749 71.4021C102.338 71.6041 102.834 72.0136 103.144 72.5544C103.367 72.9428 103.484 73.3826 103.484 73.8302Z" fill="#455A64"/>
<path d="M103.484 73.8306C103.484 73.9565 103.474 74.0821 103.456 74.2066L100.917 73.8306V71.2634C101.598 71.2634 102.251 71.5339 102.732 72.0153C103.214 72.4968 103.484 73.1498 103.484 73.8306Z" fill="#90C5F9"/>
<path d="M102.69 73.8306C102.691 74.1821 102.587 74.5259 102.392 74.8184C102.197 75.1109 101.92 75.339 101.595 75.4738C101.27 75.6085 100.913 75.6439 100.568 75.5755C100.224 75.507 99.9068 75.3378 99.6582 75.0892C99.4096 74.8406 99.2404 74.5239 99.1719 74.1791C99.1035 73.8343 99.1389 73.4769 99.2736 73.1522C99.4084 72.8276 99.6365 72.5502 99.929 72.3552C100.221 72.1602 100.565 72.0564 100.917 72.0569C101.387 72.0576 101.838 72.2447 102.17 72.5772C102.503 72.9097 102.69 73.3604 102.69 73.8306Z" fill="white"/>
<path d="M72.2343 80.8261C75.257 80.65 78.2875 80.65 81.3102 80.8261C78.2875 81.0021 75.257 81.0021 72.2343 80.8261Z" fill="#263238"/>
<path d="M72.2343 82.1612C74.769 81.9849 77.3129 81.9849 79.8477 82.1612C77.3129 82.3376 74.769 82.3376 72.2343 82.1612Z" fill="#263238"/>
<path d="M104.664 86.4378C104.573 86.3496 64.1909 86.6971 64.2842 86.4378V79.3534V79.2549H64.3828L84.5286 79.2834C91.2525 79.299 97.9765 79.2834 104.703 79.3249C104.703 79.3482 104.664 86.4093 104.674 86.4378H104.664ZM104.664 86.4378L104.636 79.3534C98.1035 79.4727 91.1799 79.3768 84.5182 79.4208C84.609 79.3508 63.9082 79.6101 64.4683 79.3534V86.4378C63.9186 86.1966 104.796 86.513 104.674 86.4378H104.664Z" fill="#DBDBDB"/>
<path d="M70.5488 80.3728H65.4145V85.5072H70.5488V80.3728Z" fill="#90C5F9"/>
<path d="M103.484 82.94C103.484 83.4591 103.327 83.966 103.033 84.3939C102.739 84.8217 102.322 85.1502 101.837 85.336C101.544 85.4497 101.231 85.5077 100.917 85.5072C100.409 85.5072 99.9126 85.3566 99.4904 85.0745C99.0683 84.7924 98.7392 84.3915 98.5449 83.9224C98.3506 83.4533 98.2998 82.9371 98.3988 82.4391C98.4979 81.9412 98.7424 81.4837 99.1014 81.1247C99.4604 80.7657 99.9178 80.5212 100.416 80.4221C100.914 80.3231 101.43 80.3739 101.899 80.5682C102.368 80.7625 102.769 81.0916 103.051 81.5137C103.333 81.9359 103.484 82.4322 103.484 82.94Z" fill="#455A64"/>
<path d="M103.484 82.94C103.484 83.4591 103.327 83.9661 103.033 84.3939C102.739 84.8217 102.322 85.1502 101.838 85.336L100.917 82.94V80.3728C101.598 80.3728 102.251 80.6433 102.732 81.1247C103.214 81.6062 103.484 82.2591 103.484 82.94Z" fill="#90C5F9"/>
<path d="M102.69 82.94C102.691 83.2915 102.587 83.6353 102.392 83.9278C102.197 84.2203 101.92 84.4484 101.595 84.5832C101.27 84.7179 100.913 84.7533 100.568 84.6849C100.224 84.6164 99.9068 84.4472 99.6582 84.1986C99.4096 83.9501 99.2404 83.6333 99.1719 83.2885C99.1035 82.9437 99.1389 82.5863 99.2736 82.2617C99.4084 81.937 99.6365 81.6596 99.929 81.4646C100.221 81.2696 100.565 81.1658 100.917 81.1663C101.387 81.167 101.838 81.3541 102.17 81.6866C102.503 82.0191 102.69 82.4698 102.69 82.94Z" fill="white"/>
<path d="M108.634 83.9468C105.429 88.2903 102.084 93.3287 101.27 98.7768C101.268 98.7862 101.268 98.7958 101.27 98.8052C101.272 98.8146 101.275 98.8235 101.281 98.8314C101.286 98.8394 101.293 98.8462 101.301 98.8515C101.309 98.8568 101.317 98.8605 101.327 98.8624C101.336 98.8643 101.346 98.8643 101.355 98.8624C101.365 98.8606 101.373 98.8569 101.381 98.8516C101.389 98.8463 101.396 98.8395 101.401 98.8315C101.407 98.8236 101.41 98.8147 101.412 98.8053C101.78 97.3198 102.254 95.8622 102.828 94.4437C104.936 93.8629 107.008 93.3857 108.113 91.2931C109.244 89.1434 109.101 86.3377 108.891 83.9935C108.862 83.8768 108.691 83.8768 108.634 83.9468Z" fill="#90C5F9"/>
<path d="M102.854 94.4014C104.293 91.1678 106.145 87.9186 108.494 85.2633C108.51 85.2451 108.536 85.2633 108.52 85.2892C106.98 87.1822 105.81 89.2463 104.669 91.3441C105.732 90.2654 106.894 89.3007 107.9 88.1572C107.921 88.1338 107.952 88.1572 107.934 88.1883C106.933 89.3863 105.844 90.6906 104.542 91.5775C104.192 92.2206 103.842 92.874 103.484 93.5119C103.572 93.4627 103.663 93.4186 103.743 93.3745C103.759 93.3745 103.775 93.3901 103.759 93.3978C103.658 93.4497 103.559 93.5016 103.458 93.5456C103.29 93.8516 103.121 94.1576 102.94 94.461C102.929 94.5284 102.823 94.4688 102.854 94.4014Z" fill="#263238"/>
<path d="M103.925 93.2739C104.787 92.7914 105.61 92.2417 106.386 91.6299C106.406 91.6143 106.438 91.6429 106.417 91.661C105.665 92.3109 104.841 92.8721 103.961 93.3336C103.957 93.336 103.953 93.3376 103.948 93.3383C103.944 93.339 103.939 93.3388 103.935 93.3377C103.93 93.3366 103.926 93.3346 103.922 93.3319C103.919 93.3292 103.915 93.3258 103.913 93.3219C103.911 93.318 103.909 93.3137 103.908 93.3091C103.908 93.3046 103.908 93.3 103.909 93.2955C103.91 93.2911 103.912 93.2869 103.915 93.2832C103.917 93.2795 103.921 93.2763 103.925 93.2739Z" fill="#263238"/>
<path d="M100.891 97.9672C100.891 98.032 101.01 98.032 101.008 97.9672C101.026 96.1728 101.008 94.3706 101.036 92.5684C101.495 91.6426 102.483 91.1292 103.168 90.385C103.662 89.8427 104.091 89.2449 104.446 88.6035C105.274 87.073 105.78 85.3892 105.932 83.6559C106.121 81.737 105.393 75.4072 104.584 75.6172C104.164 75.7287 102.807 78.8664 102.447 79.9036C101.863 81.6179 101.436 83.3815 101.171 85.1728C100.515 89.384 100.569 93.7301 100.891 97.9672Z" fill="#90C5F9"/>
<path d="M100.878 90.2296C100.977 87.9606 101.487 85.6683 101.967 83.4668C102.486 81.0967 103.085 78.864 104.301 76.748C104.322 76.7091 104.381 76.748 104.361 76.7843C103.547 78.4292 102.917 80.1589 102.483 81.942C102.564 81.8124 102.662 81.6827 102.742 81.5712C102.776 81.5245 102.854 81.5712 102.823 81.6179C102.713 81.8091 102.585 81.989 102.439 82.1546C102.437 82.1558 102.434 82.1564 102.431 82.1564C102.429 82.1564 102.426 82.1558 102.424 82.1546C102.003 83.8505 101.703 85.5827 101.446 87.3123C101.464 87.2916 101.482 87.2683 101.503 87.2475C101.524 87.2268 101.537 87.2475 101.529 87.2657C101.498 87.3253 101.461 87.3798 101.425 87.4394C101.296 88.3159 101.166 89.1923 101.054 90.061C102.61 88.7256 103.951 87.149 104.705 85.2093C104.705 85.2093 104.724 85.2093 104.718 85.2093C103.982 87.2216 102.82 89.0108 101.028 90.2322C100.997 90.4656 100.964 90.6989 100.93 90.9323C100.93 90.979 100.847 90.9686 100.847 90.9193C100.847 90.7145 100.847 90.507 100.865 90.2996C100.861 90.2942 100.858 90.2881 100.857 90.2816C100.856 90.2751 100.855 90.2684 100.857 90.2618C100.858 90.2553 100.86 90.249 100.864 90.2435C100.868 90.238 100.872 90.2332 100.878 90.2296Z" fill="#263238"/>
<path d="M101.614 86.9414C102.81 85.1574 103.925 83.4278 104.799 81.457C104.801 81.4519 104.805 81.4477 104.81 81.4455C104.815 81.4434 104.821 81.4433 104.826 81.4453C104.831 81.4474 104.835 81.4514 104.837 81.4565C104.84 81.4616 104.84 81.4674 104.838 81.4726C104.101 83.4304 103.069 85.4141 101.674 86.9881C101.667 86.9936 101.659 86.9966 101.65 86.9967C101.641 86.9967 101.633 86.9938 101.626 86.9884C101.619 86.983 101.614 86.9754 101.612 86.9669C101.61 86.9584 101.611 86.9494 101.614 86.9414Z" fill="#263238"/>
<path d="M103.201 81.0235C103.697 80.147 104.218 79.2965 104.685 78.4044C104.698 78.3785 104.731 78.4044 104.721 78.4252C104.339 79.3567 103.854 80.2429 103.277 81.0676C103.27 81.0758 103.261 81.0813 103.25 81.0832C103.24 81.0851 103.229 81.0832 103.22 81.0778C103.211 81.0725 103.204 81.0641 103.201 81.0541C103.197 81.0441 103.197 81.0333 103.201 81.0235Z" fill="#263238"/>
<path d="M103.007 81.3981V81.4144C103.007 81.4144 102.999 81.3981 103.007 81.3981Z" fill="#263238"/>
<path d="M99.6773 92.7786C99.6528 93.971 99.5121 95.1582 99.2572 96.3233C99.2754 96.4504 99.2935 96.5827 99.3143 96.7097C99.6802 95.4265 99.8917 94.1041 99.9444 92.7708C99.9554 92.7523 99.9611 92.7313 99.9611 92.7099C99.9611 92.6884 99.9554 92.6673 99.9444 92.6489C99.9994 90.8572 99.8699 89.0646 99.558 87.2993C99.0031 84.0009 97.7895 80.8373 95.4894 78.3687C95.4705 78.3512 95.4477 78.3384 95.4228 78.3314C95.398 78.3244 95.3719 78.3234 95.3466 78.3285C95.3213 78.3335 95.2975 78.3445 95.2773 78.3605C95.2571 78.3765 95.2409 78.3971 95.2301 78.4205C94.3018 80.7803 94.6259 83.6067 95.4168 85.9405C95.8438 87.2148 96.4554 88.4196 97.232 89.5164C98.0307 90.6315 99.0394 91.5676 99.6773 92.7786Z" fill="#90C5F9"/>
<path d="M95.7591 79.4685C97.9373 83.0055 99.4543 87.1985 99.6488 91.376C99.6488 91.4486 99.5269 91.4694 99.5165 91.3916C99.4646 91.0182 99.4076 90.6448 99.3479 90.2739C98.4455 89.4104 97.5198 88.5003 96.8741 87.4215C96.8741 87.4008 96.8923 87.38 96.9052 87.3956C97.6511 88.3139 98.4503 89.1875 99.2987 90.012C99.1431 89.0889 98.9573 88.1796 98.7412 87.2841C98.6815 87.2193 98.6245 87.1492 98.5674 87.0818C98.5104 87.0144 98.5934 86.9729 98.6323 87.017L98.6841 87.0766C98.3781 85.8489 97.998 84.6409 97.5457 83.4593C96.9908 82.798 96.3711 82.2249 95.9665 81.4289C95.9665 81.4107 95.9821 81.3951 95.9951 81.4107C96.3192 81.8671 96.6356 82.3261 97.0038 82.7487C97.149 82.9173 97.3124 83.0755 97.4628 83.2388C96.9574 81.9567 96.3576 80.7137 95.6683 79.5203C95.6424 79.4685 95.7254 79.4192 95.7591 79.4685Z" fill="#263238"/>
<path d="M96.1999 83.8347C96.9026 84.7812 97.7065 85.6862 98.36 86.6663C98.3781 86.6923 98.3392 86.7208 98.3159 86.7001C97.4731 85.9221 96.76 84.833 96.1506 83.8606C96.1325 83.8295 96.1869 83.8061 96.1999 83.8347Z" fill="#263238"/>
<path d="M98.4588 86.8837L98.4902 86.9151C98.5111 86.936 98.4771 86.9673 98.4562 86.9464L98.4274 86.9177C98.4065 86.8968 98.4379 86.8628 98.4588 86.8837Z" fill="#263238"/>
<path d="M92.3442 86.2691C92.6025 88.2437 93.3982 90.1094 94.6443 91.6627C95.1574 92.2725 95.7925 92.7681 96.5088 93.1175C97.3152 93.5168 98.1606 93.9784 98.9982 94.3051C99.3939 95.3168 99.6884 96.3652 99.8772 97.435C99.9058 97.3442 99.9317 97.2483 99.9576 97.1575C99.4234 92.5522 96.4414 88.6003 92.6295 86.0876C92.5995 86.0685 92.5648 86.0585 92.5293 86.0585C92.4938 86.0585 92.4591 86.0686 92.4292 86.0877C92.3993 86.1067 92.3754 86.1339 92.3603 86.166C92.3453 86.1981 92.3397 86.2339 92.3442 86.2691Z" fill="#90C5F9"/>
<path d="M93.6614 87.6315C93.6355 87.6056 93.6614 87.5589 93.7003 87.5796C95.7957 89.1374 97.4666 91.1961 98.5598 93.5671C98.5857 93.6294 98.5002 93.6864 98.4639 93.6216C98.2875 93.313 98.106 93.0096 97.9219 92.714C97.0532 92.5506 96.2286 91.9361 95.5881 91.3552C95.57 91.3396 95.5881 91.3137 95.614 91.3293C95.9462 91.634 96.3156 91.8954 96.7135 92.1072C97.0688 92.2861 97.45 92.4002 97.8208 92.5428C97.4966 92.0242 97.1621 91.5419 96.8121 91.0648C95.8684 90.7037 94.9839 90.2038 94.1878 89.5815C94.1619 89.5634 94.1878 89.5245 94.2112 89.54C94.9989 90.0142 95.8108 90.447 96.6435 90.8366C96.1113 90.136 95.5381 89.4675 94.9269 88.8347C94.6313 88.6791 94.3305 88.5235 94.0452 88.355C94.0423 88.3538 94.0397 88.352 94.0375 88.3498C94.0353 88.3476 94.0335 88.345 94.0323 88.3421C94.0311 88.3392 94.0305 88.3361 94.0305 88.333C94.0304 88.3298 94.0311 88.3267 94.0323 88.3239C94.0334 88.321 94.0352 88.3183 94.0374 88.3161C94.0396 88.3139 94.0422 88.3121 94.0451 88.3109C94.048 88.3097 94.0511 88.3091 94.0542 88.3091C94.0574 88.3091 94.0605 88.3097 94.0634 88.3109C94.3012 88.3945 94.5284 88.506 94.7402 88.6428C94.3953 88.3083 94.0426 87.966 93.6614 87.6315Z" fill="#263238"/>
<path d="M93.7441 89.2208C93.7949 89.2514 93.8432 89.2859 93.8886 89.3241C93.9041 89.337 93.8886 89.355 93.8706 89.3499C93.8179 89.3241 93.767 89.2948 93.7183 89.2621C93.6925 89.2466 93.7157 89.2028 93.7441 89.2208Z" fill="#263238"/>
<path d="M105.908 107.409H95.4609L96.3036 97.8948L96.4903 95.7969H104.879L105.066 97.8948L105.908 107.409Z" fill="#455A64"/>
<path d="M105.066 97.8948H96.3036L96.4904 95.7969H104.879L105.066 97.8948Z" fill="#263238"/>
<path d="M105.38 94.3316H95.9902V96.4087H105.38V94.3316Z" fill="#455A64"/>
<path d="M57.1325 15.7875C57.1339 17.4438 56.6746 19.0678 55.8059 20.478C54.9372 21.8882 53.6933 23.0289 52.2134 23.7727C50.7334 24.5164 49.0758 24.8338 47.4258 24.6894C45.7758 24.5449 44.1986 23.9444 42.8704 22.9548L38.4958 24.0724L40.311 19.9987C39.6698 18.8015 39.3101 17.4739 39.2592 16.1168C39.2084 14.7597 39.4677 13.4089 40.0174 12.1671C40.5672 10.9253 41.3929 9.82524 42.4318 8.95058C43.4706 8.07592 44.6953 7.4497 46.0126 7.11956C47.3299 6.78942 48.7052 6.76406 50.0337 7.04539C51.3623 7.32673 52.6092 7.90735 53.6797 8.74311C54.7501 9.57886 55.6158 10.6477 56.211 11.8684C56.8061 13.0891 57.1151 14.4294 57.1143 15.7875H57.1325Z" fill="white"/>
<path d="M57.1323 15.787C57.1318 17.448 56.671 19.0765 55.8011 20.4915C54.9311 21.9065 53.686 23.0528 52.2041 23.803C50.7221 24.5533 49.0612 24.8782 47.4058 24.7416C45.7503 24.6051 44.1651 24.0125 42.8261 23.0295L42.9039 23.0451L38.5345 24.1809L38.3063 24.2405L38.4023 24.0253L40.2175 19.9463V20.0578C39.5633 18.8466 39.1994 17.5 39.1543 16.1241C38.9676 11.944 41.9315 7.99988 46.013 7.06377C51.5908 5.63756 57.1816 10.0407 57.1323 15.787ZM57.1323 15.787C57.1504 10.0588 51.5934 5.71276 46.0494 7.20121C42.0949 8.15806 39.1932 12.0607 39.398 16.1137C39.4512 17.4505 39.8058 18.758 40.4353 19.9385L40.4638 19.993L40.4405 20.0501L38.6201 24.1186L38.4904 23.9605L42.8702 22.8662H42.9117C44.2277 23.8628 45.7956 24.4726 47.4392 24.627C49.0828 24.7814 50.7369 24.4742 52.2154 23.7401C53.694 23.0059 54.9385 21.8738 55.8089 20.4711C56.6793 19.0685 57.1412 17.4508 57.1427 15.7999L57.1323 15.787Z" fill="#263238"/>
<path d="M46.7548 21.101L42.7537 17.048L44.0969 15.7203L46.4359 18.0878L51.2928 10.4719L52.8849 11.4884L46.7548 21.101Z" fill="#90C5F9"/>
<path d="M43.5466 49.259C44.1972 49.164 44.8073 48.8852 45.3049 48.4553C45.8026 48.0255 46.1672 47.4626 46.3559 46.8326C46.5447 46.2027 46.5497 45.532 46.3703 44.8994C46.191 44.2667 45.8348 43.6984 45.3436 43.2612C46.7179 42.9241 47.8848 41.9465 47.9678 40.4088C48.056 38.814 46.9046 37.603 45.4006 37.297C45.4006 37.297 45.3851 37.3126 45.4006 37.3178C46.7361 37.7482 47.82 38.9177 47.7189 40.388C47.6333 41.6457 46.8294 42.4158 45.8052 42.8359C46.2039 42.4965 46.5287 42.0787 46.7593 41.6086C46.9899 41.1384 47.1215 40.6259 47.1458 40.1028C47.1547 39.518 46.99 38.9437 46.6724 38.4526C46.3548 37.9614 45.8987 37.5755 45.3617 37.3437C45.8959 36.1198 46.0411 34.6261 45.341 33.4333C45.0569 32.9336 44.6334 32.5274 44.1223 32.2645C43.6111 32.0015 43.0344 31.8932 42.4626 31.9526C42.6154 31.324 42.5803 30.6644 42.3618 30.0555C42.1433 29.4466 41.7509 28.9152 41.2334 28.5271C40.7158 28.139 40.0957 27.9112 39.45 27.872C38.8043 27.8329 38.1612 27.984 37.6006 28.3067C37.6649 27.8444 37.6116 27.3734 37.4455 26.9371C37.2794 26.5009 37.006 26.1136 36.6505 25.8112C36.295 25.5087 35.869 25.3008 35.4118 25.2066C34.9546 25.1125 34.4811 25.1353 34.035 25.2728C34.0151 24.9155 33.8928 24.5714 33.6827 24.2818C33.4725 23.9921 33.1835 23.769 32.85 23.6391C32.0721 23.3072 31.2163 23.4887 30.4566 23.7973C30.2437 23.4903 29.9572 23.2415 29.6233 23.0739C29.2894 22.9063 28.9188 22.8251 28.5454 22.8379C28.0651 22.8709 27.6123 23.0738 27.2678 23.4101C26.9234 23.7465 26.7099 24.1944 26.6654 24.6738C25.3689 24.36 23.9167 24.2019 22.7032 24.8553C21.7048 25.3947 20.9554 26.476 21.0903 27.6273C20.5259 27.5675 19.9552 27.6281 19.4159 27.805C18.8766 27.9819 18.381 28.2712 17.9617 28.6537C17.5425 29.0362 17.2091 29.5033 16.9835 30.0241C16.758 30.545 16.6455 31.1077 16.6535 31.6752C16.1682 31.7706 15.7166 31.9919 15.3439 32.3168C14.9712 32.6418 14.6904 33.059 14.5297 33.5267C14.2811 34.161 14.1921 34.8466 14.2704 35.5234C13.8417 35.6399 13.4607 35.8885 13.1814 36.2339C12.9021 36.5793 12.7388 37.0039 12.7145 37.4474C12.6601 38.3343 13.0931 39.0448 13.6895 39.6282C13.7431 39.8629 13.7431 40.1067 13.6895 40.3414C13.5619 40.9352 13.5837 41.5515 13.7529 42.1349C13.9222 42.7183 14.2336 43.2505 14.6594 43.6839C14.4894 43.9967 14.3881 44.3421 14.3621 44.6972C14.3362 45.0523 14.3862 45.4088 14.5089 45.743C14.6316 46.0772 14.8241 46.3814 15.0736 46.6353C15.3231 46.8893 15.6239 47.0871 15.9559 47.2157C15.8148 47.9413 15.9646 48.6934 16.3731 49.3095C16.7816 49.9256 17.416 50.3564 18.1393 50.5089C18.0692 51.0932 18.1255 51.6857 18.3045 52.2463C18.4835 52.8069 18.7809 53.3225 19.1765 53.7581C19.8015 54.4271 20.7843 54.9042 21.6607 54.5619C21.6452 55.2828 22.379 55.7937 23.0766 55.8585C23.3419 55.8737 23.6081 55.8589 23.8701 55.8144C24.1786 55.7677 24.565 55.6277 24.8762 55.6951C25.1874 55.7626 25.4285 56.0711 25.6801 56.2604C25.8618 56.3964 26.0574 56.5129 26.2635 56.6079C27.0401 56.9482 27.9095 57.0137 28.7283 56.7936C29.5471 56.5734 30.2665 56.0808 30.7677 55.3969C31.7427 56.123 33.0445 55.8533 34.0506 55.2776C34.3713 55.0823 34.6749 54.8602 34.9582 54.6138C35.1983 54.3782 35.5053 54.2224 35.8373 54.1678C36.0551 54.1419 36.2807 54.1678 36.5011 54.1419C37.2479 54.0615 37.7536 53.5455 38.1918 52.9827C40.8783 54.8161 43.8914 52.2204 43.5466 49.259ZM13.0049 37.8701C12.9623 37.409 13.0641 36.9461 13.2965 36.5456C13.5288 36.145 13.8801 35.8267 14.3015 35.6349C14.3015 35.7049 14.3274 35.749 14.3274 35.749C14.3274 35.749 14.0966 35.9538 13.9955 36.0653C13.8147 36.2713 13.6652 36.5028 13.5521 36.7525C13.3102 37.2745 13.229 37.8567 13.3187 38.425C13.3644 38.6756 13.441 38.9195 13.5469 39.1511C13.5469 39.1822 13.5677 39.2108 13.5806 39.2393C13.2656 38.8451 13.0662 38.371 13.0049 37.8701ZM28.9759 23.4576C28.5367 23.4264 28.0985 23.5307 27.7205 23.7566C27.3425 23.9824 27.043 24.3189 26.8625 24.7205L26.7925 24.7023C27.0337 23.8155 27.4978 23.0713 28.561 23.0246C28.8892 23.0136 29.2145 23.089 29.5044 23.2433C29.7943 23.3976 30.0386 23.6253 30.2128 23.9036H30.1998C29.8418 23.6431 29.4176 23.4885 28.9759 23.4576ZM38.28 52.8635C38.2866 52.8553 38.2927 52.8466 38.2981 52.8375C39.2497 53.1689 40.2929 53.1164 41.2064 52.6914C42.1199 52.2663 42.8319 51.5021 43.1913 50.5608C42.543 52.6975 40.746 54.1678 38.28 52.8635Z" fill="#263238"/>
<path d="M30.0886 64.8983C35.3422 76.1394 44.2469 91.348 48.3337 91.9884C50.8023 92.3722 54.9772 92.7067 58.1486 89.7169C65.0722 83.1952 69.8175 73.8782 72.447 69.0939C73.6398 66.9209 60.2931 57.2538 58.6153 59.3049C54.6816 64.1022 50.2448 73.4011 49.5161 73.3725C46.8245 73.2636 42.8311 66.7108 36.3094 60.6352C28.4549 53.3123 27.8455 60.0958 30.0886 64.8983Z" fill="#AD6359"/>
<path d="M70.5438 72.1357C73.8422 68.6168 78.1727 63.3736 78.1831 61.1668C78.1831 58.8538 77.9056 50.7114 77.2288 48.8418C76.552 46.9722 72.9294 42.149 71.2646 41.5137C69.9344 40.9951 69.2239 42.6495 70.7694 45.6367C72.499 48.9766 71.97 50.3251 72.0504 51.396C72.1333 52.5059 70.2741 57.2253 68.7156 57.6195C67.7951 57.8554 65.8865 57.8451 65.4535 56.1855C65.0204 54.5259 65.4535 53.0271 64.813 50.1332C64.3099 47.8824 62.4299 46.4847 61.6546 46.8788C60.8792 47.273 61.5223 48.6188 61.0115 51.9898C60.6925 54.0928 60.3814 55.602 57.8738 58.6749C55.6801 61.3639 55.54 65.0876 55.54 65.0876L70.5438 72.1357Z" fill="#AD6359"/>
<path d="M78.3357 55.9777C78.2449 54.7097 79.1136 50.8667 78.8128 49.1915C78.512 47.5164 76.5464 41.35 74.6638 40.8469C72.3067 40.2168 73.0068 45.2293 73.5073 47.3789C74.0078 49.5286 72.6334 53.4027 72.6334 53.4027L75.8774 54.7823L78.3357 55.9777Z" fill="#AD6359"/>
<path d="M72.1694 54.2869C72.7502 52.3369 73.4659 50.3558 73.4996 48.3072C73.3985 46.8395 73.1055 45.3952 73.0355 43.9171C73.0147 43.0406 72.9603 42.0838 73.4037 41.2903C73.4791 41.16 73.5832 41.0486 73.7081 40.9646C73.833 40.8805 73.9755 40.8261 74.1246 40.8054C73.9831 40.8382 73.8506 40.9017 73.7364 40.9913C73.6221 41.0809 73.5289 41.1945 73.4633 41.324C73.0925 42.1227 73.1807 43.0432 73.2351 43.9041C73.3337 45.071 73.5256 46.2379 73.676 47.4074C73.9794 49.7853 73.0147 52.1113 72.1694 54.2869Z" fill="#263238"/>
<path d="M78.2271 57.0819C78.4864 55.8476 80.3768 52.4351 80.5609 50.7496C80.745 49.064 80.5765 42.6202 78.9324 41.5959C76.858 40.2993 76.1474 45.2911 76.0308 47.4874C75.9141 49.6838 73.531 52.9744 73.531 52.9744L76.233 55.2304L78.2271 57.0819Z" fill="#AD6359"/>
<path d="M72.8333 53.6809C73.9276 51.9902 75.1671 50.3098 75.7506 48.3598C76.0617 46.9362 76.181 45.4789 76.5285 44.0527C76.7515 43.2125 76.9615 42.2842 77.6046 41.654C77.7124 41.5504 77.8426 41.473 77.9852 41.428C78.1278 41.3831 78.2789 41.3717 78.4266 41.3947C78.2825 41.3836 78.1377 41.4051 78.003 41.4576C77.8684 41.5102 77.7473 41.5924 77.6487 41.6981C77.0756 42.3568 76.9045 43.254 76.7178 44.089C76.4896 45.2299 76.3522 46.3865 76.1706 47.5456C75.8076 49.8923 74.2414 51.8475 72.8333 53.6757V53.6809Z" fill="#263238"/>
<path d="M73.2771 56.6496C71.7627 57.9046 69.6468 58.3714 67.7279 58.4985C66.2615 58.5512 64.8239 58.921 63.5141 59.5824C63.0761 59.8027 62.651 60.0477 62.2408 60.3162C63.7912 59.0527 65.7088 58.325 67.7071 58.2417C69.6338 58.1069 71.6357 57.7231 73.2745 56.647L73.2771 56.6496Z" fill="#263238"/>
<path d="M78.0662 42.1848L71.2049 60.7722C71.1063 61.0255 70.9238 61.2374 70.6878 61.3724C70.4518 61.5073 70.1767 61.5573 69.9083 61.5138L60.5861 59.6572C60.4661 59.6355 60.3525 59.5871 60.2539 59.5154C60.1553 59.4437 60.0741 59.3506 60.0165 59.2431C59.9589 59.1356 59.9263 59.0165 59.9212 58.8947C59.9161 58.7729 59.9387 58.6515 59.9871 58.5395L66.8485 39.9547C66.9454 39.7 67.1275 39.4867 67.3638 39.3511C67.6002 39.2154 67.8762 39.1658 68.145 39.2105L77.4672 41.0672C77.5873 41.0888 77.7008 41.1373 77.7995 41.209C77.8981 41.2807 77.9793 41.3737 78.0369 41.4812C78.0945 41.5887 78.127 41.7078 78.1321 41.8297C78.1372 41.9515 78.1147 42.0729 78.0662 42.1848Z" fill="#37474F"/>
<path d="M76.8939 40.9532L67.5587 39.0992C67.2902 39.0542 67.0145 39.1035 66.7782 39.2387C66.5418 39.3739 66.3596 39.5866 66.2622 39.8408L59.4008 58.4256C59.3524 58.5375 59.3298 58.6589 59.3349 58.7808C59.34 58.9026 59.3726 59.0217 59.4302 59.1292C59.4878 59.2367 59.569 59.3297 59.6676 59.4014C59.7662 59.4731 59.8798 59.5216 59.9998 59.5432L69.335 61.3999C69.6035 61.4443 69.879 61.3948 70.1152 61.2597C70.3514 61.1246 70.5338 60.9122 70.6316 60.6583L77.4929 42.0735C77.5418 41.9614 77.5647 41.8398 77.5599 41.7176C77.5551 41.5954 77.5226 41.476 77.465 41.3681C77.4073 41.2603 77.326 41.167 77.2271 41.0951C77.1282 41.0233 77.0143 40.9748 76.8939 40.9532ZM70.2556 59.9659C70.1721 60.2011 70.0105 60.4006 69.7976 60.5309C69.5847 60.6612 69.3335 60.7144 69.0861 60.6816L60.744 59.022C60.6338 58.9981 60.5303 58.9496 60.4414 58.8801C60.3525 58.8106 60.2805 58.722 60.2306 58.6208C60.1807 58.5196 60.1544 58.4084 60.1535 58.2956C60.1526 58.1828 60.1772 58.0712 60.2254 57.9692L66.6252 40.6628C66.9934 39.6645 67.4031 39.693 67.8569 39.7863L69.5269 40.1183C69.6254 40.1364 69.6643 40.2609 69.6151 40.3931L69.5943 40.4502C69.4802 40.7588 69.654 40.7951 69.8692 40.8391L73.7329 41.6171C73.9507 41.6586 74.1245 41.6923 74.2515 41.3837L74.2723 41.3266C74.3215 41.1918 74.4382 41.101 74.5316 41.1218L76.2015 41.4537C76.6683 41.5471 76.9976 41.7545 76.6605 42.6673L70.2556 59.9659Z" fill="#263238"/>
<path d="M76.645 42.66L70.2555 59.9664C70.1721 60.2017 70.0104 60.4011 69.7975 60.5314C69.5847 60.6617 69.3335 60.7149 69.086 60.6821L60.744 59.0225C60.6338 58.9986 60.5303 58.9501 60.4414 58.8807C60.3525 58.8112 60.2804 58.7225 60.2306 58.6213C60.1807 58.5201 60.1544 58.409 60.1535 58.2961C60.1526 58.1833 60.1772 58.0717 60.2254 57.9697L66.6252 40.6633C66.9934 39.665 67.4031 39.6935 67.8569 39.7869L69.5269 40.1188C69.6254 40.1369 69.6643 40.2614 69.615 40.3937L69.5943 40.4507C69.4802 40.7593 69.6539 40.7956 69.8692 40.8397L73.7329 41.6176C73.9507 41.6591 74.1245 41.6928 74.2515 41.3842L74.2723 41.3272C74.3215 41.1923 74.4382 41.1016 74.5316 41.1223L76.2015 41.4542C76.6527 41.5398 76.9821 41.7473 76.645 42.66Z" fill="white"/>
<path d="M69.0863 40.4511H69.0629C69.0496 40.4264 69.0307 40.4051 69.0078 40.3889C68.9848 40.3727 68.9585 40.362 68.9307 40.3578C68.8693 40.3478 68.8062 40.3587 68.7518 40.3889V40.3707L68.7777 40.3552L68.8373 40.337C68.8606 40.3345 68.8841 40.3345 68.9074 40.337H68.967H68.9877C69.0061 40.3421 69.0236 40.35 69.0396 40.3604L69.0733 40.3863C69.0834 40.3964 69.0921 40.4077 69.0992 40.42L69.1122 40.4382L69.0863 40.4511Z" fill="#C7C7C7"/>
<path d="M68.7729 40.4662L68.7573 40.4376C68.7938 40.4151 68.8364 40.4042 68.8792 40.4065C68.9073 40.4076 68.9346 40.4158 68.9586 40.4303C68.9827 40.4448 69.0026 40.4652 69.0166 40.4895L68.9829 40.5077C68.9734 40.4911 68.9603 40.477 68.9446 40.4662C68.9289 40.4554 68.911 40.4483 68.8922 40.4454C68.8512 40.4383 68.809 40.4456 68.7729 40.4662Z" fill="#C7C7C7"/>
<path d="M68.9591 40.5284L68.9254 40.5465C68.9204 40.5387 68.914 40.5319 68.9064 40.5266C68.8989 40.5212 68.8903 40.5174 68.8813 40.5154C68.8612 40.5079 68.8391 40.5079 68.8191 40.5154L68.8035 40.4869C68.8163 40.4787 68.8306 40.4733 68.8456 40.4709C68.8605 40.4686 68.8758 40.4694 68.8905 40.4733C68.9051 40.4772 68.9188 40.4841 68.9306 40.4936C68.9424 40.5031 68.9521 40.5149 68.9591 40.5284Z" fill="#C7C7C7"/>
<path d="M68.8741 40.5731C68.8713 40.5788 68.8667 40.5834 68.861 40.5863C68.8554 40.5891 68.8489 40.59 68.8427 40.5888C68.8399 40.5882 68.8372 40.587 68.8349 40.5853C68.8326 40.5836 68.8306 40.5815 68.8292 40.5791C68.8277 40.5766 68.8267 40.5739 68.8264 40.5711C68.826 40.5682 68.8262 40.5653 68.827 40.5626C68.8296 40.5567 68.8341 40.5517 68.8397 40.5484C68.8454 40.5452 68.8519 40.5437 68.8584 40.5443C68.8615 40.5448 68.8644 40.5461 68.867 40.5479C68.8695 40.5497 68.8716 40.5521 68.8732 40.5549C68.8747 40.5576 68.8755 40.5607 68.8757 40.5639C68.8758 40.567 68.8753 40.5702 68.8741 40.5731Z" fill="#C7C7C7"/>
<path d="M67.4939 40.1831C67.5012 40.1657 67.514 40.1511 67.5304 40.1417C67.5469 40.1324 67.5659 40.1287 67.5846 40.1313C67.5929 40.1329 67.6007 40.1364 67.6075 40.1414C67.6142 40.1465 67.6198 40.1529 67.6237 40.1604C67.6277 40.1678 67.63 40.176 67.6304 40.1844C67.6308 40.1928 67.6293 40.2013 67.6261 40.209C67.6196 40.2271 67.607 40.2422 67.5903 40.2517C67.5737 40.2612 67.5542 40.2645 67.5354 40.2609C67.5271 40.2592 67.5193 40.2558 67.5126 40.2507C67.5058 40.2457 67.5002 40.2392 67.4963 40.2318C67.4923 40.2244 67.49 40.2161 67.4896 40.2077C67.4892 40.1993 67.4907 40.1909 67.4939 40.1831Z" fill="#C7C7C7"/>
<path d="M67.7044 40.2247C67.7113 40.2069 67.724 40.1921 67.7405 40.1827C67.7571 40.1732 67.7763 40.1698 67.7951 40.1728C67.8034 40.1745 67.8111 40.178 67.8179 40.183C67.8247 40.188 67.8302 40.1945 67.8342 40.2019C67.8382 40.2094 67.8404 40.2176 67.8408 40.226C67.8412 40.2344 67.8398 40.2428 67.8366 40.2506C67.8297 40.2683 67.8169 40.2832 67.8004 40.2926C67.7839 40.302 67.7646 40.3055 67.7458 40.3024C67.7376 40.3008 67.7298 40.2973 67.723 40.2923C67.7163 40.2873 67.7107 40.2808 67.7067 40.2734C67.7028 40.2659 67.7005 40.2577 67.7001 40.2493C67.6997 40.2409 67.7011 40.2325 67.7044 40.2247Z" fill="#C7C7C7"/>
<path d="M67.922 40.2664C67.9292 40.2494 67.9416 40.2352 67.9575 40.2259C67.9734 40.2165 67.9918 40.2126 68.0101 40.2146C68.0186 40.2159 68.0267 40.2191 68.0338 40.224C68.0408 40.2289 68.0467 40.2353 68.051 40.2428C68.0552 40.2503 68.0577 40.2586 68.0582 40.2672C68.0588 40.2758 68.0574 40.2844 68.0542 40.2923C68.0473 40.3101 68.0345 40.3249 68.018 40.3343C68.0015 40.3438 67.9822 40.3472 67.9635 40.3442C67.955 40.343 67.9468 40.3398 67.9398 40.3349C67.9327 40.33 67.927 40.3234 67.9229 40.3159C67.9189 40.3083 67.9167 40.2998 67.9165 40.2912C67.9164 40.2826 67.9182 40.2741 67.922 40.2664Z" fill="#C7C7C7"/>
<path d="M68.1217 40.3126C68.1291 40.2954 68.142 40.2811 68.1585 40.2722C68.175 40.2632 68.194 40.2601 68.2124 40.2634C68.2209 40.2647 68.229 40.2679 68.2361 40.2728C68.2432 40.2777 68.249 40.2841 68.2533 40.2916C68.2575 40.2991 68.26 40.3074 68.2606 40.316C68.2611 40.3246 68.2597 40.3332 68.2565 40.3411C68.2488 40.3581 68.2358 40.3721 68.2194 40.381C68.203 40.3899 68.1842 40.3932 68.1658 40.3904C68.1573 40.3891 68.1492 40.3858 68.1421 40.3809C68.1351 40.3761 68.1292 40.3696 68.125 40.3622C68.1207 40.3547 68.1182 40.3463 68.1177 40.3378C68.1171 40.3292 68.1185 40.3206 68.1217 40.3126Z" fill="#C7C7C7"/>
<path d="M68.3317 40.3486C68.339 40.3314 68.352 40.3171 68.3684 40.3082C68.3849 40.2992 68.4039 40.2961 68.4224 40.2994C68.4309 40.3006 68.439 40.3037 68.4461 40.3087C68.4531 40.3136 68.4589 40.3201 68.463 40.3277C68.467 40.3353 68.4692 40.3437 68.4694 40.3523C68.4695 40.3609 68.4676 40.3694 68.4639 40.3771C68.4565 40.3944 68.4436 40.4087 68.4271 40.4176C68.4106 40.4265 68.3916 40.4296 68.3732 40.4264C68.3649 40.4247 68.3571 40.4213 68.3503 40.4162C68.3436 40.4112 68.338 40.4048 68.334 40.3973C68.3301 40.3899 68.3278 40.3817 68.3274 40.3732C68.327 40.3648 68.3284 40.3564 68.3317 40.3486Z" fill="#C7C7C7"/>
<path d="M76.0669 42.0432L75.5249 41.9342L75.6157 41.6905L76.155 41.7994L76.0669 42.0432ZM75.5638 41.9135L76.0487 42.0094L76.1187 41.8201L75.6312 41.7242L75.5638 41.9135Z" fill="#C7C7C7"/>
<path d="M75.9944 41.8119L75.6444 41.7419L75.5847 41.9026L75.9348 41.97L75.9944 41.8119Z" fill="#C7C7C7"/>
<path d="M76.137 41.9961L76.0878 41.9857L76.1344 41.8561L76.1837 41.8639L76.137 41.9961Z" fill="#C7C7C7"/>
<path d="M72.4625 40.9409L71.4071 40.7308C71.399 40.7295 71.3912 40.7264 71.3844 40.7216C71.3776 40.7169 71.372 40.7106 71.368 40.7034C71.364 40.6961 71.3617 40.688 71.3613 40.6798C71.3609 40.6715 71.3624 40.6632 71.3657 40.6556C71.3729 40.6389 71.3854 40.6249 71.4014 40.616C71.4173 40.6071 71.4358 40.6037 71.4538 40.6064L72.5092 40.8164C72.5174 40.8177 72.5252 40.8209 72.5319 40.8256C72.5387 40.8304 72.5443 40.8366 72.5483 40.8439C72.5523 40.8511 72.5546 40.8592 72.555 40.8675C72.5554 40.8757 72.554 40.884 72.5507 40.8916C72.5439 40.9087 72.5314 40.9228 72.5153 40.9318C72.4993 40.9408 72.4807 40.944 72.4625 40.9409Z" fill="white"/>
<path d="M61.5792 58.0937L61.5299 58.0859L61.4495 58.3037L61.3587 58.2856L61.4002 58.1741L61.2369 58.1403L61.1954 58.2518L61.1046 58.2337L61.185 58.0159L61.1357 58.0055L61.4391 57.8292L61.5792 58.0937Z" fill="#EBEBEB"/>
<path d="M69.5792 59.5307L69.045 59.4218L69.0736 59.3492L69.6078 59.4555L69.5792 59.5307Z" fill="#EBEBEB"/>
<path d="M69.5114 59.7116L68.9772 59.6053L69.0058 59.5327L69.5399 59.6364L69.5114 59.7116Z" fill="#EBEBEB"/>
<path d="M69.4442 59.8962L68.91 59.7899L68.9385 59.7147L69.4727 59.821L69.4442 59.8962Z" fill="#EBEBEB"/>
<path d="M65.4869 58.88L65.2769 59.007L65.1809 58.8177L65.2172 58.7996L65.295 58.9526L65.4687 58.8489L65.4869 58.88Z" fill="#EBEBEB"/>
<path d="M65.2146 59.1679C65.1798 59.1621 65.1467 59.1485 65.1179 59.128C65.0892 59.1076 65.0654 59.0809 65.0484 59.0499C65.0314 59.019 65.0217 58.9846 65.0199 58.9493C65.0182 58.9141 65.0245 58.8789 65.0383 58.8464C65.067 58.7731 65.12 58.712 65.1885 58.6733C65.257 58.6345 65.3367 58.6206 65.4143 58.6337C65.4491 58.6395 65.4821 58.6532 65.5109 58.6736C65.5397 58.6941 65.5635 58.7208 65.5805 58.7517C65.5975 58.7827 65.6072 58.8171 65.6089 58.8523C65.6107 58.8876 65.6044 58.9228 65.5906 58.9553C65.5619 59.0285 65.5089 59.0897 65.4404 59.1284C65.3719 59.1671 65.2922 59.1811 65.2146 59.1679ZM65.3987 58.67C65.3317 58.6583 65.2627 58.6703 65.2036 58.7039C65.1445 58.7375 65.0988 58.7906 65.0746 58.8541C65.0629 58.8824 65.0576 58.913 65.0593 58.9435C65.0609 58.9741 65.0694 59.0039 65.084 59.0308C65.0987 59.0577 65.1192 59.0809 65.1441 59.0988C65.1689 59.1167 65.1974 59.1288 65.2276 59.1342C65.2952 59.1454 65.3646 59.1329 65.4241 59.0989C65.4836 59.0649 65.5296 59.0114 65.5543 58.9475C65.5661 58.9192 65.5712 58.8886 65.5694 58.858C65.5676 58.8275 65.5589 58.7977 65.5439 58.771C65.529 58.7442 65.5081 58.7213 65.4829 58.7038C65.4578 58.6863 65.429 58.6748 65.3987 58.67Z" fill="#EBEBEB"/>
<path d="M67.2659 41.929L67.0688 41.6022L67.4655 41.3922L67.4941 41.4466L67.1673 41.6204L67.3281 41.8901L67.2659 41.929Z" fill="#DBDBDB"/>
<path d="M75.6727 43.1342C75.6665 43.1497 75.655 43.1625 75.6404 43.1705C75.6258 43.1786 75.6088 43.1813 75.5924 43.1783C75.5849 43.1774 75.5778 43.1748 75.5716 43.1706C75.5653 43.1663 75.5602 43.1607 75.5567 43.1541C75.5531 43.1474 75.5512 43.1401 75.5511 43.1325C75.551 43.125 75.5527 43.1176 75.5561 43.1109C75.5619 43.0956 75.5728 43.0829 75.587 43.0748C75.6012 43.0668 75.6178 43.064 75.6339 43.0668C75.6413 43.0679 75.6484 43.0706 75.6546 43.0748C75.6609 43.0789 75.6661 43.0845 75.6698 43.091C75.6736 43.0975 75.6758 43.1048 75.6763 43.1123C75.6768 43.1198 75.6756 43.1273 75.6727 43.1342Z" fill="#DBDBDB"/>
<path d="M75.5973 43.3336C75.5916 43.3491 75.5807 43.3621 75.5666 43.3706C75.5525 43.3791 75.5359 43.3825 75.5195 43.3803C75.512 43.3789 75.5049 43.3759 75.4987 43.3714C75.4924 43.367 75.4873 43.3612 75.4836 43.3545C75.4799 43.3478 75.4777 43.3404 75.4772 43.3327C75.4767 43.3251 75.4778 43.3174 75.4807 43.3103C75.4873 43.2951 75.4988 43.2826 75.5133 43.2746C75.5279 43.2666 75.5446 43.2637 75.561 43.2662C75.5682 43.2676 75.575 43.2706 75.5809 43.2749C75.5869 43.2792 75.5917 43.2848 75.5952 43.2913C75.5987 43.2977 75.6007 43.3049 75.601 43.3122C75.6014 43.3195 75.6001 43.3269 75.5973 43.3336Z" fill="#DBDBDB"/>
<path d="M75.5221 43.5361C75.5163 43.5513 75.5054 43.5641 75.4912 43.5721C75.477 43.5802 75.4604 43.583 75.4443 43.5802C75.4369 43.5791 75.4298 43.5764 75.4236 43.5722C75.4173 43.568 75.4121 43.5625 75.4084 43.556C75.4046 43.5495 75.4024 43.5422 75.4019 43.5347C75.4014 43.5272 75.4026 43.5197 75.4054 43.5128C75.4117 43.4973 75.4232 43.4845 75.4378 43.4764C75.4524 43.4684 75.4694 43.4657 75.4858 43.4687C75.4933 43.4696 75.5004 43.4722 75.5066 43.4764C75.5129 43.4806 75.518 43.4863 75.5215 43.4929C75.5251 43.4995 75.527 43.5069 75.5271 43.5144C75.5272 43.5219 75.5255 43.5294 75.5221 43.5361Z" fill="#DBDBDB"/>
<path d="M69.5946 42.1285C70.7615 42.3178 71.9284 42.5486 73.059 42.8183C71.8921 42.6316 70.7252 42.4008 69.5946 42.1285Z" fill="#DBDBDB"/>
<path d="M66.33 43.0023C67.1729 43.1253 68.009 43.2914 68.8349 43.5002C67.9919 43.3772 67.1559 43.211 66.33 43.0023Z" fill="#DBDBDB"/>
<path d="M72.9193 45.2964C73.4932 45.3666 74.061 45.4801 74.6178 45.6361C74.0437 45.5669 73.4758 45.4533 72.9193 45.2964Z" fill="#DBDBDB"/>
<path d="M72.8489 45.4814C73.423 45.5506 73.9909 45.6642 74.5474 45.8211C73.9735 45.7512 73.4057 45.6376 72.8489 45.4814Z" fill="#DBDBDB"/>
<path d="M66.2367 43.2553C66.7795 43.3194 67.3162 43.4269 67.8418 43.5768C67.2991 43.5127 66.7623 43.4052 66.2367 43.2553Z" fill="#DBDBDB"/>
<path d="M69.7581 44.721L68.1815 46.9641L67.2687 49.4353C66.9461 49.3813 66.6399 49.2548 66.3731 49.0655C66.1064 48.8761 65.886 48.6288 65.7285 48.3421C65.5711 48.0554 65.4806 47.7367 65.464 47.41C65.4473 47.0833 65.5049 46.7571 65.6324 46.4558C65.8971 45.7813 66.3853 45.2181 67.0154 44.8603C67.6455 44.5025 68.3794 44.3719 69.0942 44.4903C69.3255 44.5348 69.5491 44.6125 69.7581 44.721Z" fill="#90C5F9"/>
<path d="M68.9594 49.2536C68.4255 49.4774 67.8379 49.5404 67.2687 49.4351L68.1814 46.9639L68.9594 49.2536Z" fill="#263238"/>
<path d="M70.7302 47.4694C70.5734 47.8729 70.3349 48.2396 70.0297 48.5466C69.7244 48.8536 69.3591 49.0943 68.9565 49.2535L68.1786 46.9637L70.738 45.8046C70.9431 46.3411 70.9403 46.9349 70.7302 47.4694Z" fill="#37474F"/>
<path d="M71.083 45.68L68.145 47.0102L69.9601 44.4405C70.4697 44.7072 70.8677 45.1466 71.083 45.68Z" fill="#C7C7C7"/>
<path d="M69.4542 47.2151C69.3218 47.5526 69.0775 47.8344 68.7622 48.0133C68.4468 48.1922 68.0796 48.2574 67.722 48.1979C67.5608 48.1707 67.4079 48.1075 67.2747 48.013C67.1414 47.9184 67.0312 47.7949 66.9524 47.6518C66.8736 47.5086 66.8282 47.3495 66.8196 47.1863C66.8109 47.0231 66.8393 46.8601 66.9026 46.7094C67.0349 46.3719 67.2792 46.0901 67.5946 45.9112C67.9099 45.7323 68.2771 45.6671 68.6348 45.7267C68.7964 45.7529 68.9499 45.8155 69.0837 45.9099C69.2176 46.0042 69.3281 46.1278 69.4071 46.2712C69.4861 46.4147 69.5313 46.5742 69.5395 46.7377C69.5476 46.9013 69.5185 47.0645 69.4542 47.2151Z" fill="white"/>
<path d="M72.5767 45.4708L72.3044 45.4164L72.4004 45.1519L72.6753 45.2063L72.5767 45.4708Z" fill="#90C5F9"/>
<path d="M72.6622 45.9944C73.2363 46.0636 73.8041 46.1772 74.3607 46.3341C73.7867 46.2642 73.2189 46.1506 72.6622 45.9944Z" fill="#DBDBDB"/>
<path d="M72.5893 46.1785C73.1631 46.248 73.7309 46.3607 74.2878 46.5156C73.7139 46.4465 73.1461 46.3338 72.5893 46.1785Z" fill="#DBDBDB"/>
<path d="M72.3197 46.1675L72.0449 46.113L72.1434 45.8459L72.4183 45.903L72.3197 46.1675Z" fill="#263238"/>
<path d="M72.403 46.6915C72.9779 46.7604 73.5467 46.874 74.104 47.0312C73.5293 46.961 72.9606 46.8475 72.403 46.6915Z" fill="#DBDBDB"/>
<path d="M72.3302 46.8755C72.9041 46.9446 73.4719 47.0573 74.0287 47.2126C73.4549 47.1431 72.8871 47.0304 72.3302 46.8755Z" fill="#DBDBDB"/>
<path d="M72.0631 46.8656L71.7882 46.8111L71.8867 46.544L72.1616 46.5985L72.0631 46.8656Z" fill="#37474F"/>
<path d="M72.1465 47.3896C72.7204 47.4586 73.2882 47.5713 73.845 47.7267C73.2711 47.6571 72.7034 47.5444 72.1465 47.3896Z" fill="#DBDBDB"/>
<path d="M72.0709 47.5736C72.6448 47.6427 73.2126 47.7554 73.7694 47.9107C73.1956 47.8411 72.6278 47.7285 72.0709 47.5736Z" fill="#DBDBDB"/>
<path d="M71.8065 47.5626L71.5316 47.5081L71.6301 47.2411L71.905 47.2955L71.8065 47.5626Z" fill="#C7C7C7"/>
<path d="M66.7785 58.428L66.1769 58.3087L68.2825 52.6091L68.8815 52.7284L66.7785 58.428Z" fill="#EBEBEB"/>
<path d="M63.9028 49.7335C65.5209 50.011 67.2116 50.3481 68.8012 50.7085C67.1831 50.4285 65.4898 50.094 63.9028 49.7335Z" fill="#263238"/>
<path d="M63.7863 50.0497C64.7068 50.1897 65.6196 50.3712 66.509 50.5916C65.5885 50.4542 64.6757 50.2727 63.7863 50.0497Z" fill="#263238"/>
<path d="M70.8289 51.1133C71.4728 51.2078 72.1115 51.3351 72.7426 51.4945C72.0987 51.3994 71.46 51.2722 70.8289 51.1133Z" fill="#90C5F9"/>
<path d="M62.7461 55.0108L62.5516 54.9719L63.6951 51.8705L63.8922 51.9094L62.7461 55.0108Z" fill="#90C5F9"/>
<path d="M61.911 57.2744L61.7139 57.2329L62.4504 55.2388L62.6474 55.2803L61.911 57.2744Z" fill="#455A64"/>
<path d="M64.1645 53.9186L63.97 53.8771L64.6416 52.0593L64.8387 52.0982L64.1645 53.9186Z" fill="#90C5F9"/>
<path d="M62.8578 57.461L62.6607 57.4221L63.8717 54.147L64.0662 54.1859L62.8578 57.461Z" fill="#455A64"/>
<path d="M65.4739 53.1231L65.2768 53.0842L65.588 52.2466L65.7825 52.2855L65.4739 53.1231Z" fill="#90C5F9"/>
<path d="M63.8044 57.6509L63.6074 57.612L65.1788 53.3515L65.3759 53.393L63.8044 57.6509Z" fill="#455A64"/>
<path d="M65.8787 54.7793L65.6816 54.7404L66.5321 52.4352L66.7292 52.474L65.8787 54.7793Z" fill="#90C5F9"/>
<path d="M64.748 57.8372L64.5535 57.7983L65.583 55.0107L65.7801 55.0496L64.748 57.8372Z" fill="#455A64"/>
<path d="M67.0042 54.4814L66.8071 54.4426L67.4787 52.6222L67.6758 52.6637L67.0042 54.4814Z" fill="#90C5F9"/>
<path d="M65.6944 58.0264L65.4973 57.9875L66.7083 54.7124L66.9028 54.7513L65.6944 58.0264Z" fill="#455A64"/>
<path d="M67.1543 56.8207L66.9598 56.7818L68.4249 52.8118L68.6194 52.8507L67.1543 56.8207Z" fill="#90C5F9"/>
<path d="M66.641 58.2157L66.444 58.1768L66.8589 57.0488L67.0559 57.0877L66.641 58.2157Z" fill="#455A64"/>
<path d="M68.9438 54.7252L68.7468 54.6863L69.3691 53.0008L69.5662 53.0397L68.9438 54.7252Z" fill="#90C5F9"/>
<path d="M67.5851 58.4024L67.3906 58.3635L68.6483 54.9536L68.8454 54.9924L67.5851 58.4024Z" fill="#455A64"/>
<path d="M68.7544 57.9849L68.5573 57.946L70.3154 53.1876L70.5125 53.2291L68.7544 57.9849Z" fill="#90C5F9"/>
<path d="M68.5315 58.5918L68.3344 58.5529L68.4589 58.2158L68.656 58.2547L68.5315 58.5918Z" fill="#455A64"/>
<path d="M71.0802 54.4344L70.8857 54.3955L71.2617 53.3764L71.4562 53.4153L71.0802 54.4344Z" fill="#90C5F9"/>
<path d="M69.4778 58.7806L69.2807 58.7391L70.7847 54.6628L70.9818 54.7043L69.4778 58.7806Z" fill="#455A64"/>
<path d="M64.5922 50.9859C65.1669 51.0561 65.7356 51.1696 66.2932 51.3256C65.7183 51.2567 65.1495 51.1431 64.5922 50.9859Z" fill="#DBDBDB"/>
<path d="M64.525 51.1704C65.0991 51.2391 65.667 51.3527 66.2235 51.5101C65.6496 51.4397 65.0818 51.3262 64.525 51.1704Z" fill="#DBDBDB"/>
<path d="M64.2528 51.1601L63.978 51.1057L64.0765 50.8412L64.3514 50.8956L64.2528 51.1601Z" fill="#90C5F9"/>
<path d="M67.4294 51.5511C68.0044 51.6199 68.5731 51.7335 69.1305 51.8908C68.5555 51.8219 67.9867 51.7083 67.4294 51.5511Z" fill="#DBDBDB"/>
<path d="M67.3621 51.7351C67.936 51.8041 68.5038 51.9168 69.0606 52.0722C68.4867 52.0026 67.919 51.8899 67.3621 51.7351Z" fill="#DBDBDB"/>
<path d="M67.0895 51.7255L66.8146 51.6711L66.9132 51.4066L67.188 51.461L67.0895 51.7255Z" fill="#455A64"/>
<path d="M77.6906 62.6995C78.2092 61.5818 80.0037 57.1839 80.1048 55.3221C80.2059 53.4602 79.651 46.3577 77.771 45.2894C75.3931 43.9461 74.8797 49.4643 74.8771 51.8862C74.8745 54.3082 72.7119 56.878 72.7119 56.878L76.1814 59.9456L77.6906 62.6995Z" fill="#AD6359"/>
<path d="M75.1829 48.0924C75.2123 48.898 75.2002 49.7047 75.1466 50.5091C75.1503 51.2745 75.0966 52.039 74.9858 52.7963C74.8183 53.5302 74.53 54.2313 74.1327 54.8707C73.9434 55.1897 73.7386 55.4957 73.5207 55.7965C73.3029 56.0973 73.0151 56.4344 72.7869 56.7663C72.7635 56.8 72.7039 56.7663 72.7272 56.73C73.1215 56.1039 73.4741 55.4525 73.7826 54.78C74.116 54.0896 74.3625 53.3606 74.5165 52.6096C74.8173 51.1159 74.7914 49.5704 75.0792 48.0742C75.0844 48.0146 75.1829 48.0327 75.1829 48.0924Z" fill="#263238"/>
<path d="M74.9781 52.7939C74.9522 51.098 74.5088 44.0525 77.5505 45.095C79.2464 46.0803 79.708 49.7625 79.9051 51.5777C79.5783 49.8818 78.9923 46.2048 77.4442 45.3076C74.8226 44.4545 75.1363 51.2406 74.9781 52.7835V52.7939Z" fill="#263238"/>
<path d="M55.4077 63.1319L70.4477 75.5322C70.4477 75.5322 62.4428 87.7587 57.0154 91.2101C54.4534 92.836 49.2568 92.8438 47.5246 92.1955C45.9065 91.5939 36.8255 82.5336 30.0315 66.2229C24.7649 53.5375 33.1744 56.6492 36.325 59.9347C39.722 63.4742 48.6837 72.5527 49.1764 72.4049C49.6691 72.2571 55.4077 63.1319 55.4077 63.1319Z" fill="#90C5F9"/>
<path d="M53.4525 67.613C55.7215 69.3815 57.9334 71.2175 60.1323 73.0586C61.2111 73.9636 65.3548 77.7262 66.5503 78.7867C66.5969 78.8308 66.4854 78.9527 66.4336 78.9138C65.2589 78.0088 60.8766 74.3214 59.8134 73.3983C57.6481 71.5157 55.4959 69.6201 53.4006 67.6597C53.3643 67.6338 53.4136 67.5819 53.4525 67.613Z" fill="#263238"/>
<path opacity="0.1" d="M55.475 91.9153C52.76 92.8203 48.9637 92.7321 47.5349 92.1953C45.9168 91.5911 36.8358 82.5308 30.0392 66.2253C27.1453 59.2784 28.3667 57.0717 30.5838 57.0457C33.7863 61.4955 47.1071 80.1114 55.475 91.9153Z" fill="black"/>
<path d="M45.5694 107.401H5.84045C7.78528 97.9907 16.2596 64.0962 23.1702 59.0838C27.4203 55.998 33.024 58.1373 33.9886 59.4546C37.9068 64.8638 44.4311 98.7453 45.5694 107.401Z" fill="#EBEBEB"/>
<path d="M34.642 60.4588C34.642 60.4407 34.6109 60.4459 34.6109 60.4588C34.8054 62.1132 35.1295 65.9536 32.106 65.9044C30.8898 65.8862 29.754 65.3028 28.8023 64.7193C27.8445 64.1262 26.9542 63.4307 26.147 62.6448C25.2339 61.8106 24.3949 60.8987 23.6395 59.9195C23.6083 59.878 23.5357 59.9195 23.5669 59.9687C24.3266 60.9386 24.9697 61.9551 25.841 62.8575C26.6866 63.7547 27.6516 64.5313 28.709 65.1653C29.7255 65.7617 30.9313 66.34 32.2175 66.3037C32.7518 66.3128 33.2747 66.148 33.7073 65.8342C34.1399 65.5203 34.4588 65.0745 34.6161 64.5637C35.0284 63.2568 34.9376 61.758 34.642 60.4588Z" fill="#263238"/>
<path d="M24.4383 57.7619C24.4383 57.7619 27.0729 71.8218 27.5708 77.0417C28.0687 82.2616 26.4843 107.402 26.4843 107.402H5.16895C5.16895 107.402 11.6258 76.4868 17.9607 64.5118C21.5055 57.8294 24.4383 57.7619 24.4383 57.7619Z" fill="#90C5F9"/>
<path d="M33.5246 58.7231C33.5246 58.7231 37.7799 74.6266 38.0599 76.3173C38.34 78.008 39.7532 107.538 39.7532 107.538L46.7157 107.489C46.7157 107.489 39.398 62.9758 33.5246 58.7231Z" fill="#90C5F9"/>
<path d="M17.7712 63.4484C8.7991 75.5271 -1.22326 99.6949 1.86513 103.867C5.30877 108.535 17.7868 91.6018 17.6079 90.7435C17.473 90.0926 20.6911 75.8201 23.1934 65.414C25.6958 55.0078 19.9884 60.4611 17.7712 63.4484Z" fill="#AD6359"/>
<path d="M17.709 90.7457C17.9502 89.234 22.4103 70.3821 23.6083 64.449C24.8064 58.516 22.7137 57.0302 17.7453 63.0073C12.7769 68.9844 2.73383 88.0256 1.17797 97.6201C-0.323441 106.846 4.22746 106.206 9.66002 101.284C14.1072 97.2467 17.709 90.7457 17.709 90.7457Z" fill="#90C5F9"/>
<path d="M17.7093 90.7464C19.0007 83.4286 20.643 76.1852 22.6362 69.0161C21.3483 76.3322 19.706 83.5756 17.7093 90.7464Z" fill="#263238"/>
<path d="M22.8774 70.087C22.8148 71.0751 22.4346 72.0165 21.7935 72.7709C22.0994 71.8607 22.4884 70.9687 22.8774 70.087Z" fill="#263238"/>
<path d="M1.86549 103.867C4.69457 106.906 11.2007 106.644 27.628 107.529C29.9022 107.651 35.0806 91.8352 32.6586 91.5811C29.6091 91.2595 17.7042 90.6735 16.8407 90.7383C9.43995 91.3036 -0.0534127 101.808 1.86549 103.867Z" fill="#AD6359"/>
<path d="M29.7852 92.147C29.7852 92.147 35.8323 90.1944 39.3279 90.1503C44.0084 90.0933 48.0718 91.9655 49.7262 92.8601C53.1828 94.7168 60.2542 101.596 58.6284 103.979C57.1581 106.134 50.2837 98.7387 50.2837 98.7387C50.2837 98.7387 58.5376 105.123 56.2868 107.394C54.036 109.666 46.5471 100.626 46.5471 100.626C46.5471 100.626 54.8787 107.369 52.1897 109.352C50.1567 110.843 42.9089 103.038 42.9089 103.038C42.9089 103.038 50.0296 108.891 48.007 110.514C45.7691 112.311 38.6303 105.525 38.6303 105.525C32.788 108.79 28.6702 107.952 25.8126 107.011C25.1202 106.783 29.7852 92.147 29.7852 92.147Z" fill="#AD6359"/>
<path d="M47.5713 96.3471C48.5671 97.0628 49.581 97.7785 50.5119 98.5798C51.4428 99.381 52.3426 100.216 53.1932 101.1C55.2806 103.268 56.2478 104.951 56.1778 104.855C54.4949 102.547 51.212 99.6274 50.2811 98.8261C49.3502 98.0248 48.4659 97.1821 47.5402 96.3808C47.5168 96.3601 47.548 96.3238 47.5713 96.3471Z" fill="#263238"/>
<path d="M44.6177 99.6509C45.8494 100.618 47.1097 101.533 48.2999 102.558C49.4902 103.582 50.5196 104.632 51.6321 105.742C51.7176 105.825 51.6321 105.843 51.5543 105.763C50.4003 104.71 49.2516 103.828 48.0847 102.791C46.9178 101.754 45.7924 100.67 44.5918 99.6794C44.584 99.6638 44.5996 99.6353 44.6177 99.6509Z" fill="#263238"/>
<path d="M41.5738 102.029C43.5342 103.411 45.2353 105.153 46.8638 106.904C46.9468 106.989 46.8482 107.002 46.7601 106.919C45.033 105.265 43.6872 103.955 41.5246 102.096C41.4909 102.07 41.5324 102.003 41.5738 102.029Z" fill="#263238"/>
<path d="M30.7704 91.1014L18.9562 108.675C18.9562 108.675 4.33108 107.417 1.73279 104.077C0.0213349 101.878 9.3254 90.6891 17.5352 90.6865L30.7704 91.1014Z" fill="#90C5F9"/>
<path d="M8.2805 94.5764C9.44481 93.451 12.7925 90.7437 17.5379 90.6711C17.5794 90.6711 17.5898 90.7386 17.5379 90.7437C14.0087 91.1379 9.5226 93.6428 8.30903 94.6334C8.29347 94.6542 8.25717 94.6049 8.2805 94.5764Z" fill="#263238"/>
<path d="M14.7631 106.603C15.9585 104.601 17.2603 102.664 18.5672 100.732C19.8741 98.7998 21.1784 96.8602 22.5346 94.9594C23.3126 93.8859 24.0594 92.8072 24.8684 91.7596C24.8892 91.731 24.941 91.7596 24.9229 91.7907C23.7301 93.79 22.4335 95.7348 21.1421 97.6718C19.8508 99.6089 18.5309 101.543 17.198 103.462C16.446 104.544 15.6707 105.615 14.8642 106.662C14.8201 106.714 14.7216 106.66 14.7631 106.603Z" fill="#263238"/>
<path d="M30.7682 90.8972C29.8711 90.7602 28.9657 90.684 28.0584 90.669C27.1508 90.6276 26.2432 90.6016 25.3356 90.5835C23.5204 90.5498 19.706 90.2697 16.4438 90.7365C16.4075 90.7365 16.6176 90.892 16.6539 90.8843C18.1942 90.5809 29.635 91.2292 30.5581 91.1669C30.5285 91.2314 30.5042 91.2982 30.4855 91.3666C30.4855 91.4133 30.527 91.4651 30.5711 91.4262C30.6748 91.3329 30.7422 91.2266 30.8304 91.1254C30.8487 91.1091 30.862 91.0879 30.869 91.0644C30.876 91.0408 30.8762 91.0158 30.8698 90.9921C30.8633 90.9684 30.8504 90.947 30.8324 90.9302C30.8145 90.9135 30.7922 90.9021 30.7682 90.8972Z" fill="#263238"/>
<path d="M5.4281 106.177C6.87505 106.478 8.90286 107.067 10.355 107.445C8.64755 107.336 6.97599 106.906 5.4281 106.177Z" fill="#263238"/>
<path d="M31.8231 64.5352C29.6708 64.7945 25.5737 61.8384 24.412 58.6748C24.3316 58.457 24.9565 56.3903 25.597 53.8412C25.9782 52.2854 26.375 50.561 26.6083 48.9558C26.6576 48.6265 36.3169 52.9129 36.3169 52.9129C36.3169 52.9129 34.8207 56.1335 34.4188 58.9367C34.3881 59.1583 34.3777 59.3822 34.3877 59.6057C34.3877 59.6368 34.3877 59.6731 34.3877 59.7172C34.4032 60.9982 34.1257 64.2526 31.8231 64.5352Z" fill="#AD6359"/>
<path d="M34.3909 59.6059C34.3909 59.637 34.3909 59.6785 34.3909 59.7174C34.0431 59.7094 33.6964 59.6756 33.3536 59.6162C27.4439 58.5946 26.9927 50.9397 26.972 49.013C28.7249 49.5317 36.3253 52.9027 36.3253 52.9027C36.3253 52.9027 34.8291 56.1259 34.4246 58.9291C34.3937 59.1533 34.3824 59.3797 34.3909 59.6059Z" fill="#263238"/>
<path d="M26.6138 36.1643C25.0969 39.6235 25.7737 50.2111 28.053 52.8198C31.3566 56.6058 37.3752 57.6378 40.7437 53.5277C44.011 49.5421 42.8856 35.7598 40.2847 33.3248C36.4495 29.7438 28.8543 31.0611 26.6138 36.1643Z" fill="#AD6359"/>
<path d="M35.9281 44.063C35.9281 44.0371 35.8737 44.0993 35.8763 44.1304C35.923 44.8435 35.8581 45.6681 35.2202 45.9274C35.1995 45.9274 35.2047 45.9715 35.2202 45.9663C36.0111 45.8289 36.0889 44.7216 35.9281 44.063Z" fill="#263238"/>
<path d="M35.2644 43.3416C34.1131 43.2949 34.1053 45.6002 35.1711 45.6443C36.2369 45.6883 36.2291 43.3805 35.2644 43.3416Z" fill="#263238"/>
<path d="M40.064 44.2018C40.064 44.1733 40.1185 44.2355 40.1185 44.2641C40.0925 44.9772 40.1833 45.8018 40.829 46.0403C40.8497 46.0403 40.8471 46.0844 40.829 46.0792C40.0355 45.96 39.9162 44.8683 40.064 44.2018Z" fill="#263238"/>
<path d="M40.6942 43.4533C41.8429 43.3703 41.9259 45.6756 40.8601 45.7508C39.7944 45.826 39.7399 43.5207 40.6942 43.4533Z" fill="#263238"/>
<path d="M34.3595 42.2811C34.6615 42.1948 34.9584 42.0918 35.2489 41.9725C35.5886 41.848 35.8739 41.7858 36.0995 41.4798C36.1537 41.3867 36.1757 41.2783 36.1621 41.1714C36.1485 41.0646 36.1 40.9652 36.0243 40.8886C35.6794 40.5826 35.223 40.6293 34.8055 40.7589C34.3758 40.8744 34.0055 41.1475 33.7683 41.5239C33.7169 41.6133 33.6934 41.716 33.7007 41.8188C33.708 41.9217 33.7458 42.02 33.8092 42.1013C33.8727 42.1826 33.9589 42.2431 34.057 42.2751C34.155 42.3071 34.2603 42.3092 34.3595 42.2811Z" fill="#263238"/>
<path d="M41.6018 42.2938C41.2923 42.2308 40.9867 42.1503 40.6864 42.0526C40.3337 41.9567 40.0459 41.9152 39.797 41.63C39.7357 41.541 39.7055 41.4343 39.7112 41.3265C39.7168 41.2186 39.7579 41.1156 39.8281 41.0336C40.1496 40.7016 40.606 40.712 41.0339 40.8105C41.4667 40.8969 41.852 41.1409 42.1152 41.4951C42.1708 41.579 42.2008 41.6773 42.2015 41.778C42.2021 41.8787 42.1735 41.9773 42.1191 42.062C42.0647 42.1467 41.9868 42.2137 41.8949 42.2549C41.803 42.296 41.7012 42.3095 41.6018 42.2938Z" fill="#263238"/>
<path d="M35.249 50.6855C35.4201 50.8541 35.5912 51.0848 35.8506 51.1056C36.1196 51.1042 36.3851 51.044 36.6285 50.9293C36.6518 50.9293 36.6752 50.9448 36.6596 50.9656C36.5571 51.1057 36.4187 51.2155 36.2589 51.2835C36.0992 51.3515 35.9241 51.3752 35.752 51.3519C35.6073 51.3115 35.4773 51.2299 35.3779 51.1172C35.2785 51.0044 35.2139 50.8653 35.1919 50.7166C35.1634 50.6855 35.2178 50.6674 35.249 50.6855Z" fill="#263238"/>
<path d="M36.001 48.556C36.1817 48.8393 36.4189 49.0822 36.6978 49.2696C36.9766 49.457 37.2911 49.5848 37.6217 49.6452C37.9095 49.7006 38.2038 49.7145 38.4955 49.6866C38.5522 49.6873 38.6088 49.6812 38.6641 49.6685C38.7164 49.6641 38.7684 49.6563 38.8197 49.6452C38.8577 49.638 38.8925 49.6188 38.9186 49.5903C38.9448 49.5617 38.9611 49.5255 38.9649 49.487C38.9662 49.4628 38.9662 49.4385 38.9649 49.4144V49.3443C38.9804 48.7946 38.9312 47.9596 38.9312 47.9596C39.1308 48.0608 40.1551 48.5249 40.1396 48.2371C40.0073 45.8566 39.8595 43.2116 39.2242 40.8701C39.2218 40.8529 39.2127 40.8373 39.1988 40.8269C39.1849 40.8164 39.1675 40.8119 39.1503 40.8143C39.1331 40.8167 39.1176 40.8259 39.1071 40.8397C39.0967 40.8536 39.0921 40.871 39.0945 40.8882C39.1308 43.1805 39.5717 45.4521 39.6443 47.7522C39.2803 47.5825 38.8946 47.4638 38.4981 47.3995C38.4203 47.4229 38.6226 49.015 38.5967 49.2614C38.5979 49.27 38.5979 49.2787 38.5967 49.2873C37.6709 49.404 36.976 49.1213 36.0814 48.4964C36.0269 48.4497 35.9595 48.499 36.001 48.556Z" fill="#263238"/>
<path d="M38.1741 49.4064C37.8706 49.7982 37.4714 50.1054 37.015 50.2985C36.7627 50.3962 36.4862 50.4125 36.2241 50.3451C35.6536 50.1922 35.6433 49.6683 35.7496 49.2223C35.8088 48.9847 35.8958 48.7549 36.0089 48.5378C36.6195 49.0508 37.3782 49.3552 38.1741 49.4064Z" fill="#263238"/>
<path d="M37.015 50.2994C36.7627 50.3971 36.4862 50.4134 36.2241 50.3461C35.6536 50.1931 35.6433 49.6693 35.7496 49.2232C36.3615 49.2881 36.9631 49.7056 37.015 50.2994Z" fill="#FF9BBC"/>
<path d="M42.4577 37.3173C42.1465 36.4227 41.7316 36.2411 41.7316 36.2411C41.7316 36.2411 41.7316 35.1909 40.7929 33.8451C39.8024 32.4371 38.7185 32.2529 38.7185 32.2529C38.7185 32.2529 37.8212 31.2364 35.7675 30.8501C35.2955 30.7619 33.8667 30.7386 33.4337 30.9175C32.9151 31.1223 32.3965 30.8527 31.8545 30.8423C31.3615 30.8331 30.872 30.9276 30.4179 31.1198C30.0334 31.2793 29.6778 31.501 29.3651 31.7758C29.1811 31.9445 29.0079 32.1247 28.8465 32.3152C28.6081 32.5855 28.2889 32.7719 27.9363 32.8468C27.5277 32.9737 27.1507 33.1858 26.8302 33.4692C26.5097 33.7526 26.253 34.1008 26.0771 34.4908C25.851 34.9789 25.7292 35.5088 25.7192 36.0467C25.6933 36.7183 24.9905 37.032 24.726 37.6025C24.5258 38.0563 24.4638 38.5591 24.5477 39.048C24.6317 39.5369 24.8578 39.9902 25.198 40.3512C24.3215 40.9787 23.9948 42.3816 24.4641 43.4889C24.8272 44.3446 25.587 44.7258 26.3545 44.9358C26.496 44.9743 26.6412 44.9977 26.7876 45.0058C28.359 45.2652 29.8993 43.5381 29.3418 41.6711V41.6555C30.2038 41.3862 30.9582 40.8506 31.4966 40.1256C32.0931 39.3477 32.2875 38.3104 32.2953 37.2732C34.2687 38.5179 37.0044 37.2913 37.3545 34.7579C37.9172 35.375 39.5301 36.4175 40.2743 36.1841C40.5959 38.4608 42.0895 39.2958 42.4836 39.2958C42.5355 39.3114 42.8104 38.339 42.4577 37.3173ZM28.359 44.3446C28.8154 43.8701 29.1603 43.1984 29.3236 41.7748C29.4251 42.2506 29.3881 42.7454 29.2172 43.2008C29.0462 43.6562 28.7484 44.0531 28.359 44.3446ZM34.5824 37.4003C35.1861 37.2118 35.7353 36.8805 36.1836 36.4345C36.6318 35.9885 36.9659 35.4409 37.1574 34.8383C36.8047 36.3889 35.7986 37.2006 34.5902 37.4003H34.5824Z" fill="#263238"/>
<path d="M34.9899 47.3607C34.4534 47.2961 33.9458 47.0821 33.5249 46.7432C33.104 46.4043 32.7867 45.954 32.6091 45.4436C32.4316 44.9332 32.4009 44.3832 32.5206 43.8562C32.6402 43.3292 32.9055 42.8464 33.286 42.4627C33.6666 42.0791 34.1473 41.81 34.6733 41.6861C35.1993 41.5621 35.7495 41.5884 36.2613 41.7618C36.7731 41.9353 37.226 42.2489 37.5683 42.6671C37.9106 43.0853 38.1286 43.5911 38.1976 44.1271C38.2536 44.5628 38.2095 45.0055 38.0685 45.4216C37.9275 45.8376 37.6934 46.216 37.384 46.5279C37.0747 46.8397 36.6982 47.0769 36.2833 47.2212C35.8684 47.3655 35.426 47.4132 34.9899 47.3607ZM35.6408 42.0163C35.4342 41.9891 35.225 41.9891 35.0184 42.0163C34.3881 42.0955 33.8116 42.4119 33.4064 42.9012C33.0012 43.3905 32.7977 44.0158 32.8373 44.6499C32.877 45.284 33.1568 45.8791 33.6199 46.3141C34.0829 46.749 34.6943 46.9912 35.3296 46.9912C35.9649 46.9912 36.5763 46.749 37.0394 46.3141C37.5024 45.8791 37.7822 45.284 37.8219 44.6499C37.8616 44.0158 37.6581 43.3905 37.2528 42.9012C36.8476 42.4119 36.2711 42.0955 35.6408 42.0163Z" fill="#90C5F9"/>
<path d="M41.602 47.3563C40.5051 47.2214 39.6494 45.9793 39.6546 44.4727C39.6452 43.7532 39.861 43.0487 40.2717 42.4579C40.4321 42.1933 40.658 41.9745 40.9276 41.8226C41.1972 41.6708 41.5013 41.591 41.8108 41.591C42.1202 41.591 42.4243 41.6708 42.6939 41.8226C42.9635 41.9745 43.1894 42.1933 43.3498 42.4579C43.7564 43.0517 43.9659 43.7584 43.9488 44.4779C43.9488 46.0675 42.9738 47.3588 41.7913 47.3537C41.7317 47.3666 41.6642 47.3614 41.602 47.3563ZM41.9599 41.9911C41.9106 41.9885 41.8613 41.9885 41.8121 41.9911C41.5659 42.0012 41.3257 42.0703 41.1118 42.1926C40.8979 42.3149 40.7165 42.4868 40.5829 42.6938C40.22 43.2191 40.0305 43.8447 40.041 44.4831C40.041 45.86 40.8189 46.9854 41.7913 46.988C42.7637 46.9906 43.5572 45.8756 43.565 44.4986C43.5835 43.861 43.4022 43.2336 43.0464 42.7042C42.9257 42.5155 42.7666 42.3544 42.5793 42.2316C42.3921 42.1087 42.181 42.0267 41.9599 41.9911Z" fill="#90C5F9"/>
<path d="M38.101 44.4615L37.8417 44.1659C38.2826 43.8002 39.2965 43.3101 39.9966 44.0673L39.714 44.3266C39.089 43.6498 38.1322 44.4278 38.101 44.4615Z" fill="#90C5F9"/>
<path d="M25.2345 45.149L24.8948 44.9701C24.9778 44.8119 25.7323 43.4142 26.5933 43.2742C27.3997 43.1497 32.5574 43.6554 32.7882 43.6761L32.7493 44.0599C31.2686 43.9147 27.2778 43.5569 26.6555 43.6554C26.085 43.7436 25.4367 44.7652 25.2345 45.149Z" fill="#90C5F9"/>
<path d="M28.2295 45.0421C28.2295 45.0421 26.2069 41.4533 24.5992 42.1431C22.9914 42.8328 24.2854 47.8712 26.0098 48.7114C26.2234 48.8344 26.4597 48.913 26.7045 48.9423C26.9493 48.9717 27.1975 48.9512 27.4342 48.8822C27.6708 48.8132 27.8911 48.697 28.0817 48.5406C28.2723 48.3843 28.4293 48.191 28.5433 47.9724L28.2295 45.0421Z" fill="#AD6359"/>
<path d="M25.0084 43.5805C25.003 43.5805 24.9977 43.5822 24.9933 43.5854C24.9888 43.5886 24.9855 43.5931 24.9838 43.5983C24.9821 43.6034 24.982 43.609 24.9837 43.6142C24.9853 43.6194 24.9885 43.6239 24.9929 43.6272C26.1986 44.2573 26.7458 45.4839 27.0907 46.7389C26.7639 46.2385 26.279 45.9325 25.6152 46.3163C25.5789 46.337 25.6152 46.3915 25.6411 46.3863C25.8695 46.3388 26.1071 46.3632 26.3211 46.456C26.5351 46.5489 26.7152 46.7057 26.8366 46.9049C27.0386 47.2378 27.2038 47.5917 27.3292 47.9603C27.3759 48.077 27.5886 48.0381 27.5548 47.9032V47.8747C27.7286 46.2774 26.7095 43.9073 25.0084 43.5805Z" fill="#263238"/>
</svg>
