<svg width="36" height="34" viewBox="0 0 36 34" fill="none" xmlns="http://www.w3.org/2000/svg">
<g clip-path="url(#clip0_50_2810)">
<path d="M31.2711 0.0561829H4.43981C2.41985 0.0561829 0.781006 1.69502 0.781006 3.71499V30.5462C0.781006 32.5662 2.41985 34.2051 4.43981 34.2051H31.2711C33.291 34.2051 34.9299 32.5662 34.9299 30.5462V3.71499C34.9299 1.69502 33.291 0.0561829 31.2711 0.0561829ZM21.9182 29.3038C21.2779 29.4181 21.0417 29.0217 21.0417 28.694C21.0417 28.2824 21.0569 26.1785 21.0569 24.4787C21.0569 23.2896 20.6605 22.535 20.1956 22.1386C23.0159 21.8261 25.9887 21.4373 25.9887 16.5666C25.9887 15.1793 25.4932 14.4856 24.6852 13.5938C24.8148 13.266 25.2493 11.9168 24.5556 10.1636C23.4961 9.83587 21.0721 11.5281 21.0721 11.5281C20.066 11.246 18.976 11.1012 17.9012 11.1012C16.8264 11.1012 15.7364 11.246 14.7302 11.5281C14.7302 11.5281 12.3062 9.83587 11.2467 10.1636C10.5531 11.9092 10.9799 13.2584 11.1171 13.5938C10.3092 14.4856 9.92802 15.1793 9.92802 16.5666C9.92802 21.4145 12.7712 21.8261 15.5916 22.1386C15.2257 22.4664 14.8979 23.0304 14.7836 23.8384C14.0594 24.1662 12.2072 24.7303 11.1019 22.7789C10.4082 21.5745 9.15815 21.4755 9.15815 21.4755C7.9233 21.4602 9.0743 22.2529 9.0743 22.2529C9.89753 22.6341 10.4768 24.0976 10.4768 24.0976C11.2162 26.3615 14.7531 25.5992 14.7531 25.5992C14.7531 26.6588 14.7683 28.3815 14.7683 28.694C14.7683 29.0217 14.5396 29.4181 13.8917 29.3038C8.86087 27.6192 5.33927 22.8323 5.33927 17.2373C5.33927 10.2399 10.6903 4.92697 17.6877 4.92697C24.6852 4.92697 30.3564 10.2399 30.3564 17.2373C30.364 22.8323 26.9491 27.6268 21.9182 29.3038ZM14.4406 24.6464C14.2957 24.6769 14.1585 24.6159 14.1433 24.5168C14.128 24.4025 14.2271 24.3034 14.372 24.2729C14.5168 24.2577 14.654 24.3186 14.6692 24.4177C14.6921 24.5168 14.593 24.6159 14.4406 24.6464ZM13.7164 24.5778C13.7164 24.6769 13.6021 24.7608 13.4496 24.7608C13.2819 24.776 13.1676 24.6922 13.1676 24.5778C13.1676 24.4787 13.2819 24.3949 13.4344 24.3949C13.5792 24.3796 13.7164 24.4635 13.7164 24.5778ZM12.6721 24.494C12.6416 24.5931 12.4892 24.6388 12.3596 24.5931C12.2148 24.5626 12.1157 24.4482 12.1462 24.3491C12.1767 24.25 12.3291 24.2043 12.4587 24.2348C12.6111 24.2805 12.7102 24.3949 12.6721 24.494ZM11.7346 24.0824C11.666 24.1662 11.5211 24.151 11.4068 24.0366C11.2925 23.9375 11.262 23.7927 11.3382 23.7241C11.4068 23.6402 11.5516 23.6555 11.666 23.7698C11.7651 23.8689 11.8032 24.0214 11.7346 24.0824ZM11.0409 23.3887C10.9723 23.4344 10.8427 23.3887 10.7589 23.2744C10.675 23.16 10.675 23.0304 10.7589 22.9771C10.8427 22.9085 10.9723 22.9618 11.0409 23.0762C11.1248 23.1905 11.1248 23.3277 11.0409 23.3887ZM10.5454 22.6493C10.4768 22.7179 10.3625 22.6798 10.2787 22.6036C10.1948 22.5045 10.1796 22.3902 10.2482 22.3368C10.3168 22.2682 10.4311 22.3063 10.515 22.3825C10.5988 22.4816 10.6141 22.596 10.5454 22.6493ZM10.0347 22.0853C10.0042 22.1539 9.90516 22.1691 9.82131 22.1157C9.72222 22.07 9.67648 21.9862 9.70697 21.9176C9.73746 21.8718 9.82131 21.849 9.9204 21.8871C10.0195 21.9404 10.0652 22.0243 10.0347 22.0853Z" fill="#15A6DD"/>
</g>
<defs>
<clipPath id="clip0_50_2810">
<rect x="0.478516" width="34.5965" height="34" rx="11.0885" fill="white"/>
</clipPath>
</defs>
</svg>
