<svg width="34" height="34" viewBox="0 0 34 34" fill="none" xmlns="http://www.w3.org/2000/svg">
<g clip-path="url(#clip0_50_2808)">
<path d="M17.0744 13.0648C16.2703 13.0651 15.4844 13.3038 14.816 13.7507C14.1476 14.1977 13.6267 14.8328 13.3192 15.5757C13.0117 16.3187 12.9314 17.1362 13.0884 17.9248C13.2455 18.7134 13.6328 19.4377 14.2015 20.0061C14.7702 20.5746 15.4947 20.9617 16.2833 21.1185C17.072 21.2752 17.8894 21.1946 18.6322 20.8868C19.3751 20.579 20.01 20.0579 20.4567 19.3893C20.9034 18.7207 21.1418 17.9347 21.1418 17.1306C21.141 16.0523 20.7122 15.0183 19.9495 14.256C19.1869 13.4936 18.1528 13.0652 17.0744 13.0648ZM26.5805 9.93954C26.3735 9.41499 26.0609 8.93856 25.6622 8.53982C25.2634 8.14107 24.787 7.82851 24.2625 7.62153C22.6617 6.98962 18.8505 7.1314 17.0744 7.1314C15.2984 7.1314 11.4909 6.98429 9.88564 7.62153C9.36109 7.82851 8.88467 8.14107 8.48592 8.53982C8.08718 8.93856 7.77462 9.41499 7.56763 9.93954C6.93649 11.5403 7.07751 15.3553 7.07751 17.1299C7.07751 18.9044 6.93649 22.7149 7.57068 24.3209C7.77767 24.8455 8.09023 25.3219 8.48897 25.7207C8.88772 26.1194 9.36414 26.432 9.88869 26.6389C11.4894 27.2708 15.3007 27.1291 17.0775 27.1291C18.8543 27.1291 22.6602 27.2762 24.2655 26.6389C24.7901 26.432 25.2665 26.1194 25.6652 25.7207C26.064 25.3219 26.3765 24.8455 26.5835 24.3209C27.22 22.7202 27.0737 18.9051 27.0737 17.1306C27.0737 15.3561 27.22 11.5464 26.5835 9.9403L26.5805 9.93954ZM17.0744 23.3811C15.8382 23.3811 14.6297 23.0145 13.6019 22.3277C12.574 21.6409 11.7728 20.6647 11.2998 19.5226C10.8267 18.3804 10.7029 17.1237 10.9441 15.9112C11.1852 14.6987 11.7805 13.585 12.6547 12.7109C13.5288 11.8367 14.6426 11.2414 15.855 11.0003C17.0675 10.7591 18.3243 10.8829 19.4664 11.3559C20.6085 11.829 21.5847 12.6302 22.2715 13.658C22.9583 14.6859 23.3249 15.8944 23.3249 17.1306C23.3259 17.9517 23.1649 18.765 22.8512 19.5238C22.5374 20.2825 22.077 20.972 21.4964 21.5526C20.9158 22.1332 20.2264 22.5936 19.4676 22.9073C18.7088 23.2211 17.8955 23.3821 17.0744 23.3811ZM23.5825 12.0769C23.294 12.077 23.0118 11.9916 22.7718 11.8314C22.5318 11.6712 22.3446 11.4434 22.2341 11.1768C22.1236 10.9102 22.0946 10.6168 22.1508 10.3338C22.207 10.0507 22.3459 9.79069 22.5499 9.58658C22.7539 9.38246 23.0138 9.24343 23.2969 9.18708C23.5799 9.13072 23.8733 9.15957 24.1399 9.26997C24.4065 9.38038 24.6344 9.56737 24.7948 9.80731C24.9551 10.0473 25.0407 10.3294 25.0407 10.6179C25.0415 10.8096 25.0045 10.9995 24.9317 11.1768C24.859 11.3541 24.7519 11.5153 24.6167 11.6511C24.4815 11.7869 24.3209 11.8947 24.1439 11.9683C23.967 12.0419 23.7772 12.0798 23.5856 12.0799L23.5825 12.0769ZM30.4901 0.0561829H3.65881C2.68843 0.0561829 1.7578 0.441663 1.07164 1.12782C0.38548 1.81398 0 2.74461 0 3.71499L0 30.5462C0 31.5166 0.38548 32.4473 1.07164 33.1334C1.7578 33.8196 2.68843 34.2051 3.65881 34.2051H30.4901C31.4604 34.2051 32.3911 33.8196 33.0772 33.1334C33.7634 32.4473 34.1489 31.5166 34.1489 30.5462V3.71499C34.1489 2.74461 33.7634 1.81398 33.0772 1.12782C32.3911 0.441663 31.4604 0.0561829 30.4901 0.0561829ZM29.1851 22.1615C29.0868 24.1151 28.6408 25.8462 27.2147 27.2686C25.7885 28.6909 24.0589 29.146 22.1076 29.239C20.0945 29.3526 14.059 29.3526 12.0459 29.239C10.0922 29.1407 8.36724 28.694 6.93878 27.2686C5.51032 25.8432 5.06135 24.1113 4.96836 22.1615C4.85478 20.1476 4.85478 14.1113 4.96836 12.0998C5.06669 10.1461 5.50727 8.41503 6.93878 6.99267C8.37028 5.57031 10.0998 5.12058 12.0459 5.02759C14.059 4.91401 20.0945 4.91401 22.1076 5.02759C24.0612 5.12592 25.7915 5.5726 27.2147 6.99801C28.6378 8.42342 29.0921 10.1553 29.1851 12.1089C29.2987 14.1151 29.2987 20.1461 29.1851 22.1615Z" fill="#15A6DD"/>
</g>
<defs>
<clipPath id="clip0_50_2808">
<rect width="34" height="34" rx="11.0885" fill="white"/>
</clipPath>
</defs>
</svg>
