<svg width="35" height="34" viewBox="0 0 35 34" fill="none" xmlns="http://www.w3.org/2000/svg">
<g clip-path="url(#clip0_50_2806)">
<path d="M32.5905 0.0561829H3.31244C1.97088 0.0561829 0.880859 1.16145 0.880859 2.51826V31.743C0.880859 33.0998 1.97088 34.2051 3.31244 34.2051H32.5905C33.9321 34.2051 35.0297 33.0998 35.0297 31.743V2.51826C35.0297 1.16145 33.9321 0.0561829 32.5905 0.0561829ZM11.2017 29.3266H6.1404V13.0297H11.2094V29.3266H11.2017ZM8.67107 10.8039C7.04747 10.8039 5.7364 9.48523 5.7364 7.86926C5.7364 6.25329 7.04747 4.93459 8.67107 4.93459C10.287 4.93459 11.6057 6.25329 11.6057 7.86926C11.6057 9.49286 10.2947 10.8039 8.67107 10.8039ZM30.1742 29.3266H25.1128V21.3992C25.1128 19.5088 25.0747 17.0773 22.4831 17.0773C19.8457 17.0773 19.4417 19.1353 19.4417 21.262V29.3266H14.3803V13.0297H19.2359V15.2555H19.3045C19.9829 13.9749 21.637 12.6257 24.099 12.6257C29.2214 12.6257 30.1742 16.0025 30.1742 20.3931V29.3266Z" fill="#15A6DD"/>
</g>
<defs>
<clipPath id="clip0_50_2806">
<rect x="0.739014" width="34" height="34" rx="11.0885" fill="white"/>
</clipPath>
</defs>
</svg>
