<svg width="151" height="112" viewBox="0 0 151 112" fill="none" xmlns="http://www.w3.org/2000/svg">
<path d="M150.301 98.5635H0.00238037V98.6386H150.301V98.5635Z" fill="#EBEBEB"/>
<path d="M135.241 103.4H125.286V103.475H135.241V103.4Z" fill="#EBEBEB"/>
<path d="M99.5663 104.218H96.9541V104.293H99.5663V104.218Z" fill="#EBEBEB"/>
<path d="M124.984 100.61H119.216V100.685H124.984V100.61Z" fill="#EBEBEB"/>
<path d="M28.7546 101.115H15.7718V101.19H28.7546V101.115Z" fill="#EBEBEB"/>
<path d="M33.3356 101.115H31.4329V101.19H33.3356V101.115Z" fill="#EBEBEB"/>
<path d="M67.6822 102.384H39.5222V102.459H67.6822V102.384Z" fill="#EBEBEB"/>
<path d="M71.2439 85.1565H13.2014C12.7467 85.1557 12.3109 84.9745 11.9897 84.6527C11.6685 84.3309 11.488 83.8948 11.488 83.4401V1.84878C11.492 1.39669 11.6742 0.964419 11.995 0.645857C12.3158 0.327295 12.7493 0.148174 13.2014 0.1474H71.2439C71.6991 0.1474 72.1357 0.328236 72.4576 0.650126C72.7795 0.972017 72.9603 1.40859 72.9603 1.86381V83.4401C72.9603 83.8953 72.7795 84.3319 72.4576 84.6538C72.1357 84.9757 71.6991 85.1565 71.2439 85.1565ZM13.2014 0.20752C12.7667 0.208316 12.35 0.381585 12.0428 0.689296C11.7357 0.997007 11.5632 1.41401 11.5632 1.84878V83.4401C11.5632 83.8749 11.7357 84.2919 12.0428 84.5996C12.35 84.9073 12.7667 85.0806 13.2014 85.0814H71.2439C71.679 85.0806 72.096 84.9074 72.4036 84.5998C72.7112 84.2922 72.8844 83.8752 72.8852 83.4401V1.84878C72.8844 1.41374 72.7112 0.996737 72.4036 0.689113C72.096 0.381488 71.679 0.208314 71.2439 0.20752H13.2014Z" fill="#EBEBEB"/>
<path d="M136.267 85.1565H78.2211C77.7661 85.1557 77.33 84.9746 77.0082 84.6529C76.6865 84.3312 76.5054 83.8951 76.5046 83.4401V1.84878C76.5094 1.39642 76.6922 0.964148 77.0135 0.645669C77.3348 0.32719 77.7687 0.148166 78.2211 0.1474H136.267C136.718 0.148964 137.151 0.328435 137.471 0.646912C137.791 0.965389 137.973 1.39721 137.977 1.84878V83.4401C137.977 83.8943 137.797 84.33 137.476 84.6517C137.156 84.9734 136.721 85.1549 136.267 85.1565ZM78.2211 0.20752C77.786 0.208314 77.369 0.381488 77.0614 0.689113C76.7538 0.996737 76.5806 1.41374 76.5798 1.84878V83.4401C76.5806 83.8752 76.7538 84.2922 77.0614 84.5998C77.369 84.9074 77.786 85.0806 78.2211 85.0814H136.267C136.702 85.0806 137.119 84.9074 137.426 84.5998C137.734 84.2922 137.907 83.8752 137.908 83.4401V1.84878C137.907 1.41374 137.734 0.996737 137.426 0.689113C137.119 0.381488 136.702 0.208314 136.267 0.20752H78.2211Z" fill="#EBEBEB"/>
<path d="M125.83 88.9017C125.875 88.6012 126.927 81.3327 124.82 78.8287C124.61 78.5645 124.344 78.3501 124.042 78.201C123.739 78.0518 123.407 77.9715 123.07 77.966C118.814 77.8668 118.233 81.2726 118.227 81.3177L118.729 81.3958C118.747 81.2726 119.252 78.3898 123.055 78.474C123.32 78.4771 123.581 78.5398 123.819 78.6573C124.057 78.7749 124.265 78.9444 124.429 79.1533C126.392 81.486 125.331 88.7515 125.331 88.8266L125.83 88.9017Z" fill="#EBEBEB"/>
<path d="M126.085 88.5711L126.593 88.5531C126.593 88.4869 126.425 81.8648 129.686 80.497C132.885 79.1594 134.325 81.9128 134.382 82.0301L134.836 81.8016C134.821 81.7686 133.131 78.4951 129.491 80.0311C125.908 81.5311 126.076 88.2825 126.085 88.5711Z" fill="#EBEBEB"/>
<path d="M126.07 89.0909C126.07 88.9857 126.103 78.5128 128.144 75.4497C130.104 72.5069 133.254 73.8926 133.401 73.9467L133.609 73.4838C133.573 73.4688 129.924 71.8576 127.72 75.1611C125.595 78.3505 125.565 88.646 125.565 89.0818L126.07 89.0909Z" fill="#EBEBEB"/>
<path d="M122.46 78.2186C122.46 78.2186 124.318 78.9039 123.765 80.5182C123.212 82.1324 117.341 84.7957 117.341 84.7957C117.341 84.7957 114.879 82.5412 117.14 78.8739C119.4 75.2066 122.409 77.0613 122.46 78.2186Z" fill="#E0E0E0"/>
<path d="M128.235 74.8963C128.235 74.8963 126.918 74.7551 127.032 73.9525C127.146 73.1499 132.157 71.0818 135.121 74.4244C135.121 74.4244 133.225 77.6829 130.483 77.731C127.742 77.7791 128.235 74.8963 128.235 74.8963Z" fill="#E0E0E0"/>
<path d="M129.59 80.263C129.59 80.263 128.688 79.5296 129.662 79.1718C130.636 78.8141 135.464 78.9133 135.512 83.6808C135.512 83.6808 129.9 84.6157 129.199 82.7971C128.499 80.9784 129.59 80.263 129.59 80.263Z" fill="#E0E0E0"/>
<path d="M121.462 98.6267H130.174L131.111 89.0917H120.524L121.462 98.6267Z" fill="#EBEBEB"/>
<path d="M120.058 90.1439H131.577V88.0397H120.058V90.1439Z" fill="#E0E0E0"/>
<path d="M41.3194 68.3082C41.3194 68.3082 40.2342 65.9455 41.4727 63.6129C42.7111 61.2802 43.0689 60.7332 42.2813 60.2552C41.4937 59.7772 41.13 62.1219 41.13 62.1219C40.7357 61.0611 40.6945 59.9014 41.0128 58.8153C41.5629 57.129 41.9146 54.3815 41.1571 54.0869C40.3995 53.7923 41.0128 57.5137 40.3635 58.7823C40.0315 57.8911 39.8173 56.9604 39.7262 56.0138C39.636 54.6611 39.7773 52.4968 39.1851 51.9437C38.593 51.3906 38.2112 51.7723 38.7944 54.7603C39.1443 56.5435 39.3374 58.3541 39.3715 60.171C39.3715 60.171 38.0849 56.2633 37.2222 56.134C36.3595 56.0047 36.3625 57.2913 37.099 58.3915C37.8354 59.4917 39.2633 61.4666 39.5038 62.4826C39.5038 62.4826 38.091 59.5308 36.8224 60.4356C35.5539 61.3404 37.9286 63.1229 38.9867 63.7662C40.0448 64.4095 40.7903 68.4465 40.7903 68.4465L41.3194 68.3082Z" fill="#EBEBEB"/>
<path d="M40.4634 69.2846C40.4634 69.2846 41.5185 66.9039 40.2529 64.5923C38.9874 62.2807 38.6207 61.7366 39.4053 61.2466C40.1898 60.7566 40.5776 63.0953 40.5776 63.0953C40.9574 62.03 40.9848 60.8708 40.6558 59.7887C40.0846 58.1114 39.7089 55.3699 40.4544 55.0633C41.1998 54.7567 40.6377 58.4871 41.305 59.7466C41.6244 58.8506 41.8265 57.917 41.9062 56.9691C41.9784 55.6134 41.8131 53.4551 42.3992 52.89C42.9854 52.3249 43.3702 52.7036 42.8231 55.7036C42.4941 57.4938 42.3221 59.3093 42.309 61.1294C42.309 61.1294 43.5475 57.1885 44.4132 57.0623C45.279 56.936 45.288 58.2046 44.5635 59.3168C43.8391 60.429 42.4353 62.425 42.2159 63.444C42.2159 63.444 43.5926 60.4711 44.8731 61.3578C46.1537 62.2446 43.8 64.0632 42.7479 64.7185C41.6958 65.3738 41.0105 69.4259 41.0105 69.4259L40.4634 69.2846Z" fill="#F5F5F5"/>
<path d="M45.3297 67.5812H36.6124L37.3188 73.8217H44.6263L45.3297 67.5812Z" fill="#E0E0E0"/>
<path d="M15.0231 73.6771V98.6267H16.8267V77.2842H45.3835V98.6267H47.4877V73.6771H15.0231Z" fill="#E0E0E0"/>
<path d="M31.5558 73.6771V98.6267H33.3594V77.2842H61.9162V98.6267H64.0204V73.6771H31.5558Z" fill="#EBEBEB"/>
<path d="M70.0207 88.7781L69.1189 88.6518C69.2782 87.5276 70.2191 85.3994 72.6239 85.3994C75.4706 85.3994 76.8894 87.0436 77.0307 88.6759L76.1289 88.754C76.0237 87.5336 74.8964 86.3011 72.6209 86.3011C70.4145 86.3011 70.0418 88.6789 70.0207 88.7781Z" fill="#E0E0E0"/>
<path d="M80.5713 87.9852H65.9232C65.1213 87.9852 64.4713 88.6353 64.4713 89.4371V97.0122C64.4713 97.814 65.1213 98.4641 65.9232 98.4641H80.5713C81.3732 98.4641 82.0232 97.814 82.0232 97.0122V89.4371C82.0232 88.6353 81.3732 87.9852 80.5713 87.9852Z" fill="#EBEBEB"/>
<path d="M77.0398 98.6259C64.6311 98.6259 64.0299 90.116 64.0299 90.0258L64.5349 89.0399C64.556 89.3555 65.5329 97.7181 77.0488 97.7181C81.7892 97.7181 85.8804 97.7181 86.2952 96.8163C86.6589 96.0197 84.8824 93.9727 82.0327 90.6931V89.4246C85.664 93.6059 87.72 95.8544 87.1158 97.18C86.4786 98.5718 83.7371 98.6259 77.0398 98.6259Z" fill="#E0E0E0"/>
<path d="M15.667 5.48036V14.363C15.6684 14.4779 15.6932 14.5913 15.7399 14.6963C15.7866 14.8013 15.8542 14.8956 15.9386 14.9735C16.023 15.0515 16.1225 15.1114 16.2308 15.1496C16.3392 15.1878 16.4542 15.2035 16.5688 15.1957H46.5745C46.5745 15.1957 50.0434 13.5785 49.7969 11.318C49.5985 9.51439 49.3971 8.04446 49.2288 6.92624C49.1304 6.26936 48.7984 5.67001 48.2937 5.23821C47.789 4.80641 47.1455 4.57113 46.4813 4.57556H16.5688C16.4501 4.57556 16.3326 4.59898 16.223 4.64449C16.1134 4.69 16.0139 4.75669 15.9301 4.84075C15.8463 4.92481 15.7799 5.02458 15.7348 5.13434C15.6897 5.24409 15.6666 5.36168 15.667 5.48036Z" fill="#F5F5F5"/>
<path d="M15.667 5.48034V14.363C15.6684 14.4779 15.6932 14.5913 15.7399 14.6963C15.7866 14.8012 15.8542 14.8956 15.9386 14.9735C16.023 15.0515 16.1225 15.1114 16.2308 15.1496C16.3392 15.1878 16.4542 15.2034 16.5688 15.1957H19.2141C19.2141 15.1957 22.686 13.5785 22.4365 11.318C22.2411 9.51437 22.0367 8.04445 21.8714 6.92622C21.7724 6.26961 21.4402 5.67062 20.9357 5.23893C20.4311 4.80724 19.7879 4.57174 19.1239 4.57555H16.5688C16.4501 4.57555 16.3326 4.59897 16.223 4.64448C16.1134 4.68998 16.0139 4.75668 15.9301 4.84074C15.8463 4.92479 15.7799 5.02456 15.7348 5.13432C15.6897 5.24408 15.6666 5.36167 15.667 5.48034Z" fill="#E6E6E6"/>
<path d="M49.1048 12.0297H22.8957C22.8957 12.0297 22.03 13.9505 20.5601 14.7351H46.168C46.168 14.7351 48.8794 13.4996 49.1048 12.0297Z" fill="#E0E0E0"/>
<path d="M47.2982 13.84H21.9908L22.3696 14.7448H47.2982V13.84Z" fill="#EBEBEB"/>
<path d="M48.203 12.71H22.8957L23.2714 13.6148H48.203V12.71Z" fill="#EBEBEB"/>
<path d="M23.7973 11.6188H24.4376V11.3543H23.7973V11.6188Z" fill="#E0E0E0"/>
<path d="M24.7054 11.6188H25.3457V11.3543H24.7054V11.6188Z" fill="#E0E0E0"/>
<path d="M75.1517 111.807C107.341 111.807 133.435 110.284 133.435 108.404C133.435 106.525 107.341 105.002 75.1517 105.002C42.963 105.002 16.8688 106.525 16.8688 108.404C16.8688 110.284 42.963 111.807 75.1517 111.807Z" fill="#F5F5F5"/>
<path d="M49.4958 70.5695L51.2994 69.1827C51.2994 69.1827 51.3956 68.394 51.7894 68.1589C52.1832 67.9238 53.8004 67.2929 54.1942 67.3227C54.588 67.3524 54.7022 68.8464 54.591 69.0904C54.4798 69.3344 52.1291 70.0159 52.1291 70.0159L49.9558 72.1408L49.4958 70.5695Z" fill="#E4897B"/>
<path d="M36.0533 75.4978C38.7587 74.8312 42.9911 74.111 44.6444 73.2659C46.2977 72.4207 48.958 70.4327 49.469 70.3196C49.469 70.3196 50.4609 71.0011 50.7796 71.5725C50.7796 71.5725 48.4289 74.6021 44.9901 76.215C41.5512 77.828 37.0092 79.0958 37.0092 79.0958L36.0533 75.4978Z" fill="#90C5F9"/>
<path opacity="0.5" d="M50.7796 71.5693C50.7796 71.5693 48.4289 74.6018 44.9901 76.2148C43.8237 76.7594 42.5282 77.2713 41.3258 77.7028C38.9901 78.545 37.0092 79.0985 37.0092 79.0985L36.5042 77.1999L36.0533 75.5006C38.7587 74.831 42.9911 74.1138 44.6414 73.2686C46.2917 72.4234 48.958 70.4355 49.469 70.3224C49.469 70.3194 50.464 71.0009 50.7796 71.5693Z" fill="white"/>
<path d="M49.4688 70.3225L50.2323 69.7273L51.4858 70.7897L50.7794 71.5724L49.4688 70.3225Z" fill="#90C5F9"/>
<path opacity="0.2" d="M41.3254 77.6999C38.9897 78.5421 37.0088 79.0956 37.0088 79.0956L36.5038 77.1969C38.1265 77.1487 39.7484 77.3179 41.3254 77.6999Z" fill="black"/>
<path d="M36.8581 91.8981L38.304 96.2519C42.7619 95.2252 54.3439 93.0676 56.0994 97.9214C58.2787 103.951 42.5214 108.76 33.798 109.055C25.0747 109.349 20.4725 104.552 25.9825 91.9665L36.8581 91.8981Z" fill="#263238"/>
<path opacity="0.2" d="M36.8581 91.8981L38.304 96.2519C42.7619 95.2252 54.3439 93.0676 56.0994 97.9214C58.2787 103.951 42.5214 108.76 33.798 109.055C25.0747 109.349 20.4725 104.552 25.9825 91.9665L36.8581 91.8981Z" fill="black"/>
<path d="M53.5743 106.445C53.5648 106.452 53.5532 106.456 53.5412 106.456C53.5293 106.456 53.5177 106.452 53.5082 106.445C53.5016 106.437 53.498 106.427 53.498 106.416C53.498 106.406 53.5016 106.396 53.5082 106.388C53.5382 106.293 53.8268 105.463 54.1094 105.376C54.1404 105.369 54.1728 105.369 54.2035 105.378C54.2341 105.387 54.2618 105.404 54.2837 105.427C54.3236 105.46 54.3539 105.503 54.3719 105.552C54.3898 105.6 54.3946 105.653 54.3859 105.704C54.3394 105.859 54.2422 105.995 54.1094 106.091C53.9445 106.227 53.7651 106.346 53.5743 106.445ZM53.6495 106.287C53.9208 106.168 54.1404 105.957 54.2687 105.692C54.2768 105.657 54.2744 105.62 54.2615 105.586C54.2487 105.552 54.2261 105.523 54.1965 105.501C54.1886 105.491 54.1777 105.484 54.1653 105.48C54.1529 105.476 54.1397 105.477 54.1274 105.48C54.1029 105.489 54.0803 105.502 54.0613 105.519C53.8776 105.748 53.738 106.008 53.6495 106.287Z" fill="#263238"/>
<path d="M53.5571 106.456C53.5476 106.459 53.5375 106.459 53.528 106.456C53.5184 106.454 53.5098 106.449 53.503 106.441C53.4759 106.418 53.0731 105.915 53.1393 105.575C53.1474 105.533 53.164 105.493 53.1883 105.457C53.2126 105.421 53.244 105.391 53.2806 105.367C53.3111 105.338 53.3506 105.32 53.3926 105.317C53.4347 105.313 53.4768 105.323 53.512 105.346C53.7224 105.492 53.6984 106.165 53.5932 106.421V106.447C53.5827 106.455 53.5698 106.458 53.5571 106.456ZM53.3287 105.471C53.2923 105.502 53.2678 105.544 53.2595 105.59C53.2705 105.845 53.3655 106.088 53.5301 106.284C53.5962 105.986 53.5751 105.522 53.4519 105.439C53.4369 105.439 53.4128 105.412 53.3497 105.453L53.3287 105.471Z" fill="#263238"/>
<path d="M38.2417 107.877C38.2468 107.867 38.2552 107.858 38.2655 107.854C38.2759 107.849 38.2876 107.847 38.2988 107.85C38.3092 107.851 38.3192 107.855 38.3269 107.862C38.3345 107.869 38.3395 107.878 38.3409 107.889C38.3619 107.987 38.5152 108.85 38.3018 109.079C38.2787 109.101 38.2499 109.116 38.2186 109.123C38.1873 109.13 38.1547 109.128 38.1244 109.118C38.0731 109.108 38.0253 109.085 37.9858 109.051C37.9462 109.017 37.9163 108.973 37.899 108.924C37.8636 108.766 37.8805 108.6 37.9471 108.451C38.0252 108.25 38.1239 108.058 38.2417 107.877ZM38.2417 108.052C38.0612 108.285 37.9715 108.575 37.9892 108.868C37.9995 108.902 38.0198 108.933 38.0475 108.956C38.0753 108.98 38.1094 108.994 38.1455 108.999C38.1572 109.003 38.17 109.004 38.1824 109.002C38.1947 108.999 38.2059 108.993 38.2146 108.984C38.233 108.965 38.2474 108.943 38.2567 108.918C38.3102 108.627 38.3091 108.328 38.2537 108.037L38.2417 108.052Z" fill="#263238"/>
<path d="M43.9497 103.493L40.3636 104.758L38.6382 105.365L39.08 107.231L40.7514 106.879L44.8275 106.019L43.9497 103.493Z" fill="#EBB376"/>
<path d="M39.5526 107.32L39.252 105.117C39.2484 105.088 39.2388 105.06 39.2238 105.035C39.2088 105.009 39.1888 104.987 39.1649 104.969C39.141 104.952 39.1137 104.939 39.0848 104.933C39.0558 104.926 39.0258 104.925 38.9965 104.93L37.8993 105.112C37.8993 105.112 36.3963 105.248 36.0957 105.629C35.23 106.736 35.7711 111.626 36.3482 111.799C36.5616 111.861 36.7841 111.572 36.8773 111.376C37.1779 110.745 37.6829 109.096 37.9324 108.576C38.233 107.965 39.0295 107.665 39.3903 107.558C39.442 107.544 39.487 107.513 39.5168 107.469C39.5467 107.425 39.5594 107.372 39.5526 107.32Z" fill="#90C5F9"/>
<path d="M38.25 107.844C38.258 107.839 38.2674 107.836 38.2771 107.836C38.2867 107.836 38.2961 107.839 38.3041 107.844C38.3402 107.844 38.9384 108.1 39.0466 108.44C39.0604 108.481 39.0656 108.524 39.062 108.567C39.0584 108.61 39.046 108.652 39.0256 108.69C39.0134 108.73 38.9876 108.765 38.9526 108.789C38.9177 108.812 38.8755 108.824 38.8332 108.821C38.5777 108.791 38.2711 108.19 38.232 107.928V107.904C38.2273 107.894 38.2265 107.882 38.2298 107.871C38.2332 107.86 38.2403 107.851 38.25 107.844ZM38.9324 108.597C38.949 108.553 38.949 108.505 38.9324 108.461C38.8632 108.252 38.5296 108.065 38.3582 107.984C38.4394 108.267 38.6889 108.669 38.8392 108.684C38.8392 108.684 38.8873 108.684 38.9204 108.621V108.597H38.9324Z" fill="#263238"/>
<path opacity="0.2" d="M43.9497 103.493L40.3636 104.758L40.7513 106.879L44.8274 106.019L43.9497 103.493Z" fill="black"/>
<path d="M41.386 107.198L42.4171 107.272L41.7287 103.757L40.5564 104.397L41.386 107.198Z" fill="#90C5F9"/>
<path opacity="0.6" d="M41.386 107.198L42.4171 107.272L41.7287 103.757L40.5564 104.397L41.386 107.198Z" fill="white"/>
<path opacity="0.2" d="M26.419 93.541L31.7907 99.4393C31.7907 99.4393 37.7335 99.3084 44.9479 102.802C44.9479 102.802 52.6913 99.6357 53.4037 97.005C54.1161 94.3742 37.1504 96.2342 37.1504 96.2342L26.419 93.541Z" fill="black"/>
<path d="M25.3219 79.1131C26.2808 81.9641 26.3259 88.4071 25.9862 91.9663L36.8589 91.8979C38.7286 84.7972 38.0973 79.8154 37.938 78.1519C37.7396 76.1282 37.424 76.0508 37.424 76.0508C37.424 76.0508 35.2056 75.8366 33.2757 75.8514C31.7812 75.9068 30.2925 76.0669 28.8209 76.3306C27.726 76.5116 26.6421 76.753 25.5744 77.0537C25.4618 77.0855 25.3568 77.1396 25.266 77.2127C25.1751 77.2859 25.1003 77.3767 25.046 77.4794C24.9917 77.5821 24.9591 77.6947 24.9502 77.8104C24.9413 77.926 24.9563 78.0422 24.9943 78.1519C25.1085 78.4703 25.2197 78.7977 25.3219 79.1131Z" fill="#90C5F9"/>
<path opacity="0.6" d="M36.8589 91.8995L30.3028 91.9411L25.9862 91.9679C26.2695 88.6523 26.2403 85.3177 25.8991 82.0074C25.8012 81.027 25.6079 80.0583 25.3219 79.1147C25.2197 78.7993 25.1085 78.4719 24.9943 78.1386C24.9563 78.0289 24.9413 77.9127 24.9502 77.7971C24.9591 77.6815 24.9917 77.5689 25.046 77.4661C25.1003 77.3634 25.1751 77.2726 25.266 77.1995C25.3568 77.1263 25.4618 77.0722 25.5744 77.0405C26.6424 76.7448 27.7263 76.5083 28.8209 76.3322C30.2929 76.0735 31.7816 75.9184 33.2757 75.8679C35.2056 75.853 37.424 76.0673 37.424 76.0673C37.424 76.0673 37.7396 76.1447 37.938 78.1684C38.0973 79.817 38.7286 84.7988 36.8589 91.8995Z" fill="white"/>
<path d="M33.6181 81.5136C38.127 80.1149 38.2082 88.028 33.5279 89.1261C28.8476 90.2242 29.3346 82.8468 33.6181 81.5136Z" fill="#90C5F9"/>
<path d="M36.1641 81.9622C36.9787 81.9444 33.2122 88.3814 29.7644 88.9706C29.7644 88.9706 32.2052 89.3367 35.0759 86.1048C37.9467 82.8729 37.6641 81.8819 37.4447 81.6408C37.2252 81.3998 36.1641 81.9622 36.1641 81.9622Z" fill="white"/>
<path d="M32.1754 83.412L32.5361 83.7215L32.996 83.5995L32.8126 84.0369L33.0712 84.4327L32.5962 84.3941L32.2926 84.7601L32.1844 84.2988L31.7395 84.1292L32.1483 83.8852L32.1754 83.412Z" fill="white"/>
<path opacity="0.2" d="M25.9865 91.9664C26.2698 88.6507 26.2406 85.3161 25.8993 82.0058C27.237 83.8866 29.5907 87.681 30.3031 91.9396L25.9865 91.9664Z" fill="black"/>
<path d="M33.0683 95.8217C33.0683 95.8217 35.7737 97.5715 36.0923 97.7084C36.4109 97.8453 38.4159 98.3334 38.9931 98.3036C39.5702 98.2739 38.7977 96.4883 38.3017 96.2562C37.8057 96.024 36.0322 96.3425 36.0322 96.3425L33.928 94.7771L33.0683 95.8217Z" fill="#E4897B"/>
<path d="M51.6272 97.7073V98.5823C51.6272 98.8055 51.3597 98.8977 51.1342 98.8977H33.4891C33.2607 98.8977 32.9901 98.8055 32.9901 98.5823V97.7073H51.6272Z" fill="#263238"/>
<path opacity="0.4" d="M51.6272 97.7073V98.5823C51.6272 98.8055 51.3597 98.8977 51.1342 98.8977H33.4891C33.2607 98.8977 32.9901 98.8055 32.9901 98.5823V97.7073H51.6272Z" fill="white"/>
<path opacity="0.2" d="M51.6273 97.7073V98.5823C51.6273 98.8055 51.3598 98.8977 51.1343 98.8977H39.4951C39.2697 98.8977 39.0022 98.8055 39.0022 98.5823V97.7073H51.6273Z" fill="black"/>
<path d="M54.5793 88.6318L52.4751 98.0657C52.4367 98.2168 52.3491 98.3513 52.2257 98.4481C52.1023 98.545 51.9502 98.5988 51.7927 98.6013H40.3219C40.25 98.6 40.1795 98.582 40.1158 98.549C40.0521 98.5159 39.9971 98.4687 39.9551 98.4109C39.9131 98.3532 39.8853 98.2865 39.8738 98.2162C39.8624 98.146 39.8676 98.0741 39.889 98.0061L41.9932 88.6437C42.0367 88.5013 42.1281 88.3778 42.2522 88.2939C42.3763 88.21 42.5258 88.1707 42.6756 88.1825H54.1524C54.453 88.1854 54.6484 88.3223 54.5793 88.6318Z" fill="#263238"/>
<path opacity="0.4" d="M54.579 88.632L52.4749 98.0658C52.4365 98.217 52.3489 98.3515 52.2255 98.4483C52.1021 98.5452 51.9499 98.599 51.7925 98.6015H40.7095C40.6376 98.6001 40.567 98.5822 40.5034 98.5492C40.4397 98.5161 40.3847 98.4689 40.3427 98.4111C40.3007 98.3533 40.2728 98.2867 40.2614 98.2164C40.2499 98.1462 40.2551 98.0742 40.2766 98.0063L42.3808 88.6439C42.4237 88.5012 42.515 88.3774 42.6393 88.2934C42.7635 88.2094 42.9132 88.1703 43.0631 88.1827H54.1492C54.4528 88.1856 54.6482 88.3225 54.579 88.632Z" fill="white"/>
<path opacity="0.2" d="M48.9218 93.4256C48.9218 94.2321 48.0471 94.8898 47.4038 94.8898C46.7605 94.8898 46.3848 94.2321 46.5651 93.4256C46.7455 92.6191 47.3857 91.9882 48.014 91.9644C47.8306 92.7709 48.2244 93.4256 48.8617 93.4256H48.9218Z" fill="black"/>
<path d="M46.4411 107.534L50.1986 108.147L52.0052 108.442L52.5312 106.594L50.899 106.103L46.9131 104.903L46.4411 107.534Z" fill="#EBB376"/>
<path d="M52.1617 106.293L51.3501 108.376C51.3376 108.404 51.3312 108.435 51.3311 108.465C51.3311 108.496 51.3375 108.526 51.35 108.554C51.3624 108.582 51.3806 108.607 51.4034 108.628C51.4262 108.648 51.4531 108.664 51.4824 108.674L52.5315 109.043C52.5315 109.043 53.9082 109.638 54.3531 109.448C55.6517 108.894 57.5695 104.356 57.1486 103.927C56.9923 103.773 56.6557 103.927 56.4783 104.046C55.9162 104.457 54.6747 105.653 54.1847 105.99C53.6316 106.383 52.784 106.26 52.4142 106.18C52.3654 106.168 52.3141 106.173 52.2683 106.194C52.2226 106.214 52.1851 106.249 52.1617 106.293Z" fill="#90C5F9"/>
<path opacity="0.2" d="M46.4411 107.534L50.1986 108.147L50.899 106.103L46.9131 104.903L46.4411 107.534Z" fill="black"/>
<path d="M50.2533 105.718C50.2533 105.718 34.9228 97.1887 29.6413 97.4328C24.3598 97.6768 23.5933 102.29 25.7726 105.17C27.9519 108.051 31.9829 108.768 31.9829 108.768C31.9829 108.768 29.2415 104.932 29.6383 103.852C30.0351 102.772 31.5862 104.28 31.5862 104.28C31.5862 104.28 41.2263 107.361 49.6581 108.069L50.2533 105.718Z" fill="#263238"/>
<path d="M50.4997 105.483L49.631 104.906L48.5187 108.296H49.8564L50.4997 105.483Z" fill="#90C5F9"/>
<path opacity="0.6" d="M50.4997 105.483L49.631 104.906L48.5187 108.296H49.8564L50.4997 105.483Z" fill="white"/>
<path d="M27.8623 76.7103C27.3092 77.4929 34.1087 78.7518 34.1087 78.7518C34.1087 78.7518 38.0886 76.1954 33.4414 75.7967C32.4945 75.7133 28.737 75.4812 27.8623 76.7103Z" fill="#E4897B"/>
<path d="M34.3306 80.2012C34.3306 80.2012 37.9949 77.2073 36.0981 75.4158C34.2013 73.6243 25.2766 72.8237 26.0311 76.9038C26.0311 76.9038 27.1794 76.5675 28.3397 77.6627C30.7835 79.978 34.3306 80.2012 34.3306 80.2012Z" fill="#90C5F9"/>
<path opacity="0.2" d="M34.024 79.3404C34.024 79.3404 36.0981 77.7452 35.3677 76.3079C34.6372 74.8705 30.3206 73.2962 27.2275 75.2782C27.9692 75.6545 28.6583 76.1247 29.2776 76.6769C30.504 77.7155 34.024 79.3404 34.024 79.3404Z" fill="black"/>
<path d="M29.278 76.6749C29.278 76.6749 30.273 78.0826 34.0245 79.3384C34.0245 79.3384 35.6958 77.2344 33.1557 76.2732C33.1557 76.2732 32.6267 76.1095 32.5125 75.2762C32.4588 74.6885 32.5357 74.0963 32.7379 73.5412C32.765 73.452 32.798 73.3567 32.8311 73.2615L29.7409 71.348C29.7409 71.348 30.8291 75.2256 29.278 76.6749Z" fill="#E4897B"/>
<path opacity="0.2" d="M30.4351 72.4623C30.4351 72.4623 30.6004 74.6496 32.5123 75.2805C32.4586 74.6928 32.5355 74.1006 32.7377 73.5455C31.6105 72.9533 30.4351 72.4623 30.4351 72.4623Z" fill="black"/>
<path d="M28.2917 73.2867C28.0116 73.3102 27.7299 73.2687 27.4689 73.1654C27.208 73.062 26.975 72.8997 26.7887 72.6915C26.7749 72.6776 26.7672 72.6589 26.7672 72.6394C26.7672 72.6199 26.7749 72.6012 26.7887 72.5873C26.7954 72.5802 26.8036 72.5745 26.8126 72.5706C26.8217 72.5668 26.8314 72.5648 26.8413 72.5648C26.8511 72.5648 26.8609 72.5668 26.8699 72.5706C26.879 72.5745 26.8871 72.5802 26.8939 72.5873C27.7386 73.6765 30.1313 72.751 30.1554 72.7421C30.1646 72.7382 30.1746 72.7362 30.1846 72.7362C30.1947 72.7362 30.2046 72.7383 30.2138 72.7421C30.2231 72.746 30.2315 72.7517 30.2385 72.7588C30.2454 72.766 30.2509 72.7744 30.2546 72.7837C30.2584 72.7927 30.2604 72.8023 30.2603 72.8121C30.2603 72.8218 30.2582 72.8314 30.2543 72.8403C30.2503 72.8492 30.2446 72.8573 30.2374 72.8639C30.2302 72.8706 30.2217 72.8757 30.2125 72.8789C29.5997 73.12 28.9504 73.2579 28.2917 73.2867Z" fill="#263238"/>
<path d="M34.4844 66.3374C34.4669 66.3368 34.45 66.3305 34.4364 66.3195C34.4226 66.3056 34.4149 66.2869 34.4149 66.2675C34.4149 66.248 34.4226 66.2293 34.4364 66.2154C34.717 65.8621 34.857 65.4192 34.8299 64.9705C34.8027 64.5219 34.6103 64.0986 34.2891 63.781C33.1468 62.5758 31.4424 63.5995 31.4244 63.6084C31.4161 63.6154 31.4065 63.6206 31.396 63.6236C31.3856 63.6265 31.3746 63.6272 31.3639 63.6255C31.3532 63.6239 31.3429 63.62 31.3339 63.614C31.3248 63.6081 31.3172 63.6003 31.3115 63.5912C31.3058 63.582 31.3021 63.5718 31.3008 63.5611C31.2995 63.5505 31.3005 63.5396 31.3038 63.5294C31.3071 63.5192 31.3126 63.5098 31.3199 63.5018C31.3272 63.4939 31.3362 63.4876 31.3462 63.4834C31.3642 63.4834 33.1738 62.3853 34.4003 63.6799C34.741 64.0263 34.9441 64.4827 34.9722 64.9654C35.0004 65.4481 34.8517 65.9247 34.5536 66.3076C34.5452 66.3176 34.5346 66.3255 34.5226 66.3306C34.5106 66.3358 34.4975 66.3381 34.4844 66.3374Z" fill="#263238"/>
<path d="M34.3612 66.427C34.3489 66.4268 34.3367 66.4238 34.3257 66.4181C34.3147 66.4124 34.3053 66.4042 34.2981 66.3942C34.2877 66.3779 34.2841 66.3583 34.288 66.3394C34.2919 66.3206 34.3031 66.3039 34.3192 66.293C34.3192 66.293 35.1037 65.7633 35.1909 65.058C35.2072 64.8776 35.1828 64.6959 35.1193 64.5261C35.0559 64.3562 34.9551 64.2024 34.8242 64.0759C34.8169 64.069 34.8111 64.0607 34.8072 64.0515C34.8032 64.0423 34.8012 64.0324 34.8012 64.0224C34.8012 64.0124 34.8032 64.0025 34.8072 63.9933C34.8111 63.9841 34.8169 63.9757 34.8242 63.9688C34.8387 63.955 34.8581 63.9473 34.8783 63.9473C34.8984 63.9473 34.9178 63.955 34.9324 63.9688C35.0781 64.1112 35.1902 64.2838 35.2603 64.4742C35.3305 64.6646 35.3571 64.8681 35.3382 65.0699C35.242 65.8437 34.4364 66.3853 34.4003 66.4091C34.3895 66.419 34.3759 66.4253 34.3612 66.427Z" fill="#263238"/>
<path d="M34.397 66.0557C34.4842 65.3018 34.2909 64.5424 33.8532 63.9195C33.4155 63.2967 32.7635 62.8531 32.0192 62.672C29.2628 61.8476 26.4191 64.5588 26.4191 64.5588C26.4191 64.5588 24.2789 73.2962 30.2036 72.826C36.1284 72.3558 34.397 66.0557 34.397 66.0557Z" fill="#263238"/>
<path d="M31.2643 65.1374C33.8133 64.9023 34.7632 66.176 35.1961 68.7621C35.7372 71.994 35.2292 74.3718 31.9737 73.973C27.5369 73.4314 27.0108 65.5302 31.2643 65.1374Z" fill="#E4897B"/>
<path d="M33.5189 68.775C33.7592 69.1332 34.0418 69.4619 34.3606 69.7541C34.2956 69.8653 34.2009 69.9566 34.0869 70.018C33.9728 70.0795 33.8439 70.1086 33.7143 70.1023L33.5189 68.775Z" fill="#DE5753"/>
<path d="M31.9381 68.7118C31.9621 68.9201 31.8689 69.1017 31.7306 69.1166C31.5924 69.1314 31.4571 68.9797 31.43 68.7714C31.403 68.563 31.4992 68.3845 31.6375 68.3666C31.7757 68.3488 31.914 68.5065 31.9381 68.7118Z" fill="#263238"/>
<path d="M31.5859 68.3841L32.0188 68.1549C32.0188 68.1549 31.8354 68.5596 31.5859 68.3841Z" fill="#263238"/>
<path d="M34.532 68.3716C34.5561 68.5769 34.4659 68.7585 34.3246 68.7734C34.1833 68.7882 34.0541 68.6365 34.024 68.4281C33.9939 68.2198 34.0931 68.0413 34.2344 68.0234C34.3757 68.0056 34.508 68.1633 34.532 68.3716Z" fill="#263238"/>
<path d="M34.1797 68.0393L34.6126 67.8102C34.6126 67.8102 34.4323 68.2149 34.1797 68.0393Z" fill="#263238"/>
<path d="M30.6782 67.5635C30.6568 67.5636 30.6359 67.5574 30.6181 67.5457C30.6059 67.5381 30.5954 67.5282 30.5872 67.5166C30.5791 67.5049 30.5734 67.4916 30.5706 67.4777C30.5678 67.4638 30.5679 67.4494 30.5709 67.4355C30.5739 67.4216 30.5797 67.4085 30.588 67.3969C30.7269 67.2248 30.9043 67.0871 31.1062 66.9947C31.3081 66.9022 31.529 66.8575 31.7514 66.8642C31.7656 66.8646 31.7796 66.8677 31.7925 66.8735C31.8055 66.8792 31.8172 66.8874 31.827 66.8976C31.8368 66.9079 31.8444 66.9199 31.8495 66.933C31.8546 66.9462 31.857 66.9602 31.8566 66.9743C31.8537 67.002 31.8409 67.0277 31.8205 67.0468C31.8001 67.0659 31.7734 67.0772 31.7453 67.0784C31.5598 67.0742 31.3757 67.1114 31.2066 67.1871C31.0375 67.2628 30.8877 67.3752 30.7684 67.5159C30.7587 67.5308 30.7453 67.543 30.7295 67.5513C30.7138 67.5596 30.6961 67.5638 30.6782 67.5635Z" fill="#263238"/>
<path d="M34.6282 66.9152C34.6113 66.9183 34.594 66.9183 34.5771 66.9152C34.4393 66.8282 34.2835 66.7729 34.1212 66.7533C33.9589 66.7337 33.7942 66.7504 33.6393 66.8021C33.6134 66.8144 33.5836 66.8159 33.5565 66.8064C33.5295 66.7969 33.5073 66.7772 33.495 66.7515C33.4826 66.7259 33.4811 66.6964 33.4906 66.6696C33.5002 66.6428 33.5202 66.6209 33.5461 66.6087C33.7314 66.5413 33.9299 66.5167 34.1263 66.5368C34.3227 66.5569 34.5119 66.6212 34.6793 66.7248C34.6923 66.731 34.7039 66.7398 34.7133 66.7507C34.7227 66.7616 34.7297 66.7743 34.7339 66.7879C34.7382 66.8016 34.7395 66.816 34.7379 66.8302C34.7362 66.8445 34.7317 66.8582 34.7244 66.8706C34.7136 66.8856 34.6991 66.8976 34.6822 66.9054C34.6654 66.9132 34.6468 66.9166 34.6282 66.9152Z" fill="#263238"/>
<path d="M28.8594 69.6523C28.8594 69.6523 29.8574 67.468 29.5238 65.8818C29.5238 65.8818 34.3874 63.3701 35.1179 68.4262C35.1179 68.4262 35.184 63.87 30.7893 64.1765C26.3945 64.4831 27.0138 70.8308 29.4576 72.5093C29.4606 72.5152 28.2583 71.0213 28.8594 69.6523Z" fill="#263238"/>
<path d="M29.332 70.1495C29.2771 69.8611 29.1098 69.6058 28.8662 69.4387C28.6226 69.2716 28.3223 69.2062 28.0304 69.2567C27.2488 69.4144 27.0234 71.0571 29.0254 71.2595C29.3139 71.2714 29.4612 70.9946 29.332 70.1495Z" fill="#E4897B"/>
<path d="M34.1085 71.0783C33.9958 71.3591 33.9034 71.6475 33.8319 71.9413H33.6696C32.9391 71.8788 32.6235 71.611 32.4912 71.3461C32.4298 71.2097 32.403 71.0606 32.4131 70.9116C32.4156 70.8268 32.4298 70.7427 32.4552 70.6616C32.8883 70.8988 33.3683 71.04 33.862 71.0753C34.0123 71.0723 34.1085 71.0783 34.1085 71.0783Z" fill="#263238"/>
<path d="M33.8618 71.053L33.7716 71.306C33.0862 71.2464 32.6083 71.1125 32.4129 70.8893C32.4154 70.8045 32.4296 70.7204 32.455 70.6393C32.8881 70.8765 33.3681 71.0177 33.8618 71.053Z" fill="white"/>
<path d="M33.6697 71.9294C32.9392 71.8669 32.6236 71.5991 32.4913 71.3342C32.7686 71.3627 33.0384 71.4403 33.2879 71.5634C33.4503 71.6434 33.5837 71.7713 33.6697 71.9294Z" fill="#DE5753"/>
<path d="M27.5579 64.1634C27.5579 64.1634 28.7843 62.232 26.7012 61.4642C24.618 60.6964 22.601 63.354 23.8485 65.1901C24.1879 65.706 24.6876 66.0985 25.2721 66.3084C25.8567 66.5184 26.4944 66.5342 27.0889 66.3537L27.5579 64.1634Z" fill="#263238"/>
<path d="M27.6935 63.9751C27.6761 63.9767 27.6588 63.9713 27.6454 63.9603C27.6382 63.9536 27.6324 63.9455 27.6285 63.9365C27.6246 63.9276 27.6226 63.9179 27.6226 63.9082C27.6226 63.8984 27.6246 63.8888 27.6285 63.8798C27.6324 63.8708 27.6382 63.8628 27.6454 63.8561C27.6995 63.7936 28.9079 62.3116 27.7927 61.386C27.7789 61.3721 27.7712 61.3534 27.7712 61.334C27.7712 61.3145 27.7789 61.2958 27.7927 61.2819C27.7994 61.2748 27.8076 61.2691 27.8166 61.2652C27.8256 61.2613 27.8354 61.2593 27.8453 61.2593C27.8551 61.2593 27.8649 61.2613 27.8739 61.2652C27.883 61.2691 27.8911 61.2748 27.8979 61.2819C29.1303 62.2997 27.7836 63.9424 27.7716 63.9603C27.7613 63.9697 27.7485 63.9761 27.7347 63.9788C27.7209 63.9814 27.7066 63.9801 27.6935 63.9751Z" fill="#263238"/>
<path d="M25.4601 66.8432C25.1354 66.8304 24.8174 66.7478 24.5281 66.6011C24.2389 66.4544 23.9854 66.2472 23.7851 65.9938C23.5849 65.7403 23.4428 65.4468 23.3687 65.1335C23.2946 64.8203 23.2902 64.4948 23.3559 64.1797C23.4852 63.528 23.891 63.1024 24.4441 63.0429C24.454 63.0412 24.4642 63.0416 24.474 63.0441C24.4838 63.0465 24.4929 63.051 24.5009 63.0571C24.5088 63.0633 24.5153 63.071 24.52 63.0799C24.5248 63.0887 24.5276 63.0984 24.5282 63.1084C24.5299 63.1276 24.524 63.1468 24.5116 63.1618C24.4993 63.1768 24.4815 63.1865 24.4621 63.1887C23.9752 63.2423 23.6174 63.6232 23.5032 64.2095C23.4176 64.632 23.4665 65.0704 23.643 65.4643C23.8196 65.8582 24.1152 66.1881 24.4892 66.4087C25.8569 67.1349 26.3589 66.2629 26.3769 66.2272C26.3816 66.2186 26.388 66.211 26.3957 66.2048C26.4034 66.1986 26.4123 66.194 26.4218 66.1913C26.4313 66.1885 26.4412 66.1876 26.4511 66.1887C26.4609 66.1897 26.4705 66.1927 26.4791 66.1974C26.4877 66.2018 26.4954 66.2078 26.5015 66.2152C26.5077 66.2226 26.5124 66.2311 26.5152 66.2402C26.518 66.2494 26.5189 66.259 26.5179 66.2685C26.5168 66.278 26.5139 66.2873 26.5092 66.2956C26.397 66.4689 26.2415 66.6104 26.0576 66.7064C25.8737 66.8023 25.6679 66.8495 25.4601 66.8432Z" fill="#263238"/>
<path opacity="0.2" d="M33.2368 79.5423C33.2374 79.5832 33.2257 79.6233 33.2031 79.6575C33.1805 79.6917 33.1482 79.7185 33.1102 79.7344C33.0721 79.7503 33.0302 79.7546 32.9897 79.7468C32.9492 79.739 32.9119 79.7193 32.8827 79.6905C32.8536 79.6616 32.8337 79.6247 32.8258 79.5846C32.8179 79.5445 32.8223 79.503 32.8384 79.4653C32.8544 79.4277 32.8815 79.3956 32.916 79.3733C32.9506 79.351 32.9911 79.3393 33.0324 79.3399C33.0864 79.3407 33.1379 79.3623 33.1761 79.4C33.2142 79.4378 33.236 79.4889 33.2368 79.5423Z" fill="black"/>
<path opacity="0.2" d="M35.3045 78.9528C35.3049 78.9796 35.2999 79.0063 35.2898 79.0312C35.2797 79.0561 35.2647 79.0787 35.2457 79.0978C35.2267 79.1169 35.204 79.1321 35.179 79.1425C35.154 79.1528 35.1272 79.1582 35.1001 79.1582C35.0709 79.1616 35.0414 79.159 35.0134 79.1503C34.9854 79.1417 34.9595 79.1272 34.9376 79.108C34.9156 79.0887 34.898 79.065 34.886 79.0386C34.874 79.0121 34.8677 78.9834 34.8677 78.9543C34.8677 78.9253 34.874 78.8965 34.886 78.87C34.898 78.8436 34.9156 78.8199 34.9376 78.8006C34.9595 78.7814 34.9854 78.7669 35.0134 78.7583C35.0414 78.7496 35.0709 78.747 35.1001 78.7505C35.1543 78.7505 35.2063 78.7718 35.2446 78.8097C35.2829 78.8477 35.3045 78.8991 35.3045 78.9528Z" fill="black"/>
<path d="M37.2314 81.0067C37.232 81.0475 37.2203 81.0875 37.1979 81.1216C37.1755 81.1558 37.1433 81.1826 37.1054 81.1986C37.0676 81.2146 37.0258 81.2191 36.9854 81.2115C36.9449 81.2039 36.9077 81.1846 36.8784 81.156C36.8491 81.1274 36.829 81.0908 36.8208 81.0509C36.8125 81.011 36.8164 80.9695 36.8321 80.9318C36.8477 80.8942 36.8742 80.8619 36.9084 80.8392C36.9426 80.8165 36.9828 80.8044 37.024 80.8044C37.0784 80.8044 37.1307 80.8256 37.1696 80.8635C37.2084 80.9013 37.2306 80.9528 37.2314 81.0067Z" fill="#263238"/>
<path d="M32.7671 82.0531C32.7671 82.0931 32.7551 82.1322 32.7326 82.1655C32.7102 82.1988 32.6783 82.2247 32.6409 82.24C32.6036 82.2554 32.5625 82.2594 32.5228 82.2516C32.4832 82.2437 32.4467 82.2245 32.4181 82.1962C32.3896 82.1679 32.3701 82.1318 32.3622 82.0926C32.3543 82.0533 32.3584 82.0126 32.3738 81.9756C32.3893 81.9387 32.4155 81.9071 32.4491 81.8848C32.4827 81.8626 32.5223 81.8507 32.5627 81.8507C32.6169 81.8507 32.6689 81.872 32.7072 81.91C32.7456 81.9479 32.7671 81.9994 32.7671 82.0531Z" fill="#263238"/>
<path d="M36.9764 81.0927C36.9764 81.0927 36.1738 80.9855 36.0355 79.9707C36.0277 79.7347 35.9273 79.511 35.7555 79.347C35.5838 79.1831 35.3543 79.0919 35.1157 79.0928C35.0736 79.0928 35.0375 79.0631 35.0375 79.0214C35.0367 79.0115 35.038 79.0016 35.0412 78.9922C35.0445 78.9829 35.0496 78.9743 35.0564 78.967C35.0632 78.9597 35.0714 78.9539 35.0806 78.95C35.0898 78.946 35.0997 78.944 35.1097 78.944C35.3848 78.9443 35.6493 79.0486 35.8494 79.2356C36.0494 79.4225 36.1697 79.678 36.1858 79.9499C36.3061 80.8427 36.9884 80.9439 36.9944 80.9469C37.0138 80.9491 37.0316 80.9588 37.044 80.9738C37.0563 80.9888 37.0623 81.0079 37.0606 81.0272C37.0576 81.0467 37.0472 81.0643 37.0316 81.0765C37.0159 81.0886 36.9962 81.0944 36.9764 81.0927Z" fill="#263238"/>
<path d="M32.5633 82.054C32.5439 82.054 32.5252 82.0466 32.5112 82.0332C32.4972 82.0199 32.4889 82.0018 32.4881 81.9826C32.4718 81.4604 32.6653 80.9531 33.0262 80.5719C33.0962 80.511 33.1529 80.4366 33.1927 80.3531C33.2325 80.2697 33.2546 80.1791 33.2577 80.0869C33.2422 79.8999 33.1614 79.7242 33.0292 79.5899C33.0205 79.5837 33.0131 79.5758 33.0077 79.5666C33.0023 79.5574 32.999 79.5471 32.998 79.5365C32.9969 79.5259 32.9982 79.5152 33.0016 79.5052C33.0051 79.4951 33.0107 79.4859 33.0181 79.4781C33.0255 79.4704 33.0345 79.4643 33.0444 79.4603C33.0544 79.4563 33.0651 79.4545 33.0758 79.4549C33.0866 79.4553 33.0971 79.458 33.1067 79.4628C33.1163 79.4676 33.1247 79.4744 33.1314 79.4827C33.2943 79.6408 33.3927 79.8527 33.408 80.0779C33.4056 80.1903 33.3801 80.3011 33.3331 80.4034C33.2861 80.5058 33.2185 80.5975 33.1344 80.6731C32.8054 81.0244 32.6274 81.4887 32.6384 81.9677C32.6393 81.9872 32.6327 82.0064 32.6199 82.0213C32.607 82.0362 32.589 82.0458 32.5693 82.048L32.5633 82.054Z" fill="#263238"/>
<path d="M25.1083 77.3728C27.2636 75.6586 26.446 85.3037 27.462 87.491C28.478 89.6784 34.5381 94.8804 34.5381 94.8804L33.2365 96.3267C33.2365 96.3267 25.8418 92.2883 24.8197 89.5802C23.4881 86.1519 23.5151 78.6346 25.1083 77.3728Z" fill="#90C5F9"/>
<path opacity="0.5" d="M25.1083 77.3728C27.2636 75.6586 26.446 85.3037 27.462 87.491C28.478 89.6784 34.5381 94.8804 34.5381 94.8804L33.2365 96.3267C33.2365 96.3267 25.8418 92.2883 24.8197 89.5802C23.4881 86.1519 23.5151 78.6346 25.1083 77.3728Z" fill="white"/>
<path d="M34.5382 94.8931L35.3678 95.5865L34.2286 96.9614L33.2366 96.3395L34.5382 94.8931Z" fill="#90C5F9"/>
<path d="M127.32 27.4603V77.278C127.32 77.5535 127.265 77.8264 127.159 78.0809C127.052 78.3354 126.896 78.5667 126.7 78.7616C126.503 78.9564 126.269 79.1109 126.012 79.2164C125.755 79.3218 125.479 79.3761 125.201 79.3761H53.9593C53.397 79.3761 52.8576 79.1551 52.4597 78.7617C52.0618 78.3684 51.8379 77.8347 51.8371 77.278V27.4603C51.8371 26.9031 52.0607 26.3687 52.4587 25.9746C52.8567 25.5806 53.3965 25.3593 53.9593 25.3593H125.201C125.763 25.36 126.302 25.5817 126.7 25.9757C127.097 26.3696 127.32 26.9036 127.32 27.4603Z" fill="#90C5F9"/>
<path opacity="0.8" d="M127.32 27.4603V77.278C127.32 77.5535 127.265 77.8264 127.159 78.0809C127.052 78.3354 126.896 78.5667 126.7 78.7616C126.503 78.9564 126.269 79.1109 126.012 79.2164C125.755 79.3218 125.479 79.3761 125.201 79.3761H53.9593C53.397 79.3761 52.8576 79.1551 52.4597 78.7617C52.0618 78.3684 51.8379 77.8347 51.8371 77.278V27.4603C51.8371 26.9031 52.0607 26.3687 52.4587 25.9746C52.8567 25.5806 53.3965 25.3593 53.9593 25.3593H125.201C125.763 25.36 126.302 25.5817 126.7 25.9757C127.097 26.3696 127.32 26.9036 127.32 27.4603Z" fill="white"/>
<path opacity="0.1" d="M127.321 27.4603V31.329H51.8434V27.4603C51.8434 26.9031 52.067 26.3687 52.465 25.9746C52.863 25.5806 53.4028 25.3593 53.9657 25.3593H125.207C125.769 25.3616 126.306 25.584 126.702 25.9778C127.098 26.3715 127.321 26.9046 127.321 27.4603Z" fill="black"/>
<path opacity="0.4" d="M124.816 28.5548C124.817 28.774 124.751 28.9885 124.629 29.171C124.506 29.3535 124.331 29.4959 124.127 29.58C123.923 29.6642 123.697 29.6864 123.48 29.6437C123.263 29.6011 123.064 29.4956 122.907 29.3406C122.75 29.1856 122.644 28.9881 122.601 28.7731C122.558 28.558 122.58 28.3352 122.665 28.1328C122.75 27.9304 122.894 27.7575 123.078 27.6361C123.263 27.5147 123.479 27.4502 123.701 27.4507C123.997 27.4507 124.28 27.5671 124.489 27.7741C124.698 27.9812 124.816 28.262 124.816 28.5548Z" fill="#90C5F9"/>
<path opacity="0.4" d="M120.758 28.5548C120.759 28.774 120.694 28.9885 120.571 29.171C120.449 29.3535 120.274 29.4959 120.07 29.58C119.865 29.6642 119.64 29.6864 119.423 29.6437C119.206 29.6011 119.006 29.4956 118.849 29.3406C118.693 29.1856 118.586 28.9881 118.543 28.7731C118.5 28.558 118.523 28.3352 118.608 28.1328C118.693 27.9304 118.836 27.7575 119.021 27.6361C119.205 27.5147 119.422 27.4502 119.643 27.4507C119.939 27.4507 120.223 27.5671 120.432 27.7741C120.641 27.9812 120.758 28.262 120.758 28.5548Z" fill="#90C5F9"/>
<path opacity="0.4" d="M116.7 28.5548C116.701 28.774 116.636 28.9885 116.513 29.171C116.39 29.3535 116.216 29.4959 116.011 29.58C115.807 29.6642 115.582 29.6864 115.365 29.6437C115.147 29.6011 114.948 29.4956 114.791 29.3406C114.635 29.1856 114.528 28.9881 114.485 28.7731C114.442 28.558 114.464 28.3352 114.549 28.1328C114.634 27.9304 114.778 27.7575 114.963 27.6361C115.147 27.5147 115.364 27.4502 115.585 27.4507C115.881 27.4507 116.164 27.5671 116.374 27.7741C116.583 27.9812 116.7 28.262 116.7 28.5548Z" fill="#90C5F9"/>
<path opacity="0.4" d="M125.938 33.8853H53.199V37.9653H125.938V33.8853Z" fill="white"/>
<path opacity="0.4" d="M125.938 39.2448H53.2261V74.5576H125.938V39.2448Z" fill="white"/>
<path d="M111.293 22.2352L126.732 22.2352V9.60522L111.293 9.60522V22.2352Z" fill="#90C5F9"/>
<path opacity="0.6" d="M111.293 9.60516V22.2352H126.732V9.60516H111.293ZM111.795 10.1051H126.224V21.7352H111.795V10.1051Z" fill="white"/>
<path opacity="0.4" d="M111.293 22.2352L126.732 22.2352V9.60522L111.293 9.60522V22.2352Z" fill="white"/>
<path opacity="0.3" d="M126.23 18.2898L121.802 15.1055L118.516 18.2898L115.228 16.4298L111.795 18.5189V21.7359H126.23V18.2898Z" fill="white"/>
<path opacity="0.6" d="M116.86 14.0217C117.445 14.0217 117.918 13.5527 117.918 12.9741C117.918 12.3956 117.445 11.9266 116.86 11.9266C116.276 11.9266 115.802 12.3956 115.802 12.9741C115.802 13.5527 116.276 14.0217 116.86 14.0217Z" fill="white"/>
<path d="M107.243 70.58H88.5702V85.8556H107.243V70.58Z" fill="#90C5F9"/>
<path opacity="0.6" d="M88.5702 70.58V85.8556H107.243V70.58H88.5702ZM106.636 85.2515H89.1774V71.1811H106.636V85.2515Z" fill="white"/>
<path opacity="0.2" d="M89.1812 79.4658L92.7253 75.9185L95.7042 79.2158L97.619 78.2159L99.2332 79.8825L100.511 79.2158L102.143 80.677H106.637V85.2511H89.1812V79.4658Z" fill="white"/>
<path opacity="0.6" d="M100.908 73.4492C100.982 73.6414 101.008 73.8488 100.983 74.0532C100.958 74.2576 100.883 74.4529 100.764 74.6221C100.646 74.7913 100.488 74.9294 100.303 75.0242C100.118 75.119 99.9131 75.1678 99.7051 75.1663C99.5703 75.1671 99.4363 75.146 99.3083 75.1038C99.3855 75.3032 99.5124 75.48 99.6772 75.6177C99.842 75.7555 100.039 75.8497 100.251 75.8915C100.462 75.9334 100.681 75.9215 100.887 75.8571C101.092 75.7927 101.278 75.6778 101.427 75.5231C101.576 75.3684 101.682 75.1789 101.737 74.9724C101.792 74.7659 101.793 74.549 101.74 74.3419C101.687 74.1349 101.582 73.9445 101.435 73.7883C101.288 73.6322 101.104 73.5155 100.899 73.4492H100.908Z" fill="white"/>
<path opacity="0.2" d="M100.811 85.26H89.1779V79.4658L92.725 75.9185L95.7039 79.2158L97.6217 78.2159L99.2329 79.8795L100.51 79.2158L102.143 80.677C102.143 80.677 96.8221 81.5698 96.8732 83.153C96.9243 84.7363 100.811 85.26 100.811 85.26Z" fill="white"/>
<path d="M121.58 39.7542H96.6213V60.1723H121.58V39.7542Z" fill="#90C5F9"/>
<path opacity="0.6" d="M96.6213 39.7542V60.1723H121.571V39.7542H96.6213ZM120.768 59.3688H97.4359V40.5606H120.768V59.3688Z" fill="white"/>
<path opacity="0.2" d="M97.4354 50.8631L101.746 47.4883L107.151 51.5922L114.049 46.1224L120.768 51.0297V59.3654H97.4354V50.8631Z" fill="white"/>
<path opacity="0.2" d="M120.765 54.0397H97.4354V59.3667H120.765V54.0397Z" fill="white"/>
<path opacity="0.2" d="M107.578 54.0397L112.234 59.3667H116.575L107.578 54.0397Z" fill="white"/>
<path opacity="0.6" d="M106.814 47.1845C107.551 47.1845 108.149 46.593 108.149 45.8632C108.149 45.1335 107.551 44.5419 106.814 44.5419C106.077 44.5419 105.479 45.1335 105.479 45.8632C105.479 46.593 106.077 47.1845 106.814 47.1845Z" fill="white"/>
<path d="M47.2988 48.186H63.501V34.931H47.2988V48.186Z" fill="#90C5F9"/>
<path opacity="0.6" d="M47.2958 34.9332V48.1882H63.501V34.9332H47.2958ZM47.8248 35.457H62.972V47.6585H47.8248V35.457Z" fill="white"/>
<path opacity="0.4" d="M47.2988 48.186H63.501V34.931H47.2988V48.186Z" fill="white"/>
<path opacity="0.2" d="M62.9717 42.1433L60.1731 39.953L56.6651 42.6165L52.1862 39.0662L47.8246 42.2504V47.6637H62.9717V42.1433Z" fill="white"/>
<path opacity="0.2" d="M62.9717 44.2039H47.8246V47.6619H62.9717V44.2039Z" fill="white"/>
<path opacity="0.2" d="M56.3857 44.2039L53.3647 47.6649H50.5451L56.3857 44.2039Z" fill="white"/>
<path opacity="0.6" d="M56.0165 38.8977C56.0165 39.0672 56.0673 39.2329 56.1624 39.3738C56.2575 39.5148 56.3927 39.6246 56.5509 39.6895C56.7091 39.7544 56.8832 39.7713 57.0511 39.7383C57.219 39.7052 57.3733 39.6236 57.4944 39.5037C57.6154 39.3838 57.6979 39.2311 57.7313 39.0649C57.7647 38.8986 57.7475 38.7263 57.682 38.5697C57.6165 38.4131 57.5055 38.2792 57.3632 38.185C57.2208 38.0909 57.0534 38.0406 56.8822 38.0406C56.6526 38.0406 56.4324 38.1309 56.27 38.2916C56.1077 38.4524 56.0165 38.6704 56.0165 38.8977Z" fill="white"/>
<path d="M102.527 12.9631H65.6679V43.1156H102.527V12.9631Z" fill="#90C5F9"/>
<path opacity="0.6" d="M65.6679 12.9631V43.1156H102.527V12.9631H65.6679ZM101.325 41.9252H66.8703V14.1535H101.325V41.9252Z" fill="white"/>
<path opacity="0.3" d="M66.8708 33.6963L77.4368 26.0956L85.2854 33.6963L93.134 29.2502L101.325 34.2468V41.9248H66.8708V33.6963Z" fill="white"/>
<path opacity="0.6" d="M91.7602 21.0035C91.7602 21.498 91.6121 21.9813 91.3347 22.3924C91.0572 22.8035 90.6628 23.1239 90.2015 23.3131C89.7401 23.5023 89.2324 23.5518 88.7426 23.4553C88.2528 23.3589 87.8028 23.1208 87.4497 22.7712C87.0966 22.4216 86.8561 21.9761 86.7587 21.4912C86.6612 21.0063 86.7112 20.5037 86.9024 20.0469C87.0935 19.5901 87.4171 19.1997 87.8323 18.925C88.2476 18.6503 88.7358 18.5037 89.2352 18.5037C89.9049 18.5037 90.5471 18.7671 91.0206 19.2359C91.4942 19.7047 91.7602 20.3405 91.7602 21.0035Z" fill="white"/>
<path d="M58.9198 71.6947C58.1375 71.7122 57.3595 71.5748 56.6316 71.2905C55.9036 71.0062 55.2404 70.5808 54.6809 70.0392C54.1213 69.4977 53.6767 68.8509 53.3732 68.1368C53.0696 67.4228 52.9133 66.6559 52.9133 65.8811C52.9133 65.1064 53.0696 64.3395 53.3732 63.6255C53.6767 62.9114 54.1213 62.2646 54.6809 61.723C55.2404 61.1815 55.9036 60.756 56.6316 60.4718C57.3595 60.1875 58.1375 60.0501 58.9198 60.0676H79.0599C80.5943 60.102 82.0541 60.7296 83.1271 61.8161C84.2 62.9026 84.8007 64.3617 84.8007 65.8811C84.8007 67.4006 84.2 68.8597 83.1271 69.9462C82.0541 71.0327 80.5943 71.6603 79.0599 71.6947H58.9198Z" fill="#90C5F9"/>
<path opacity="0.6" d="M58.9198 71.6947C58.1375 71.7122 57.3595 71.5748 56.6316 71.2905C55.9036 71.0062 55.2404 70.5808 54.6809 70.0392C54.1213 69.4977 53.6767 68.8509 53.3732 68.1368C53.0696 67.4228 52.9133 66.6559 52.9133 65.8811C52.9133 65.1064 53.0696 64.3395 53.3732 63.6255C53.6767 62.9114 54.1213 62.2646 54.6809 61.723C55.2404 61.1815 55.9036 60.756 56.6316 60.4718C57.3595 60.1875 58.1375 60.0501 58.9198 60.0676H79.0599C80.5943 60.102 82.0541 60.7296 83.1271 61.8161C84.2 62.9026 84.8007 64.3617 84.8007 65.8811C84.8007 67.4006 84.2 68.8597 83.1271 69.9462C82.0541 71.0327 80.5943 71.6603 79.0599 71.6947H58.9198Z" fill="white"/>
<path d="M58.9199 71.0994C58.2171 71.116 57.518 70.9933 56.8638 70.7386C56.2096 70.4838 55.6135 70.1021 55.1105 69.6158C54.6075 69.1296 54.2079 68.5487 53.935 67.9073C53.6621 67.266 53.5215 66.577 53.5215 65.881C53.5215 65.1851 53.6621 64.4961 53.935 63.8547C54.2079 63.2133 54.6075 62.6325 55.1105 62.1463C55.6135 61.66 56.2096 61.2783 56.8638 61.0235C57.518 60.7688 58.2171 60.6461 58.9199 60.6627H79.0599C80.4361 60.6952 81.7448 61.2593 82.7065 62.2344C83.6682 63.2095 84.2065 64.5182 84.2065 65.881C84.2065 67.2439 83.6682 68.5526 82.7065 69.5277C81.7448 70.5028 80.4361 71.0669 79.0599 71.0994H58.9199Z" fill="#90C5F9"/>
<path opacity="0.4" d="M58.9199 71.0994C58.2171 71.116 57.518 70.9933 56.8638 70.7386C56.2096 70.4838 55.6135 70.1021 55.1105 69.6158C54.6075 69.1296 54.2079 68.5487 53.935 67.9073C53.6621 67.266 53.5215 66.577 53.5215 65.881C53.5215 65.1851 53.6621 64.4961 53.935 63.8547C54.2079 63.2133 54.6075 62.6325 55.1105 62.1463C55.6135 61.66 56.2096 61.2783 56.8638 61.0235C57.518 60.7688 58.2171 60.6461 58.9199 60.6627H79.0599C80.4361 60.6952 81.7448 61.2593 82.7065 62.2344C83.6682 63.2095 84.2065 64.5182 84.2065 65.881C84.2065 67.2439 83.6682 68.5526 82.7065 69.5277C81.7448 70.5028 80.4361 71.0669 79.0599 71.0994H58.9199Z" fill="white"/>
<path d="M79.0507 61.2578H58.9167C56.3368 61.2578 54.2454 63.3277 54.2454 65.881C54.2454 68.4343 56.3368 70.5041 58.9167 70.5041H79.0507C81.6306 70.5041 83.722 68.4343 83.722 65.881C83.722 63.3277 81.6306 61.2578 79.0507 61.2578Z" fill="#90C5F9"/>
<path d="M59.1722 64.426H59.7554V66.4527H61.0239V66.9258H59.1753L59.1722 64.426Z" fill="white"/>
<path d="M61.1504 65.962C61.1365 65.7506 61.1871 65.5401 61.2956 65.3576C61.4042 65.1751 61.5656 65.0291 61.7589 64.9385C61.9523 64.8479 62.1687 64.817 62.38 64.8497C62.5914 64.8824 62.7879 64.9772 62.9442 65.1219C63.1004 65.2665 63.2091 65.4543 63.2562 65.6609C63.3033 65.8675 63.2866 66.0833 63.2083 66.2804C63.1299 66.4774 62.9936 66.6467 62.8169 66.7661C62.6402 66.8855 62.4314 66.9495 62.2175 66.95C62.0807 66.9594 61.9435 66.9408 61.8143 66.8954C61.6851 66.8499 61.5668 66.7786 61.4667 66.6859C61.3666 66.5932 61.2868 66.4811 61.2324 66.3566C61.178 66.232 61.15 66.0977 61.1504 65.962ZM62.7135 65.962C62.703 65.8667 62.6647 65.7766 62.6034 65.7025C62.5421 65.6284 62.4603 65.5735 62.368 65.5446C62.2758 65.5157 62.177 65.514 62.0838 65.5396C61.9906 65.5653 61.9069 65.6172 61.8429 65.6892C61.779 65.7611 61.7375 65.8498 61.7236 65.9446C61.7097 66.0394 61.724 66.1362 61.7646 66.2231C61.8053 66.3101 61.8706 66.3834 61.9526 66.4343C62.0346 66.4851 62.1298 66.5113 62.2265 66.5095C62.2963 66.5097 62.3653 66.4951 62.4289 66.4667C62.4925 66.4383 62.5492 66.3968 62.5953 66.345C62.6414 66.2932 62.6758 66.2322 62.6962 66.1661C62.7166 66.1 62.7225 66.0304 62.7135 65.962Z" fill="white"/>
<path d="M65.3411 65.8296V66.9248H64.8151V66.6837C64.7495 66.7789 64.6587 66.8543 64.5526 66.9015C64.4465 66.9488 64.3293 66.9661 64.2139 66.9516C63.757 66.9516 63.4894 66.7016 63.4894 66.3564C63.4894 66.0112 63.7299 65.782 64.3221 65.782H64.767C64.767 65.541 64.6227 65.4041 64.3221 65.4041C64.1208 65.4001 63.924 65.463 63.763 65.5826L63.5616 65.1928C63.811 65.0357 64.1017 64.955 64.3972 64.9607C64.9984 64.9755 65.3411 65.2464 65.3411 65.8296ZM64.779 66.3177V66.1213H64.3942C64.1297 66.1213 64.0486 66.2165 64.0486 66.3475C64.0486 66.4784 64.1658 66.5766 64.3642 66.5766C64.4523 66.5837 64.5404 66.5623 64.6152 66.5156C64.69 66.4689 64.7474 66.3995 64.779 66.3177Z" fill="white"/>
<path d="M67.8478 64.2753V66.9239H67.3127V66.7007C67.2382 66.7847 67.1453 66.8509 67.0412 66.8942C66.937 66.9375 66.8243 66.9568 66.7115 66.9507C66.4468 66.9507 66.193 66.8466 66.0058 66.6613C65.8187 66.476 65.7135 66.2247 65.7135 65.9626C65.7135 65.7006 65.8187 65.4493 66.0058 65.264C66.193 65.0787 66.4468 64.9746 66.7115 64.9746C66.8195 64.9692 66.9273 64.9871 67.0275 65.0272C67.1277 65.0673 67.2179 65.1286 67.2917 65.2067V64.2753H67.8478ZM67.2977 65.9626C67.2901 65.8667 67.2543 65.775 67.1948 65.6989C67.1353 65.6228 67.0546 65.5656 66.9627 65.5343C66.8708 65.5029 66.7716 65.4989 66.6774 65.5225C66.5832 65.5462 66.498 65.5967 66.4323 65.6676C66.3666 65.7386 66.3233 65.827 66.3077 65.922C66.2921 66.017 66.3048 66.1144 66.3444 66.2024C66.384 66.2903 66.4486 66.3648 66.5304 66.4169C66.6121 66.4689 66.7075 66.4962 66.8047 66.4953C66.8736 66.4961 66.9418 66.4825 67.005 66.4554C67.0681 66.4282 67.1248 66.3882 67.1713 66.338C67.2179 66.2877 67.2532 66.2283 67.2749 66.1636C67.2967 66.099 67.3044 66.0305 67.2977 65.9626Z" fill="white"/>
<path d="M72.6663 65.8229V66.924H72.1042V65.9151C72.1042 65.6175 71.9629 65.4628 71.7374 65.4628C71.512 65.4628 71.3076 65.6235 71.3076 65.9657V66.9299H70.7455V65.9151C70.7455 65.6175 70.6132 65.4628 70.3787 65.4628C70.1443 65.4628 69.9519 65.6235 69.9519 65.9657V66.9299H69.3898V65.0104H69.9278V65.2306C70.0042 65.1489 70.0974 65.0843 70.2011 65.0412C70.3048 64.998 70.4166 64.9774 70.529 64.9807C70.6538 64.9744 70.7781 64.9999 70.8902 65.0546C71.0022 65.1093 71.0983 65.1914 71.1693 65.2931C71.254 65.1921 71.3608 65.1115 71.4816 65.0574C71.6025 65.0032 71.7341 64.977 71.8667 64.9807C72.3356 64.9747 72.6663 65.2396 72.6663 65.8229Z" fill="white"/>
<path d="M73.0474 65.962C73.0335 65.7506 73.0841 65.5401 73.1926 65.3576C73.3012 65.1751 73.4626 65.0291 73.6559 64.9385C73.8493 64.8479 74.0657 64.817 74.277 64.8497C74.4884 64.8824 74.6849 64.9772 74.8412 65.1219C74.9974 65.2665 75.1061 65.4543 75.1532 65.6609C75.2003 65.8675 75.1836 66.0833 75.1053 66.2804C75.0269 66.4774 74.8906 66.6467 74.7139 66.7661C74.5372 66.8855 74.3284 66.9495 74.1145 66.95C73.9777 66.9594 73.8405 66.9408 73.7113 66.8954C73.5821 66.8499 73.4638 66.7786 73.3637 66.6859C73.2636 66.5932 73.1838 66.4811 73.1294 66.3566C73.075 66.232 73.047 66.0977 73.0474 65.962ZM74.6075 65.962C74.5993 65.8669 74.5633 65.7763 74.504 65.7011C74.4446 65.626 74.3644 65.5696 74.2732 65.5388C74.182 65.5081 74.0837 65.5043 73.9904 65.5279C73.897 65.5515 73.8127 65.6016 73.7476 65.6719C73.6825 65.7422 73.6395 65.8298 73.6239 65.924C73.6082 66.0181 73.6206 66.1147 73.6596 66.2019C73.6985 66.2892 73.7622 66.3634 73.843 66.4154C73.9238 66.4673 74.0181 66.4949 74.1145 66.4947C74.1837 66.4963 74.2525 66.4833 74.3163 66.4565C74.3801 66.4298 74.4373 66.3899 74.4843 66.3394C74.5312 66.289 74.5668 66.2293 74.5885 66.1642C74.6103 66.0991 74.6178 66.0301 74.6105 65.962H74.6075Z" fill="white"/>
<path d="M76.7635 64.9749V65.4898H76.6373C76.5656 65.4833 76.4934 65.4929 76.426 65.5179C76.3587 65.5429 76.2979 65.5826 76.2482 65.6341C76.1985 65.6856 76.1611 65.7475 76.139 65.8153C76.1168 65.8831 76.1104 65.9549 76.1202 66.0255V66.9331H75.5581V65.0136H76.0962V65.2666C76.1747 65.1675 76.2767 65.0891 76.393 65.0382C76.5094 64.9874 76.6366 64.9656 76.7635 64.9749Z" fill="white"/>
<path d="M78.97 66.1193H77.5031C77.5329 66.2386 77.6053 66.3433 77.707 66.4138C77.8086 66.4844 77.9327 66.5161 78.0562 66.5032C78.1458 66.5073 78.2353 66.493 78.3191 66.4612C78.4029 66.4295 78.4791 66.3809 78.5431 66.3187L78.8437 66.6401C78.7401 66.744 78.615 66.8245 78.477 66.8758C78.3389 66.9272 78.1912 66.9483 78.0441 66.9377C77.3738 66.9377 76.9349 66.5211 76.9349 65.9497C76.9335 65.8162 76.9597 65.6839 77.0118 65.5609C77.064 65.4378 77.141 65.3266 77.2381 65.2341C77.3352 65.1416 77.4504 65.0697 77.5766 65.0228C77.7028 64.976 77.8374 64.9552 77.972 64.9616C78.1061 64.9548 78.2401 64.9759 78.3654 65.0236C78.4907 65.0713 78.6045 65.1445 78.6994 65.2384C78.7943 65.3324 78.8683 65.4451 78.9164 65.5691C78.9646 65.6932 78.9859 65.8259 78.979 65.9586C78.979 66.0122 78.973 66.0717 78.97 66.1193ZM77.494 65.7949H78.459C78.4409 65.6823 78.3828 65.5798 78.2952 65.5058C78.2076 65.4317 78.0962 65.3911 77.981 65.3911C77.8658 65.3911 77.7544 65.4317 77.6668 65.5058C77.5792 65.5798 77.5212 65.6823 77.5031 65.7949H77.494Z" fill="white"/>
</svg>
