<svg width="125" height="130" viewBox="0 0 125 130" fill="none" xmlns="http://www.w3.org/2000/svg">
<path d="M62.4551 129.107C96.7349 129.107 124.524 113.063 124.524 93.2713C124.524 73.48 96.7349 57.436 62.4551 57.436C28.1754 57.436 0.386108 73.48 0.386108 93.2713C0.386108 113.063 28.1754 129.107 62.4551 129.107Z" fill="#F5F5F5"/>
<path d="M101.963 111.981C110.237 111.981 116.945 108.109 116.945 103.332C116.945 98.5551 110.237 94.6827 101.963 94.6827C93.6881 94.6827 86.9803 98.5551 86.9803 103.332C86.9803 108.109 93.6881 111.981 101.963 111.981Z" fill="#E0E0E0"/>
<path d="M87.3855 98.515L51.4453 119.255C50.4333 119.839 48.6672 119.765 47.4992 119.09L9.42152 97.0721C8.25356 96.3974 8.12883 95.3712 9.13804 94.8042L45.0783 74.0418C46.0903 73.4578 47.8564 73.5315 49.0244 74.2062L87.1021 96.2245C88.27 96.8963 88.3948 97.9169 87.3855 98.515Z" fill="#E0E0E0"/>
<path d="M98.3382 14.8158L100.226 15.8874V15.2212C100.226 15.173 100.226 15.1248 100.226 15.0795C100.226 15.0341 100.226 14.9888 100.226 14.9434V14.9264C100.294 14.0391 100.963 13.6989 101.783 14.1723C102.152 14.4015 102.468 14.7069 102.71 15.0681C102.894 13.8662 103.875 13.4324 105.062 14.1156C106.381 14.8782 107.447 16.7265 107.447 18.2488V19.6663C107.446 19.7806 107.475 19.8931 107.531 19.9926C107.587 20.0921 107.669 20.1751 107.767 20.2332L108.878 20.8853C109.119 21.0263 109.319 21.228 109.458 21.4702C109.596 21.7124 109.669 21.9867 109.669 22.2658C109.669 22.3815 109.638 22.495 109.58 22.595C109.522 22.6951 109.439 22.778 109.338 22.8355C109.238 22.893 109.124 22.923 109.009 22.9225C108.893 22.9221 108.78 22.8911 108.68 22.8328L98.3666 16.8711C98.0928 16.7131 97.8654 16.4858 97.7072 16.2121C97.549 15.9385 97.4655 15.628 97.4651 15.3119C97.467 15.2107 97.4953 15.1116 97.5471 15.0246C97.5989 14.9375 97.6724 14.8654 97.7605 14.8154C97.8485 14.7654 97.9481 14.7391 98.0494 14.7392C98.1507 14.7392 98.2502 14.7657 98.3382 14.8158Z" fill="#E6E6E6"/>
<path d="M91.053 5.30206L92.3627 6.0448V5.58271C92.3627 5.5487 92.3627 5.51751 92.3627 5.4835C92.3627 5.44948 92.3627 5.42113 92.3627 5.38994C92.4109 4.77762 92.8758 4.53949 93.4428 4.86833C93.6999 5.02707 93.9202 5.2387 94.0892 5.48916C94.2167 4.65572 94.8971 4.35523 95.7192 4.82864C96.2008 5.14288 96.6016 5.56607 96.8892 6.06399C97.1768 6.5619 97.3431 7.12053 97.3747 7.69468V8.68687C97.3744 8.76564 97.3949 8.84309 97.4342 8.91132C97.4736 8.97955 97.5303 9.03612 97.5987 9.07525L98.3669 9.52882C98.5342 9.62671 98.673 9.76664 98.7694 9.93473C98.8659 10.1028 98.9167 10.2932 98.9169 10.487C98.9168 10.5672 98.8956 10.646 98.8554 10.7154C98.8152 10.7848 98.7574 10.8424 98.6878 10.8824C98.6183 10.9223 98.5394 10.9432 98.4592 10.943C98.3789 10.9428 98.3002 10.9214 98.2309 10.881L91.087 6.7365C90.8976 6.62614 90.7404 6.46811 90.631 6.27812C90.5215 6.08814 90.4638 5.87282 90.4634 5.65359C90.4642 5.58471 90.4827 5.5172 90.5171 5.45752C90.5515 5.39784 90.6006 5.34798 90.6598 5.31271C90.7189 5.27744 90.7862 5.25794 90.855 5.25607C90.9239 5.25421 90.992 5.27004 91.053 5.30206Z" fill="#E6E6E6"/>
<path d="M9.9561 88.5937L5.70383 91.0912C5.70383 91.0912 3.75912 90.8077 3.90653 88.9736C4.05395 87.1394 4.84203 86.7057 3.86118 85.9091C2.88032 85.1125 2.62235 85.0586 2.67054 84.2621C2.71873 83.4655 3.23751 83.1281 3.49548 82.8191C3.75345 82.5101 4.44232 81.8524 3.95189 80.8999C3.46146 79.9474 2.79811 79.0318 3.78464 78.5952C4.37145 78.3372 5.36081 78.6604 6.01566 79.3578C6.67051 80.0551 7.21197 80.5541 7.82996 80.7128C8.44796 80.8716 9.74632 80.8886 9.7038 81.9573C9.66128 83.0261 9.38063 83.3974 9.64143 83.8708C10.1347 84.7581 12.2211 85.2401 9.9561 88.5937Z" fill="#90C5F9"/>
<path opacity="0.2" d="M9.9561 88.5937L5.70383 91.0912C5.70383 91.0912 3.75912 90.8077 3.90653 88.9736C4.05395 87.1394 4.84203 86.7057 3.86118 85.9091C2.88032 85.1125 2.62235 85.0586 2.67054 84.2621C2.71873 83.4655 3.23751 83.1281 3.49548 82.8191C3.75345 82.5101 4.44232 81.8524 3.95189 80.8999C3.46146 79.9474 2.79811 79.0318 3.78464 78.5952C4.37145 78.3372 5.36081 78.6604 6.01566 79.3578C6.67051 80.0551 7.21197 80.5541 7.82996 80.7128C8.44796 80.8716 9.74632 80.8886 9.7038 81.9573C9.66128 83.0261 9.38063 83.3974 9.64143 83.8708C10.1347 84.7581 12.2211 85.2401 9.9561 88.5937Z" fill="black"/>
<path d="M8.22689 89.7051C8.2136 89.7044 8.20058 89.701 8.18862 89.6952C8.17666 89.6893 8.166 89.6811 8.15727 89.6711C8.14854 89.661 8.14192 89.6493 8.13781 89.6367C8.1337 89.624 8.13218 89.6106 8.13334 89.5974C8.13334 89.535 8.58975 83.304 4.26944 79.219C4.25027 79.2006 4.2392 79.1753 4.23867 79.1487C4.23814 79.1221 4.24819 79.0964 4.26661 79.0772C4.28503 79.0581 4.31031 79.047 4.33689 79.0465C4.36347 79.0459 4.38918 79.056 4.40835 79.0744C8.80236 83.2246 8.34028 89.5492 8.33461 89.6144C8.33175 89.6404 8.31896 89.6644 8.29891 89.6813C8.27885 89.6982 8.25306 89.7067 8.22689 89.7051Z" fill="white"/>
<path d="M7.4586 84.2796C7.44517 84.2793 7.43195 84.2762 7.41979 84.2705C7.40763 84.2648 7.3968 84.2566 7.38799 84.2465C7.37918 84.2363 7.37259 84.2245 7.36864 84.2116C7.36469 84.1988 7.36347 84.1853 7.36505 84.1719C7.3968 83.6532 7.5359 83.1468 7.77354 82.6847C8.01119 82.2226 8.3422 81.8148 8.74562 81.4873C8.76738 81.4768 8.79216 81.4743 8.81557 81.4803C8.83897 81.4864 8.85948 81.5005 8.87343 81.5203C8.88738 81.54 8.89387 81.564 8.89175 81.5881C8.88963 81.6122 8.87904 81.6347 8.86185 81.6517C8.48625 81.965 8.17786 82.3511 7.95523 82.7866C7.73259 83.2221 7.60031 83.6981 7.56633 84.1861C7.56415 84.2127 7.55166 84.2373 7.53153 84.2548C7.5114 84.2723 7.48522 84.2812 7.4586 84.2796Z" fill="white"/>
<path d="M7.77888 85.3597C7.76444 85.3598 7.75016 85.3568 7.73696 85.3509C7.72377 85.3451 7.71197 85.3365 7.70234 85.3257C7.70234 85.3257 6.61943 84.1634 4.18146 84.4979C4.16841 84.4999 4.1551 84.4993 4.14229 84.4961C4.12949 84.4929 4.11745 84.4871 4.10689 84.4792C4.09633 84.4713 4.08746 84.4614 4.08079 84.45C4.07413 84.4386 4.0698 84.426 4.06807 84.4129C4.06399 84.3862 4.07065 84.359 4.08659 84.3372C4.10253 84.3154 4.12645 84.3008 4.15311 84.2966C6.70447 83.948 7.80723 85.1471 7.83841 85.1896C7.84784 85.1989 7.85533 85.2099 7.86045 85.2221C7.86556 85.2342 7.86819 85.2473 7.86819 85.2605C7.86819 85.2737 7.86556 85.2868 7.86045 85.2989C7.85533 85.3111 7.84784 85.3221 7.83841 85.3314C7.82252 85.3475 7.80144 85.3576 7.77888 85.3597Z" fill="white"/>
<path d="M11.9491 87.4175L9.3779 88.9114C9.3779 88.9114 10.6763 84.7726 9.94487 80.6082C9.77214 79.6269 9.41735 78.6865 8.89881 77.8357C8.69754 77.4161 7.14688 74.8166 8.51044 73.6203C9.874 72.424 13.0774 74.8052 12.9328 81.2177C12.8675 83.3175 12.537 85.4006 11.9491 87.4175Z" fill="#90C5F9"/>
<path opacity="0.5" d="M11.9491 87.4175L9.3779 88.9114C9.3779 88.9114 10.6763 84.7726 9.94487 80.6082C9.77214 79.6269 9.41735 78.6865 8.89881 77.8357C8.69754 77.4161 7.14688 74.8166 8.51044 73.6203C9.874 72.424 13.0774 74.8052 12.9328 81.2177C12.8675 83.3175 12.537 85.4006 11.9491 87.4175Z" fill="black"/>
<path d="M10.753 88.2141H10.719C10.694 88.2046 10.6737 88.1855 10.6625 88.1611C10.6514 88.1367 10.6503 88.1089 10.6595 88.0837C10.6595 88.0582 11.6262 85.3935 11.5752 81.1072C11.5241 76.8209 9.30727 74.587 9.27893 74.5587C9.2695 74.5494 9.26201 74.5384 9.25689 74.5262C9.25178 74.5141 9.24915 74.501 9.24915 74.4878C9.24915 74.4746 9.25178 74.4615 9.25689 74.4493C9.26201 74.4372 9.2695 74.4262 9.27893 74.4169C9.28841 74.4074 9.29967 74.3999 9.31208 74.3947C9.32448 74.3896 9.33778 74.3869 9.35121 74.3869C9.36465 74.3869 9.37795 74.3896 9.39035 74.3947C9.40276 74.3999 9.41402 74.4074 9.4235 74.4169C9.44618 74.4396 11.7311 76.7557 11.7821 81.1043C11.8331 85.453 10.8608 88.1206 10.8608 88.1489C10.8527 88.1703 10.8377 88.1883 10.8182 88.2001C10.7986 88.2119 10.7757 88.2169 10.753 88.2141Z" fill="white"/>
<path d="M56.4002 3.45718C56.3111 3.06974 56.1447 2.7043 55.9108 2.38278C55.677 2.06127 55.3806 1.79031 55.0395 1.58618L54.9232 1.51815C54.1 1.02825 53.1598 0.769682 52.2018 0.769746C51.8962 0.765613 51.5953 0.84501 51.3315 0.999368L18.2828 20.0836C17.2369 20.6866 16.4347 21.6362 16.015 22.7682C16.015 22.788 16.0008 22.805 15.9951 22.822C15.9333 22.9918 15.8812 23.1651 15.8392 23.3408C15.8392 23.3663 15.8392 23.3918 15.8193 23.4145C15.7797 23.5903 15.7485 23.7689 15.7258 23.9475V24.0155C15.7045 24.2038 15.6931 24.393 15.6918 24.5825V96.0547V96.65C15.6909 96.9353 15.7641 97.2159 15.9042 97.4643C16.0443 97.7128 16.2466 97.9206 16.4912 98.0674L17.8094 98.8498C18.2663 99.1224 18.7884 99.2664 19.3204 99.2666H19.9696C20.276 99.2701 20.5777 99.1907 20.8427 99.0369L53.88 79.9471C54.6705 79.491 55.3269 78.8349 55.7832 78.0446C56.2395 77.2544 56.4797 76.3579 56.4796 75.4453V4.11487V3.96745C56.4777 3.79444 56.451 3.62259 56.4002 3.45718ZM54.9544 2.28356C54.9176 2.28356 54.8779 2.28356 54.8382 2.28356C54.8779 2.27505 54.9176 2.28072 54.9544 2.28356ZM54.7503 2.28356C54.7097 2.28073 54.669 2.28073 54.6284 2.28356C54.6688 2.2779 54.7095 2.27505 54.7503 2.27505V2.28356ZM54.1295 2.41112C54.06 2.43902 53.9927 2.47219 53.9282 2.51034C53.9928 2.47317 54.0601 2.44094 54.1295 2.41396V2.41112Z" fill="#37474F"/>
<path d="M18.2797 26.0815C18.2792 25.1692 18.5193 24.273 18.9757 23.4831C19.4321 22.6932 20.0887 22.0377 20.8793 21.5826L53.928 2.5012C54.1482 2.37396 54.3942 2.29774 54.6479 2.27816C54.9015 2.25859 55.1563 2.29615 55.3935 2.38809C55.6307 2.48003 55.8442 2.624 56.0184 2.8094C56.1926 2.99481 56.323 3.21692 56.3999 3.45938C56.3109 3.07194 56.1444 2.70649 55.9106 2.38498C55.6767 2.06347 55.3804 1.79251 55.0392 1.58838L54.923 1.52034C54.0997 1.03044 53.1595 0.771879 52.2015 0.771943C51.8959 0.767811 51.595 0.847208 51.3312 1.00157L18.2826 20.0829C17.4918 20.5381 16.835 21.1936 16.3781 21.9834C15.9213 22.7732 15.6805 23.6694 15.6802 24.5818V96.0541C15.68 96.3527 15.7584 96.6462 15.9076 96.9049C16.0569 97.1636 16.2716 97.3785 16.5302 97.5279C16.7888 97.6773 17.0821 97.756 17.3808 97.7561C17.6795 97.7561 17.9729 97.6775 18.2315 97.5282L18.2741 97.5027L18.2797 26.0815Z" fill="#37484F"/>
<path d="M53.8798 79.9472L20.834 99.0285C20.5753 99.1779 20.2819 99.2565 19.9832 99.2564C19.6846 99.2564 19.3912 99.1777 19.1326 99.0283C18.874 98.8789 18.6593 98.664 18.5101 98.4053C18.3609 98.1465 18.2824 97.8531 18.2826 97.5544V26.0822C18.2821 25.17 18.5221 24.2737 18.9785 23.4838C19.4349 22.694 20.0915 22.0384 20.8821 21.5833L53.928 2.50193C54.1866 2.35259 54.48 2.274 54.7787 2.27405C55.0774 2.2741 55.3708 2.35278 55.6294 2.5022C55.888 2.65161 56.1027 2.86649 56.2519 3.12521C56.4011 3.38393 56.4795 3.67738 56.4793 3.97605V75.4454C56.4795 76.358 56.2393 77.2545 55.783 78.0447C55.3266 78.835 54.6702 79.4911 53.8798 79.9472Z" fill="#455A64"/>
<path d="M18.2797 97.5544V26.0821C18.2816 25.3033 18.459 24.535 18.7985 23.8341L16.2472 22.2579C15.8791 22.9798 15.6849 23.7778 15.6802 24.5882V96.65C15.6793 96.9353 15.7525 97.2159 15.8926 97.4644C16.0328 97.7129 16.235 97.9207 16.4796 98.0675L17.7978 98.8499C18.2547 99.1225 18.7768 99.2664 19.3088 99.2666H19.958C19.5088 99.2606 19.0803 99.0772 18.7659 98.7564C18.4515 98.4357 18.2767 98.0035 18.2797 97.5544Z" fill="#253239"/>
<path d="M52.7432 9.37097V69.4443C52.742 70.2487 52.5295 71.0387 52.127 71.7352C51.7245 72.4317 51.1462 73.0103 50.4498 73.413L21.265 90.2662C21.0457 90.3951 20.7965 90.4645 20.5421 90.4675C20.6267 90.6617 20.7514 90.836 20.908 90.9787C21.0646 91.1215 21.2495 91.2296 21.4507 91.2959C21.652 91.3623 21.8649 91.3854 22.0757 91.3638C22.2865 91.3422 22.4903 91.2763 22.6739 91.1705L51.8729 74.3202C52.5698 73.9181 53.1487 73.3397 53.5513 72.643C53.9538 71.9464 54.1659 71.156 54.1663 70.3514V10.8706C54.1661 10.486 54.0184 10.1161 53.7536 9.83711C53.4889 9.55813 53.1272 9.39129 52.7432 9.37097Z" fill="#37484F"/>
<path d="M20.5421 90.4675C20.7965 90.4645 21.0456 90.3951 21.265 90.2662L50.4639 73.4187C51.1603 73.016 51.7387 72.4374 52.1412 71.7409C52.5436 71.0444 52.7561 70.2544 52.7573 69.4499V9.37097C52.4626 9.37315 52.1721 9.44093 51.9068 9.56941L22.7136 26.4169C22.0172 26.8196 21.4388 27.3982 21.0363 28.0947C20.6338 28.7912 20.4214 29.5813 20.4202 30.3857V89.8693C20.4196 90.078 20.462 90.2845 20.5449 90.476L20.5421 90.4675Z" fill="#90C5F9"/>
<g opacity="0.5">
<path d="M20.5421 90.468C20.7965 90.465 21.0456 90.3956 21.265 90.2667L50.4639 73.4192C51.1603 73.0165 51.7387 72.4379 52.1412 71.7414C52.5436 71.0449 52.7561 70.2549 52.7573 69.4504V9.37146C52.4626 9.37363 52.1721 9.44142 51.9068 9.5699L22.7136 26.4174C22.0172 26.8201 21.4388 27.3987 21.0363 28.0952C20.6338 28.7917 20.4214 29.5818 20.4202 30.3862V89.8698C20.4196 90.0785 20.462 90.285 20.5449 90.4765L20.5421 90.468Z" fill="white"/>
</g>
<path d="M32.7541 17.6138C32.7443 17.796 32.6917 17.9733 32.6005 18.1314C32.5094 18.2895 32.3824 18.4239 32.2297 18.5238C31.9462 18.6911 31.7024 18.555 31.7024 18.2205C31.7123 18.038 31.7653 17.8604 31.8569 17.7023C31.9486 17.5441 32.0763 17.4099 32.2297 17.3105C32.5188 17.1546 32.7541 17.2765 32.7541 17.6138Z" fill="#253239"/>
<path d="M34.7104 16.486C34.7003 16.6685 34.6472 16.846 34.5556 17.0041C34.464 17.1622 34.3364 17.2965 34.1831 17.396C33.8997 17.5633 33.6587 17.4272 33.6587 17.0927C33.6686 16.9101 33.7211 16.7324 33.8122 16.5738C33.9033 16.4153 34.0304 16.2803 34.1831 16.1799C34.4751 16.0211 34.7104 16.1487 34.7104 16.486Z" fill="#253239"/>
<path d="M42.6113 12.5344L36.2556 16.2197C36.0033 16.3643 35.802 16.2197 35.802 15.8767C35.8037 15.7061 35.8457 15.5384 35.9245 15.3872C36.0034 15.2359 36.1168 15.1055 36.2556 15.0064L42.6113 11.3211C42.8636 11.1765 43.0677 11.3211 43.0677 11.6669C43.065 11.8372 43.0223 12.0044 42.943 12.1551C42.8637 12.3058 42.7501 12.4357 42.6113 12.5344Z" fill="#253239"/>
<path d="M41.5253 82.2012C41.9052 82.2012 42.149 82.6037 42.149 83.2274C42.149 84.2054 41.5367 85.3875 40.8138 85.8071L37.772 87.5619C37.6358 87.648 37.4794 87.6968 37.3184 87.7036C36.9386 87.7036 36.6948 87.3011 36.6948 86.6774C36.6948 85.6965 37.3071 84.5172 38.0328 84.0977L41.0718 82.3571C41.2081 82.2713 41.3644 82.2225 41.5253 82.2153M41.5253 81.9574C41.3187 81.964 41.1174 82.0246 40.9414 82.1331L37.9024 83.8879C37.0916 84.3556 36.434 85.6115 36.434 86.6916C36.434 87.4967 36.7997 87.9758 37.3184 87.9758C37.5251 87.9691 37.7264 87.9085 37.9024 87.8L40.9414 86.0424C41.7521 85.5746 42.4098 84.3188 42.4098 83.2387C42.4098 82.4336 42.047 81.9545 41.5253 81.9545V81.9574Z" fill="#253239"/>
<path d="M61.0553 11.2681L59.5189 10.3524C59.2688 10.1848 58.9763 10.0913 58.6754 10.0827C58.3744 10.0742 58.0771 10.151 57.818 10.3042L46.8074 16.7648V17.2808C46.8074 18.874 45.5147 20.9094 43.9215 21.8165L40.4488 23.8208C39.261 24.5068 38.2433 24.3877 37.8011 23.6082L38.935 22.9448L37.5715 22.1681L26.3426 28.7477C25.6704 29.1412 25.113 29.7039 24.726 30.3799C24.339 31.0558 24.136 31.8214 24.1371 32.6003V101.068C24.1355 101.348 24.2077 101.624 24.3465 101.868C24.4854 102.112 24.6859 102.315 24.928 102.457L24.9592 102.474L26.456 103.324V102.485L26.5609 102.431C34.7536 97.4957 51.3006 87.6191 57.662 83.8232C58.4475 83.3552 59.0978 82.691 59.5491 81.8958C60.0004 81.1006 60.2371 80.2018 60.2361 79.2874V12.0845L61.0553 11.2681Z" fill="#EBEBEB"/>
<path d="M26.3936 103.435L24.8571 102.556C24.5955 102.4 24.3792 102.179 24.23 101.914C24.0807 101.649 24.0037 101.349 24.0067 101.045V32.6144C24.0081 31.813 24.2179 31.0257 24.6155 30.3299C25.0131 29.6341 25.5848 29.0537 26.2746 28.6456L37.5034 22.0659H37.6451L39.0115 22.8427V23.0865L37.9995 23.6761C38.1524 23.8865 38.374 24.0369 38.626 24.1013C39.1079 24.2289 39.7316 24.1013 40.3779 23.7215L43.8535 21.7172C45.4041 20.8214 46.6656 18.8342 46.6656 17.2892V16.7648L46.7365 16.6429L57.747 10.1879C58.0291 10.0223 58.3521 9.93958 58.679 9.9491C59.0059 9.95863 59.3235 10.0601 59.5954 10.2418L61.129 11.1461L61.1574 11.3672L60.3835 12.1411V79.3015C60.3817 80.239 60.1375 81.16 59.6745 81.9752C59.2116 82.7903 58.5456 83.4718 57.7414 83.9535C54.1014 86.125 35.4906 97.2291 26.6402 102.559L26.6034 102.581V103.31L26.3936 103.435ZM24.996 102.323L26.3199 103.069V102.502L26.3993 102.374L26.4333 102.357L26.4928 102.326C35.3461 96.9938 53.954 85.884 57.5968 83.7182C58.3589 83.2618 58.9899 82.616 59.4286 81.8436C59.8672 81.0711 60.0985 80.1983 60.1 79.31V12.0816L60.1425 11.9824L60.8257 11.2963L59.4451 10.4827C59.2171 10.3279 58.9498 10.2409 58.6743 10.2319C58.3989 10.2229 58.1265 10.2921 57.8888 10.4317L46.9491 16.847V17.2807C46.9491 18.9164 45.6224 21.0114 43.9952 21.9554L40.5197 23.9596C39.8053 24.3735 39.1022 24.5266 38.5523 24.3678C38.3685 24.3198 38.1963 24.2353 38.0458 24.1194C37.8953 24.0035 37.7697 23.8585 37.6763 23.6931L37.7273 23.5004L38.6458 22.9646L37.5658 22.3494L26.4078 28.8866C25.7581 29.2689 25.2195 29.8142 24.8451 30.4685C24.4707 31.1227 24.2736 31.8634 24.2731 32.6172V101.067C24.2713 101.323 24.3372 101.575 24.4641 101.797C24.5911 102.019 24.7746 102.204 24.996 102.332V102.323Z" fill="#EBEBEB"/>
<path d="M61.6055 12.4758V80.0898C61.6071 81.0039 61.371 81.9027 60.9202 82.6979C60.4694 83.4931 59.8195 84.1574 59.0343 84.6255C52.6729 88.4214 36.1259 98.298 27.9332 103.233C27.6889 103.38 27.4101 103.459 27.1253 103.462C26.8405 103.466 26.5598 103.394 26.312 103.253C26.0641 103.113 25.858 102.91 25.7145 102.664C25.571 102.417 25.4953 102.138 25.4952 101.853V33.3913C25.495 32.6126 25.6984 31.8473 26.0853 31.1715C26.4722 30.4957 27.0291 29.9328 27.7008 29.5387L38.9268 22.9591V23.3928C38.9268 24.986 40.2194 25.5331 41.8126 24.6118L45.2853 22.6075C46.8785 21.689 48.1684 19.6508 48.1684 18.0718V17.5417L59.1789 11.0867C59.4236 10.9428 59.702 10.8661 59.9858 10.8644C60.2697 10.8627 60.5489 10.9361 60.7953 11.0771C61.0416 11.2182 61.2463 11.4218 61.3886 11.6674C61.5309 11.913 61.6058 12.1919 61.6055 12.4758Z" fill="#FAFAFA"/>
<path d="M61.4638 12.4755V77.3567C61.4638 78.4906 61.5829 79.7295 61.4043 80.8662C61.1463 82.5218 60.1257 83.7918 58.714 84.6338L56.2392 86.1107L49.5914 90.0795C44.449 93.1525 39.3085 96.2273 34.1699 99.3041L30.7936 101.331C29.7929 101.932 28.8092 102.632 27.7574 103.151C27.531 103.258 27.2811 103.306 27.031 103.291C26.781 103.275 26.5389 103.197 26.3273 103.063C26.1157 102.929 25.9415 102.743 25.8208 102.524C25.7001 102.304 25.6368 102.058 25.637 101.807C25.637 101.7 25.637 101.589 25.637 101.478V33.547C25.6197 32.7602 25.8116 31.9829 26.1932 31.2946C26.5747 30.6062 27.1321 30.0315 27.8085 29.6292C30.6433 27.9283 33.5008 26.2926 36.347 24.6257L39.0005 23.0694L38.7878 22.9475C38.7878 23.4832 38.7878 24.036 39.0713 24.5066C39.2243 24.7371 39.4369 24.9218 39.6865 25.0411C39.9361 25.1604 40.2133 25.2098 40.4887 25.1842C41.4214 25.1303 42.2804 24.4896 43.0685 24.0502C43.8565 23.6108 44.5936 23.1827 45.3363 22.7348C46.753 21.8822 47.7773 20.5065 48.1882 18.905C48.2526 18.6259 48.2868 18.3408 48.2903 18.0545C48.3044 17.933 48.3044 17.8103 48.2903 17.6888C48.2591 17.5442 48.3413 17.5811 48.2307 17.6718C48.347 17.5916 48.4692 17.5205 48.5964 17.4592L50.6063 16.2799L56.5397 12.8015L58.8727 11.4351C58.9918 11.3643 59.1109 11.2906 59.2328 11.2254C59.4562 11.099 59.7086 11.0328 59.9653 11.0335C60.2219 11.0341 60.474 11.1015 60.6968 11.2291C60.9195 11.3566 61.1053 11.5399 61.2358 11.7609C61.3663 11.9819 61.437 12.2331 61.4411 12.4897C61.4411 12.6711 61.7246 12.6711 61.7246 12.4897C61.7185 12.1838 61.6333 11.8847 61.4772 11.6215C61.3212 11.3583 61.0997 11.1399 60.8342 10.9878C60.5687 10.8357 60.2684 10.7548 59.9624 10.7533C59.6564 10.7517 59.3552 10.8293 59.0882 10.9787C58.7197 11.18 58.3625 11.4068 57.9996 11.6194L52.4235 14.888L49.6992 16.4783C49.2002 16.7618 48.6531 17.0453 48.1854 17.3656C48.0266 17.479 48.0238 17.5414 48.0238 17.7568C48.0348 18.5325 47.8568 19.2993 47.505 19.9907C46.8842 21.1627 45.929 22.1238 44.7609 22.7519C43.7913 23.3188 42.8218 23.8858 41.8523 24.4301C41.2598 24.7674 40.4831 25.1161 39.8056 24.8071C39.077 24.4754 39.0713 23.6477 39.0713 22.9616C39.0712 22.9368 39.0645 22.9125 39.052 22.8911C39.0395 22.8696 39.0216 22.8519 39.0001 22.8395C38.9786 22.8272 38.9542 22.8207 38.9294 22.8207C38.9046 22.8208 38.8802 22.8273 38.8587 22.8397L30.6376 27.659C29.6369 28.2458 28.6277 28.8184 27.6355 29.4166C26.9319 29.8452 26.3525 30.4503 25.9547 31.1718C25.5569 31.8932 25.3546 32.7062 25.3677 33.5299C25.3677 34.8907 25.3677 36.2486 25.3677 37.6093V101.606C25.3677 101.683 25.3677 101.759 25.3677 101.833C25.3707 102.082 25.4261 102.327 25.5302 102.553C25.6343 102.779 25.7848 102.981 25.9719 103.145C26.1591 103.31 26.3787 103.432 26.6165 103.506C26.8542 103.58 27.1049 103.603 27.3521 103.573C27.919 103.5 28.435 103.094 28.9197 102.802L30.408 101.906L33.8098 99.8597C36.3782 98.3214 38.9475 96.783 41.5178 95.2446C46.3824 92.3228 51.2546 89.4095 56.1343 86.5048C58.1187 85.3141 60.5226 84.3078 61.3986 81.9889C61.6622 81.2169 61.7804 80.4028 61.7473 79.5877V12.4755C61.7473 12.4379 61.7323 12.4019 61.7058 12.3753C61.6792 12.3487 61.6431 12.3338 61.6055 12.3338C61.5679 12.3338 61.5319 12.3487 61.5053 12.3753C61.4787 12.4019 61.4638 12.4379 61.4638 12.4755Z" fill="#EBEBEB"/>
<path d="M33.4406 36.3578C34.2172 35.0066 34.214 33.5476 33.4335 33.0991C32.653 32.6505 31.3908 33.3823 30.6142 34.7335C29.8377 36.0847 29.8408 37.5437 30.6213 37.9922C31.4018 38.4408 32.6641 37.709 33.4406 36.3578Z" fill="#90C5F9"/>
<path d="M35.7404 32.907C35.6777 32.9075 35.6165 32.8871 35.5666 32.849C35.5167 32.811 35.4808 32.7574 35.4646 32.6968C35.4484 32.6361 35.4527 32.5718 35.477 32.514C35.5013 32.4561 35.5441 32.4079 35.5987 32.3769L44.7524 27.0928C44.8178 27.0552 44.8955 27.0451 44.9683 27.0648C45.0412 27.0844 45.1032 27.1322 45.1408 27.1977C45.1784 27.2631 45.1884 27.3407 45.1688 27.4136C45.1491 27.4864 45.1013 27.5484 45.0359 27.586L35.8822 32.8702C35.839 32.8947 35.7901 32.9074 35.7404 32.907Z" fill="#90C5F9"/>
<path d="M35.7404 34.6386C35.6777 34.6391 35.6165 34.6187 35.5666 34.5806C35.5167 34.5425 35.4808 34.489 35.4646 34.4284C35.4484 34.3677 35.4527 34.3034 35.477 34.2455C35.5013 34.1876 35.5441 34.1394 35.5987 34.1085L41.2117 30.8683C41.244 30.8495 41.2798 30.8374 41.3169 30.8325C41.3539 30.8276 41.3916 30.8301 41.4277 30.8399C41.4638 30.8496 41.4976 30.8664 41.5272 30.8893C41.5568 30.9122 41.5815 30.9407 41.6001 30.9732C41.637 31.0383 41.6467 31.1153 41.6271 31.1875C41.6074 31.2598 41.56 31.3213 41.4952 31.3587L35.8822 34.6018C35.839 34.6262 35.7901 34.639 35.7404 34.6386Z" fill="#90C5F9"/>
<path d="M57.5259 47.8741L30.8075 63.2985C30.2887 63.599 29.8691 63.2815 29.8691 62.5898V42.8961C29.8745 42.5445 29.9622 42.199 30.1251 41.8874C30.2881 41.5757 30.5218 41.3066 30.8075 41.1016L57.5259 25.6744C58.0447 25.3909 58.4671 25.6942 58.4671 26.3859V46.0711C58.4627 46.4244 58.3753 46.7717 58.2118 47.0849C58.0483 47.3982 57.8133 47.6685 57.5259 47.8741Z" fill="#E0E0E0"/>
<path d="M32.6191 43.3868C32.5696 43.3865 32.5211 43.3733 32.4783 43.3484C32.4356 43.3236 32.4001 43.2879 32.3753 43.2451C32.3381 43.1803 32.328 43.1035 32.3471 43.0313C32.3662 42.9591 32.413 42.8974 32.4774 42.8595L55.5729 29.5358C55.6383 29.4982 55.716 29.4881 55.7888 29.5078C55.8616 29.5274 55.9237 29.5752 55.9613 29.6406C55.9989 29.7061 56.0089 29.7837 55.9893 29.8566C55.9696 29.9294 55.9218 29.9914 55.8564 30.029L32.7609 43.3528C32.7174 43.3763 32.6685 43.388 32.6191 43.3868Z" fill="white"/>
<path d="M32.6193 46.0711C32.5566 46.0716 32.4954 46.0512 32.4455 46.0131C32.3956 45.9751 32.3597 45.9215 32.3435 45.8609C32.3273 45.8002 32.3316 45.7359 32.3559 45.6781C32.3802 45.6202 32.423 45.572 32.4776 45.541L55.5731 32.2172C55.6379 32.1833 55.7133 32.1758 55.7835 32.1962C55.8537 32.2165 55.9133 32.2633 55.9499 32.3266C55.9865 32.3899 55.9972 32.4648 55.9799 32.5359C55.9625 32.6069 55.9183 32.6684 55.8566 32.7077L32.7611 46.0315C32.7181 46.0569 32.6692 46.0706 32.6193 46.0711Z" fill="white"/>
<path d="M32.6193 48.7567C32.5566 48.7571 32.4954 48.7367 32.4455 48.6987C32.3956 48.6606 32.3597 48.6071 32.3435 48.5464C32.3273 48.4858 32.3316 48.4215 32.3559 48.3636C32.3802 48.3057 32.423 48.2575 32.4776 48.2266L55.5731 34.9028C55.6379 34.8656 55.7147 34.8554 55.7869 34.8746C55.859 34.8937 55.9208 34.9405 55.9586 35.0048C55.9775 35.037 55.9898 35.0726 55.9949 35.1096C56 35.1465 55.9977 35.1841 55.9882 35.2202C55.9788 35.2563 55.9622 35.2901 55.9397 35.3198C55.9171 35.3495 55.8888 35.3745 55.8566 35.3932L32.7611 48.717C32.7181 48.7425 32.6692 48.7562 32.6193 48.7567Z" fill="white"/>
<path d="M32.6193 51.4382C32.5566 51.4387 32.4954 51.4183 32.4455 51.3802C32.3956 51.3422 32.3597 51.2886 32.3435 51.228C32.3273 51.1673 32.3316 51.103 32.3559 51.0451C32.3802 50.9873 32.423 50.9391 32.4776 50.9081L55.5731 37.5843C55.6382 37.5474 55.7153 37.5377 55.7875 37.5573C55.8597 37.577 55.9212 37.6244 55.9586 37.6892C55.9958 37.754 56.006 37.8308 55.9869 37.903C55.9678 37.9752 55.9209 38.0369 55.8566 38.0748L32.7611 51.3985C32.7181 51.424 32.6692 51.4377 32.6193 51.4382Z" fill="white"/>
<path d="M32.6193 54.1225C32.5566 54.1229 32.4954 54.1025 32.4455 54.0645C32.3956 54.0264 32.3597 53.9729 32.3435 53.9122C32.3273 53.8516 32.3316 53.7873 32.3559 53.7294C32.3802 53.6715 32.423 53.6233 32.4776 53.5924L55.5731 40.2686C55.6379 40.2314 55.7147 40.2212 55.7869 40.2403C55.859 40.2594 55.9208 40.3063 55.9586 40.3706C55.9775 40.4028 55.9898 40.4384 55.9949 40.4754C56 40.5123 55.9977 40.5499 55.9882 40.586C55.9788 40.6221 55.9622 40.6559 55.9397 40.6856C55.9171 40.7153 55.8888 40.7402 55.8566 40.759L32.7611 54.0828C32.7181 54.1083 32.6692 54.122 32.6193 54.1225Z" fill="white"/>
<path d="M32.619 56.8047C32.5571 56.8041 32.4971 56.7832 32.4482 56.7453C32.3993 56.7075 32.3642 56.6546 32.3481 56.5948C32.332 56.5351 32.336 56.4717 32.3593 56.4144C32.3826 56.3571 32.424 56.309 32.4772 56.2774L55.5727 42.9537C55.6378 42.9167 55.7149 42.907 55.7871 42.9266C55.8594 42.9463 55.9209 42.9937 55.9583 43.0585C55.9955 43.1233 56.0056 43.2001 55.9865 43.2723C55.9674 43.3445 55.9206 43.4062 55.8562 43.4441L32.7607 56.7679C32.7175 56.7924 32.6686 56.8051 32.619 56.8047Z" fill="white"/>
<path d="M32.6193 59.4883C32.5566 59.4887 32.4954 59.4683 32.4455 59.4302C32.3956 59.3922 32.3597 59.3386 32.3435 59.278C32.3273 59.2174 32.3316 59.1531 32.3559 59.0952C32.3802 59.0373 32.423 58.9891 32.4776 58.9581L55.5731 45.6344C55.6379 45.5972 55.7147 45.587 55.7869 45.6061C55.859 45.6252 55.9208 45.6721 55.9586 45.7364C55.9775 45.7686 55.9898 45.8042 55.9949 45.8411C56 45.8781 55.9977 45.9157 55.9882 45.9518C55.9788 45.9879 55.9622 46.0217 55.9397 46.0514C55.9171 46.0811 55.8888 46.106 55.8566 46.1248L32.7611 59.4486C32.7181 59.474 32.6692 59.4877 32.6193 59.4883Z" fill="white"/>
<path d="M33.8435 67.0495C33.8063 67.7391 33.6073 68.4102 33.2625 69.0085C32.9178 69.6069 32.437 70.1157 31.8592 70.4938C30.7592 71.126 29.8748 70.6129 29.8748 69.3457C29.9111 68.6559 30.1098 67.9845 30.4546 67.386C30.7994 66.7875 31.2807 66.2788 31.8592 65.9014C32.9534 65.2579 33.8435 65.771 33.8435 67.0495Z" fill="#90C5F9"/>
<path opacity="0.6" d="M33.4406 36.3578C34.2172 35.0066 34.214 33.5476 33.4335 33.0991C32.653 32.6505 31.3908 33.3823 30.6142 34.7335C29.8377 36.0847 29.8408 37.5437 30.6213 37.9922C31.4018 38.4408 32.6641 37.709 33.4406 36.3578Z" fill="white"/>
<path opacity="0.6" d="M33.8435 67.0495C33.8063 67.7391 33.6073 68.4102 33.2625 69.0085C32.9178 69.6069 32.437 70.1157 31.8592 70.4938C30.7592 71.126 29.8748 70.6129 29.8748 69.3457C29.9111 68.6559 30.1098 67.9845 30.4546 67.386C30.7994 66.7875 31.2807 66.2788 31.8592 65.9014C32.9534 65.2579 33.8435 65.771 33.8435 67.0495Z" fill="white"/>
<path d="M35.7404 65.3858C35.6777 65.3862 35.6165 65.3658 35.5666 65.3277C35.5167 65.2897 35.4808 65.2361 35.4646 65.1755C35.4484 65.1149 35.4527 65.0506 35.477 64.9927C35.5013 64.9348 35.5441 64.8866 35.5987 64.8556L44.7524 59.5715C44.8172 59.5376 44.8926 59.53 44.9628 59.5504C45.033 59.5708 45.0926 59.6175 45.1292 59.6808C45.1658 59.7441 45.1766 59.8191 45.1592 59.8901C45.1418 59.9611 45.0976 60.0227 45.0359 60.0619L35.8822 65.3489C35.839 65.3734 35.7901 65.3861 35.7404 65.3858Z" fill="#90C5F9"/>
<path d="M35.7404 67.1173C35.6777 67.1177 35.6165 67.0973 35.5666 67.0592C35.5167 67.0212 35.4808 66.9676 35.4646 66.907C35.4484 66.8464 35.4527 66.7821 35.477 66.7242C35.5013 66.6663 35.5441 66.6181 35.5987 66.5871L41.2117 63.3469C41.244 63.3282 41.2798 63.316 41.3169 63.3111C41.3539 63.3063 41.3916 63.3088 41.4277 63.3185C41.4638 63.3283 41.4976 63.3451 41.5272 63.3679C41.5568 63.3908 41.5815 63.4193 41.6001 63.4518C41.637 63.5169 41.6467 63.594 41.6271 63.6662C41.6074 63.7384 41.56 63.7999 41.4952 63.8373L35.8822 67.0804C35.839 67.1049 35.7901 67.1176 35.7404 67.1173Z" fill="#90C5F9"/>
<path d="M57.5259 80.3528L30.8075 95.7801C30.2887 96.0636 29.8691 95.7602 29.8691 95.0685V75.3749C29.8745 75.0232 29.9622 74.6778 30.1251 74.3661C30.2881 74.0545 30.5218 73.7854 30.8075 73.5804L57.5259 58.1531C58.0447 57.8555 58.4671 58.173 58.4671 58.8647V78.5584C58.4614 78.9102 58.3733 79.2559 58.2099 79.5675C58.0464 79.8792 57.8122 80.1481 57.5259 80.3528Z" fill="#E0E0E0"/>
<path d="M32.6191 75.8654C32.5696 75.8651 32.5211 75.8519 32.4783 75.827C32.4356 75.8021 32.4001 75.7665 32.3753 75.7237C32.3381 75.6589 32.328 75.5821 32.3471 75.5099C32.3662 75.4377 32.413 75.376 32.4774 75.3381L55.5729 62.0143C55.6383 61.9767 55.716 61.9667 55.7888 61.9863C55.8616 62.006 55.9237 62.0538 55.9613 62.1192C55.9989 62.1846 56.0089 62.2623 55.9893 62.3351C55.9696 62.408 55.9218 62.47 55.8564 62.5076L32.7609 75.8314C32.7174 75.8549 32.6685 75.8666 32.6191 75.8654Z" fill="white"/>
<path d="M32.6193 78.5508C32.5566 78.5512 32.4954 78.5308 32.4455 78.4927C32.3956 78.4547 32.3597 78.4011 32.3435 78.3405C32.3273 78.2799 32.3316 78.2156 32.3559 78.1577C32.3802 78.0998 32.423 78.0516 32.4776 78.0206L55.5731 64.6968C55.6379 64.663 55.7133 64.6554 55.7835 64.6758C55.8537 64.6961 55.9133 64.7429 55.9499 64.8062C55.9865 64.8695 55.9972 64.9445 55.9799 65.0155C55.9625 65.0865 55.9183 65.148 55.8566 65.1873L32.7611 78.5111C32.7181 78.5365 32.6692 78.5502 32.6193 78.5508Z" fill="white"/>
<path d="M32.6193 81.2237C32.5566 81.2241 32.4954 81.2037 32.4455 81.1657C32.3956 81.1276 32.3597 81.0741 32.3435 81.0134C32.3273 80.9528 32.3316 80.8885 32.3559 80.8306C32.3802 80.7727 32.423 80.7245 32.4776 80.6936L55.5731 67.3698C55.6379 67.3326 55.7147 67.3224 55.7869 67.3415C55.859 67.3606 55.9208 67.4075 55.9586 67.4718C55.9775 67.504 55.9898 67.5396 55.9949 67.5766C56 67.6135 55.9977 67.6511 55.9882 67.6872C55.9788 67.7233 55.9622 67.7571 55.9397 67.7868C55.9171 67.8165 55.8888 67.8414 55.8566 67.8602L32.7611 81.184C32.7181 81.2095 32.6692 81.2232 32.6193 81.2237Z" fill="white"/>
<path d="M32.6193 83.9167C32.5566 83.9171 32.4954 83.8967 32.4455 83.8587C32.3956 83.8206 32.3597 83.7671 32.3435 83.7064C32.3273 83.6458 32.3316 83.5815 32.3559 83.5236C32.3802 83.4657 32.423 83.4175 32.4776 83.3866L55.5731 70.0628C55.6382 70.0258 55.7153 70.0161 55.7875 70.0358C55.8597 70.0554 55.9212 70.1028 55.9586 70.1677C55.9958 70.2324 56.006 70.3092 55.9869 70.3814C55.9678 70.4536 55.9209 70.5153 55.8566 70.5532L32.7611 83.877C32.7181 83.9025 32.6692 83.9162 32.6193 83.9167Z" fill="white"/>
<path d="M32.6193 86.6101C32.5566 86.6105 32.4954 86.5901 32.4455 86.5521C32.3956 86.514 32.3597 86.4605 32.3435 86.3998C32.3273 86.3392 32.3316 86.2749 32.3559 86.217C32.3802 86.1591 32.423 86.1109 32.4776 86.08L55.5731 72.7562C55.6379 72.719 55.7147 72.7088 55.7869 72.7279C55.859 72.7471 55.9208 72.7939 55.9586 72.8582C55.9775 72.8904 55.9898 72.926 55.9949 72.963C56 72.9999 55.9977 73.0375 55.9882 73.0736C55.9788 73.1097 55.9622 73.1435 55.9397 73.1732C55.9171 73.2029 55.8888 73.2278 55.8566 73.2466L32.7611 86.5704C32.7181 86.5959 32.6692 86.6096 32.6193 86.6101Z" fill="white"/>
<path d="M32.619 89.2832C32.5571 89.2825 32.4971 89.2617 32.4482 89.2238C32.3993 89.1859 32.3642 89.1331 32.3481 89.0733C32.332 89.0136 32.336 88.9502 32.3593 88.8929C32.3826 88.8356 32.424 88.7875 32.4772 88.7559L55.5727 75.4321C55.6378 75.3952 55.7149 75.3854 55.7871 75.4051C55.8594 75.4247 55.9209 75.4722 55.9583 75.537C55.9955 75.6017 56.0056 75.6786 55.9865 75.7507C55.9674 75.8229 55.9206 75.8847 55.8562 75.9225L32.7607 89.2463C32.7175 89.2708 32.6686 89.2835 32.619 89.2832Z" fill="white"/>
<path d="M32.6193 91.9668C32.5566 91.9673 32.4954 91.9469 32.4455 91.9088C32.3956 91.8708 32.3597 91.8172 32.3435 91.7566C32.3273 91.6959 32.3316 91.6316 32.3559 91.5737C32.3802 91.5159 32.423 91.4677 32.4776 91.4367L55.5731 78.1129C55.6379 78.0757 55.7147 78.0656 55.7869 78.0847C55.859 78.1038 55.9208 78.1506 55.9586 78.215C55.9775 78.2472 55.9898 78.2828 55.9949 78.3197C56 78.3567 55.9977 78.3943 55.9882 78.4304C55.9788 78.4664 55.9622 78.5003 55.9397 78.53C55.9171 78.5597 55.8888 78.5846 55.8566 78.6034L32.7611 91.9272C32.7181 91.9526 32.6692 91.9663 32.6193 91.9668Z" fill="white"/>
<path d="M72.2898 17.6696L70.8723 16.8588C70.7888 16.7991 70.6995 16.7478 70.6059 16.7058C70.3722 16.597 70.1156 16.5469 69.8583 16.5598C69.6009 16.5726 69.3505 16.648 69.1289 16.7795L58.1183 23.2344V23.7504C58.1183 25.3435 56.8257 27.379 55.2325 28.2861L51.7598 30.2904C50.572 30.9764 49.5543 30.8573 49.112 30.0749L50.246 29.4144L48.8824 28.6376L37.6507 35.2315C36.9789 35.6247 36.4218 36.187 36.0348 36.8624C35.6479 37.5378 35.4446 38.3028 35.4452 39.0812V107.526C35.4435 107.806 35.5157 108.082 35.6546 108.325C35.7934 108.568 35.994 108.771 36.2361 108.912L36.2673 108.929L37.7641 109.78V108.96C37.8005 108.945 37.8356 108.927 37.869 108.906C46.0731 103.974 62.6201 94.0943 68.9758 90.2956C69.7611 89.8274 70.4113 89.1632 70.8625 88.368C71.3138 87.5729 71.5506 86.6741 71.5499 85.7598V18.4038L72.2898 17.6696Z" fill="#EBEBEB"/>
<path d="M37.7076 109.904L36.1739 109.053V109.033C35.9121 108.879 35.6957 108.658 35.5464 108.393C35.397 108.129 35.3202 107.829 35.3235 107.525V39.0807C35.3246 38.2793 35.5343 37.4919 35.9319 36.796C36.3295 36.1002 36.9014 35.5198 37.5913 35.1119L48.8202 28.5322H48.9619L50.3283 29.309V29.5556L49.3276 30.1424C49.4809 30.3519 49.7025 30.5013 49.9541 30.5648C50.436 30.6952 51.0597 30.5648 51.7061 30.185L55.1787 28.1836C56.7322 27.2849 57.9938 25.3005 57.9938 23.7555V23.2396L58.0646 23.1177L69.061 16.6571C69.3043 16.5146 69.5788 16.434 69.8605 16.4221C70.1421 16.4103 70.4224 16.4676 70.6769 16.589C70.7768 16.6351 70.8717 16.6911 70.9604 16.7563L72.3636 17.5585L72.3948 17.7825L71.7002 18.477V85.7593C71.6979 86.6967 71.4535 87.6175 70.9906 88.4325C70.5277 89.2476 69.862 89.9292 69.0582 90.4113C66.8413 91.7324 47.1448 103.483 37.957 109.016L37.9202 109.036V109.768L37.7076 109.904ZM36.31 108.792L37.6339 109.538V108.971L37.7104 108.846L37.7501 108.826L37.8068 108.798C46.9974 103.265 66.6939 91.5056 68.9108 90.1902C69.6756 89.7312 70.3083 89.0817 70.747 88.3051C71.1858 87.5285 71.4155 86.6513 71.4139 85.7593V18.4033L71.4565 18.3041L72.0603 17.7003L70.8044 16.9802C70.7249 16.9221 70.6394 16.8727 70.5493 16.8328C70.3363 16.7337 70.1023 16.688 69.8676 16.6999C69.6329 16.7117 69.4047 16.7807 69.2027 16.9009L58.2631 23.3133V23.7498C58.2631 25.3856 56.9364 27.4805 55.3063 28.4217L51.8336 30.4259C51.1192 30.8398 50.4162 30.9929 49.8662 30.8341C49.6825 30.7861 49.5102 30.7016 49.3598 30.5857C49.2093 30.4698 49.0836 30.3249 48.9903 30.1594L49.0413 29.9667L49.9598 29.4309L48.8797 28.8157L37.7218 35.3529C37.0725 35.735 36.5341 36.2798 36.1598 36.9335C35.7854 37.5873 35.588 38.3274 35.5871 39.0807V107.525C35.5855 107.781 35.6515 108.033 35.7785 108.255C35.9054 108.477 36.0888 108.661 36.31 108.79V108.792Z" fill="#EBEBEB"/>
<path d="M72.9195 18.9453V86.548C72.9211 87.4621 72.6849 88.3609 72.2341 89.1561C71.7833 89.9513 71.1335 90.6156 70.3483 91.0837C63.9869 94.8711 47.4314 104.753 39.2472 109.683C39.003 109.831 38.7241 109.91 38.4389 109.914C38.1538 109.918 37.8727 109.846 37.6245 109.706C37.3764 109.565 37.1701 109.361 37.0268 109.115C36.8835 108.868 36.8084 108.588 36.8092 108.303V39.858C36.8092 39.0797 37.0127 38.3149 37.3996 37.6396C37.7865 36.9643 38.3433 36.4019 39.0147 36.0083L50.2436 29.4286V29.8623C50.2436 31.4555 51.5363 32.0026 53.1294 31.0813L56.6021 29.0771C58.1953 28.1557 59.4852 26.1203 59.4852 24.5271V24.0112L70.4957 17.5562C70.7403 17.413 71.0184 17.3369 71.3018 17.3356C71.5853 17.3343 71.864 17.4078 72.11 17.5487C72.3559 17.6897 72.5602 17.893 72.7024 18.1382C72.8445 18.3835 72.9194 18.6619 72.9195 18.9453Z" fill="#FAFAFA"/>
<path d="M72.7779 18.9447V83.8259C72.7779 84.9598 72.8969 86.1986 72.7183 87.3326C72.4604 88.991 71.4398 90.261 70.0281 91.1029L67.5589 92.5799L60.9112 96.5487C55.7688 99.6179 50.6282 102.693 45.4896 105.773L42.1133 107.797C41.1126 108.398 40.1289 109.101 39.0772 109.62C38.8507 109.727 38.6008 109.775 38.3508 109.76C38.1007 109.745 37.8587 109.666 37.6471 109.532C37.4354 109.398 37.2612 109.212 37.1405 108.993C37.0198 108.773 36.9566 108.527 36.9567 108.276C36.9567 108.169 36.9567 108.058 36.9567 107.948V40.0133C36.942 39.2289 37.1351 38.4545 37.5165 37.7689C37.8979 37.0833 38.454 36.5108 39.1282 36.1097C41.9631 34.4088 44.8206 32.7731 47.6668 31.1062L50.3202 29.5498L50.1076 29.4279C50.1076 29.9637 50.1076 30.5137 50.3911 30.9871C50.5441 31.2176 50.7567 31.4023 51.0062 31.5216C51.2558 31.6409 51.5331 31.6903 51.8085 31.6646C52.7412 31.6108 53.6001 30.9673 54.3854 30.5137C55.1706 30.0601 55.9133 29.6462 56.6532 29.2012C58.0762 28.3537 59.1079 26.9798 59.5249 25.377C59.5893 25.0979 59.6235 24.8128 59.627 24.5265C59.6412 24.405 59.6412 24.2823 59.627 24.1608C59.5958 24.0134 59.678 24.0531 59.5675 24.1438C59.6837 24.0636 59.806 23.9925 59.9332 23.9312L61.9431 22.7519L67.8764 19.2735L70.2095 17.9071C70.3286 17.8363 70.4448 17.7597 70.5667 17.6945C70.7906 17.5691 71.0432 17.5038 71.2999 17.505C71.5566 17.5063 71.8086 17.574 72.0313 17.7016C72.254 17.8293 72.4398 18.0124 72.5707 18.2333C72.7015 18.4541 72.7729 18.7051 72.7779 18.9617C72.7779 19.1431 73.0614 19.1431 73.0614 18.9617C73.0561 18.6554 72.9713 18.3558 72.8155 18.0921C72.6596 17.8285 72.438 17.6098 72.1723 17.4575C71.9065 17.3052 71.6058 17.2245 71.2995 17.2233C70.9932 17.2221 70.6918 17.3005 70.4249 17.4507C70.0564 17.652 69.6992 17.8759 69.3364 18.0886L63.7375 21.3713L61.0189 22.9645C60.52 23.248 59.9729 23.5173 59.5051 23.8518C59.3463 23.9652 59.3435 24.0276 59.3435 24.243C59.3523 25.0182 59.1723 25.7839 58.8191 26.474C58.1983 27.6461 57.2431 28.6071 56.0749 29.2352L53.1664 30.9106C52.5739 31.2508 51.7971 31.5994 51.1196 31.2904C50.3911 30.9588 50.3854 30.131 50.3854 29.445C50.3852 29.4202 50.3786 29.3958 50.3661 29.3744C50.3536 29.353 50.3357 29.3352 50.3142 29.3228C50.2926 29.3105 50.2682 29.304 50.2434 29.3041C50.2186 29.3041 50.1943 29.3107 50.1728 29.3231L41.9517 34.1423C40.951 34.7291 39.9418 35.3046 38.9496 35.9027C38.2452 36.3305 37.6652 36.9354 37.2673 37.6571C36.8694 38.3788 36.6675 39.1921 36.6817 40.0161C36.6817 41.374 36.6817 42.7347 36.6817 44.0955V108.075C36.6817 108.152 36.6817 108.225 36.6817 108.302C36.6848 108.551 36.7401 108.796 36.8442 109.023C36.9483 109.249 37.0989 109.45 37.286 109.615C37.4732 109.779 37.6928 109.902 37.9305 109.975C38.1683 110.049 38.4189 110.072 38.6661 110.043C39.2331 109.969 39.749 109.563 40.2338 109.269L41.7221 108.376C42.856 107.693 43.99 107.011 45.1239 106.329C47.6923 104.789 50.2616 103.25 52.8319 101.714C57.704 98.7977 62.5809 95.8834 67.4625 92.9711C69.4469 91.7833 71.8509 90.7769 72.7268 88.458C72.9905 87.6861 73.1087 86.8719 73.0755 86.0569V18.9447C73.0755 18.9052 73.0598 18.8674 73.0319 18.8394C73.004 18.8115 72.9662 18.7958 72.9267 18.7958C72.8872 18.7958 72.8494 18.8115 72.8215 18.8394C72.7935 18.8674 72.7779 18.9052 72.7779 18.9447Z" fill="#EBEBEB"/>
<path d="M52.2191 96.6615L41.923 102.615C41.1746 103.048 40.5651 102.586 40.5651 101.588C40.5651 100.588 41.1746 99.4283 41.923 98.9946L52.2191 93.0414C52.9704 92.6076 53.577 93.0669 53.577 94.0676C53.577 95.0654 52.9704 96.2277 52.2191 96.6615Z" fill="#90C5F9"/>
<path d="M67.8056 87.1993L57.5094 93.1524C56.761 93.5862 56.1515 93.1269 56.1515 92.1262C56.1515 91.1284 56.761 89.9661 57.5094 89.5323L67.8056 83.5792C68.5568 83.1454 69.1634 83.6075 69.1634 84.6054C69.1634 85.6061 68.5568 86.7684 67.8056 87.1993Z" fill="#90C5F9"/>
<path opacity="0.6" d="M52.2191 96.6615L41.923 102.615C41.1746 103.048 40.5651 102.586 40.5651 101.588C40.5651 100.588 41.1746 99.4283 41.923 98.9946L52.2191 93.0414C52.9704 92.6076 53.577 93.0669 53.577 94.0676C53.577 95.0654 52.9704 96.2277 52.2191 96.6615Z" fill="white"/>
<path opacity="0.6" d="M67.8056 87.1993L57.5094 93.1524C56.761 93.5862 56.1515 93.1269 56.1515 92.1262C56.1515 91.1284 56.761 89.9661 57.5094 89.5323L67.8056 83.5792C68.5568 83.1454 69.1634 83.6075 69.1634 84.6054C69.1634 85.6061 68.5568 86.7684 67.8056 87.1993Z" fill="white"/>
<path d="M68.2247 51.1888L41.5034 66.616C40.9846 66.9165 40.5651 66.599 40.5651 65.9073V43.254C40.57 42.9023 40.6574 42.5567 40.8204 42.245C40.9834 41.9333 41.2174 41.6643 41.5034 41.4596L68.2247 26.0323C68.7435 25.7318 69.163 26.0493 69.163 26.741V49.3971C69.1577 49.7484 69.07 50.0934 68.907 50.4046C68.744 50.7158 68.5103 50.9843 68.2247 51.1888Z" fill="#90C5F9"/>
<path opacity="0.6" d="M68.2247 51.1888L41.5034 66.616C40.9846 66.9165 40.5651 66.599 40.5651 65.9073V43.254C40.57 42.9023 40.6574 42.5567 40.8204 42.245C40.9834 41.9333 41.2174 41.6643 41.5034 41.4596L68.2247 26.0323C68.7435 25.7318 69.163 26.0493 69.163 26.741V49.3971C69.1577 49.7484 69.07 50.0934 68.907 50.4046C68.744 50.7158 68.5103 50.9843 68.2247 51.1888Z" fill="white"/>
<path d="M68.2247 80.4352L41.5034 95.8624C40.9846 96.1601 40.5651 95.8426 40.5651 95.1509V72.4976C40.5704 72.146 40.6581 71.8005 40.821 71.4889C40.984 71.1772 41.2177 70.9081 41.5034 70.7031L68.2247 55.2759C68.7435 54.9782 69.163 55.2957 69.163 55.9846V78.6407C69.1577 78.9923 69.07 79.3378 68.907 79.6494C68.7441 79.961 68.5104 80.2301 68.2247 80.4352Z" fill="#90C5F9"/>
<path opacity="0.6" d="M68.2247 80.4352L41.5034 95.8624C40.9846 96.1601 40.5651 95.8426 40.5651 95.1509V72.4976C40.5704 72.146 40.6581 71.8005 40.821 71.4889C40.984 71.1772 41.2177 70.9081 41.5034 70.7031L68.2247 55.2759C68.7435 54.9782 69.163 55.2957 69.163 55.9846V78.6407C69.1577 78.9923 69.07 79.3378 68.907 79.6494C68.7441 79.961 68.5104 80.2301 68.2247 80.4352Z" fill="white"/>
<path d="M83.6122 24.2435L82.0558 23.3279C81.8078 23.1682 81.52 23.0809 81.225 23.0759C80.93 23.0709 80.6395 23.1483 80.3861 23.2995L69.3756 29.7516V30.2676C69.3756 31.8608 68.0829 33.899 66.4925 34.8175L63.0227 36.8246C61.8349 37.5106 60.8172 37.3916 60.3749 36.612L61.5089 35.9486L60.1453 35.1719L48.9051 41.7516C48.2329 42.145 47.6755 42.7077 47.2885 43.3837C46.9015 44.0596 46.6985 44.8252 46.6996 45.6041V114.049C46.6982 114.329 46.7705 114.604 46.9093 114.848C47.0482 115.091 47.2486 115.294 47.4905 115.435L47.5217 115.452L49.0185 116.302V115.483L49.1234 115.429C57.3161 110.494 73.8631 100.617 80.2245 96.8213C81.01 96.3534 81.6603 95.6892 82.1116 94.894C82.5629 94.0988 82.7996 93.1999 82.7986 92.2856V25.0486L83.6122 24.2435Z" fill="#EBEBEB"/>
<path d="M48.9619 116.423L47.4311 115.573V115.556C47.1695 115.401 46.9532 115.18 46.8039 114.916C46.6546 114.651 46.5776 114.352 46.5807 114.048V45.6032C46.5821 44.8018 46.7919 44.0145 47.1895 43.3187C47.5871 42.6229 48.1588 42.0424 48.8485 41.6344L60.0774 35.0547H60.2191L61.5855 35.8314V36.0752L60.582 36.662C60.7349 36.8724 60.9565 37.0228 61.2085 37.0873C61.6904 37.2177 62.3141 37.0873 62.9604 36.7074L66.4246 34.6975C67.9753 33.8017 69.2368 31.8145 69.2368 30.2695V29.7535L69.3076 29.6316L80.3153 23.1767C80.592 23.0144 80.9081 22.9317 81.2287 22.9377C81.5494 22.9437 81.8621 23.0382 82.1325 23.2107L83.6832 24.1235L83.7115 24.3475L82.9518 25.1072V92.2789C82.9525 93.2178 82.7101 94.1408 82.2481 94.958C81.786 95.7753 81.1202 96.4589 80.3153 96.9423C76.6924 99.1053 58.1582 110.161 49.2142 115.55L49.1774 115.57V116.301L48.9619 116.423ZM47.5643 115.312L48.8882 116.058V115.491L48.9676 115.363L49.0044 115.346L49.064 115.315C58.0079 109.929 76.5393 98.8728 80.1651 96.707C80.9301 96.2489 81.563 95.5999 82.0018 94.8237C82.4406 94.0475 82.6702 93.1706 82.6683 92.2789V25.0477L82.7108 24.9485L83.3827 24.2766L81.9851 23.4517C81.7586 23.3044 81.4953 23.2236 81.2251 23.2186C80.955 23.2136 80.6889 23.2845 80.4571 23.4233L69.5174 29.8357V30.2695C69.5174 31.9052 68.1907 34.0001 66.5635 34.9441L63.088 36.9455C62.3764 37.3594 61.6706 37.5125 61.1206 37.3538C60.9376 37.3057 60.766 37.2215 60.6161 37.1061C60.4661 36.9907 60.3408 36.8465 60.2475 36.6819L60.2985 36.4891L61.2141 35.9505L60.1341 35.3353L48.9761 41.8725C48.327 42.2555 47.7888 42.8009 47.4145 43.455C47.0402 44.1092 46.8427 44.8495 46.8415 45.6032V114.048C46.8405 114.303 46.9067 114.555 47.0336 114.777C47.1605 114.999 47.3435 115.183 47.5643 115.312Z" fill="#EBEBEB"/>
<path d="M84.1766 25.4642V93.0668C84.1776 93.9811 83.9409 94.88 83.4896 95.6752C83.0384 96.4704 82.3881 97.1346 81.6026 97.6026C75.2412 101.393 58.6942 111.272 50.5014 116.205C50.2571 116.351 49.9784 116.43 49.6935 116.434C49.4087 116.437 49.1281 116.365 48.8802 116.225C48.6324 116.085 48.4262 115.881 48.2827 115.635C48.1392 115.389 48.0636 115.109 48.0635 114.824V46.3797C48.0629 45.6012 48.2659 44.8362 48.6523 44.1604C49.0387 43.4846 49.595 42.9215 50.2662 42.5271L61.495 35.9474V36.3812C61.495 37.9744 62.7877 38.5215 64.3809 37.6002L67.8536 35.5959C69.4467 34.6774 70.7394 32.6392 70.7394 31.046V30.53L81.75 24.0779C81.9944 23.9341 82.2726 23.8574 82.5562 23.8556C82.8398 23.8538 83.1189 23.927 83.3651 24.0676C83.6114 24.2083 83.8161 24.4116 83.9586 24.6568C84.1011 24.902 84.1763 25.1805 84.1766 25.4642Z" fill="#FAFAFA"/>
<path d="M84.0344 25.4649V90.3461C84.0344 91.48 84.1506 92.7217 83.9749 93.8556C83.7141 95.5112 82.6935 96.7812 81.2818 97.6232L78.8069 99.1001L72.1592 103.069C67.013 106.142 61.8725 109.217 56.7376 112.294L53.3613 114.32C52.3606 114.921 51.377 115.624 50.3252 116.14C50.099 116.247 49.8493 116.295 49.5995 116.28C49.3497 116.265 49.1078 116.187 48.8963 116.053C48.6848 115.919 48.5105 115.734 48.3896 115.515C48.2687 115.296 48.2051 115.05 48.2048 114.8C48.2048 114.689 48.2048 114.578 48.2048 114.471V46.5364C48.1895 45.7515 48.3824 44.9765 48.7638 44.2904C49.1452 43.6042 49.7016 43.0313 50.3762 42.6299C53.2111 40.929 56.0686 39.2962 58.9148 37.6264L61.5711 36.0701L61.3556 35.9482C61.3556 36.484 61.3556 37.0368 61.6391 37.5074C61.7921 37.7378 62.0047 37.9225 62.2543 38.0418C62.5039 38.1611 62.7811 38.2106 63.0565 38.1849C63.9892 38.131 64.8482 37.4904 65.6362 37.0368C66.4243 36.5832 67.1614 36.1693 67.9041 35.7214C69.3281 34.8745 70.361 33.5005 70.7787 31.8972C70.8426 31.618 70.8777 31.3331 70.8835 31.0467C70.8948 30.9251 70.8948 30.8027 70.8835 30.6811C70.8495 30.5365 70.9317 30.5733 70.8212 30.664C70.9378 30.5844 71.06 30.5134 71.1869 30.4514L73.1968 29.2721L79.1301 25.7938L81.4632 24.4274C81.5823 24.3565 81.7013 24.2828 81.8232 24.2176C82.0468 24.0914 82.2994 24.0254 82.5561 24.0261C82.8129 24.0268 83.0651 24.0942 83.288 24.2217C83.5109 24.3491 83.6968 24.5323 83.8277 24.7532C83.9585 24.9741 84.0298 25.2252 84.0344 25.4819C84.0344 25.6634 84.3179 25.6634 84.3179 25.4819C84.3116 25.1758 84.2261 24.8766 84.0697 24.6134C83.9133 24.3502 83.6914 24.132 83.4255 23.9801C83.1597 23.8283 82.8591 23.7478 82.5529 23.7467C82.2468 23.7456 81.9456 23.8238 81.6786 23.9738C81.3101 24.1722 80.9529 24.399 80.5901 24.6116L74.9912 27.8916L72.2726 29.4876C71.7737 29.7711 71.2266 30.0375 70.7588 30.3749C70.6001 30.4854 70.6001 30.5478 70.6001 30.7633C70.6079 31.5387 70.4269 32.3044 70.0728 32.9943C69.452 34.1663 68.4968 35.1274 67.3286 35.7554C66.3591 36.3224 65.3896 36.8894 64.4201 37.4337C63.8276 37.7738 63.0509 38.1197 62.3733 37.8107C61.6448 37.479 61.6391 36.6512 61.6391 35.9652C61.639 35.9404 61.6323 35.9161 61.6198 35.8946C61.6073 35.8732 61.5894 35.8554 61.5679 35.8431C61.5463 35.8308 61.522 35.8243 61.4971 35.8243C61.4723 35.8244 61.448 35.8309 61.4265 35.8433L53.2054 40.6625C52.2047 41.2494 51.1955 41.822 50.2033 42.423C49.4995 42.8507 48.9199 43.4552 48.5221 44.1763C48.1242 44.8974 47.922 45.7101 47.9354 46.5335C47.9354 47.8942 47.9354 49.255 47.9354 50.6129V114.598C47.9354 114.672 47.9354 114.748 47.9354 114.822C47.9385 115.071 47.9938 115.317 48.0979 115.543C48.202 115.769 48.3526 115.971 48.5397 116.135C48.7269 116.299 48.9465 116.422 49.1842 116.496C49.422 116.569 49.6726 116.592 49.9198 116.563C50.4868 116.489 51.0028 116.084 51.4875 115.792L52.9758 114.899L56.3776 112.849C58.946 111.309 61.5153 109.77 64.0856 108.234C68.9615 105.32 73.8384 102.406 78.7162 99.4942C80.7006 98.3035 83.1046 97.2971 83.9834 94.9782C84.2458 94.207 84.364 93.394 84.3321 92.58V25.4649C84.3321 25.4255 84.3164 25.3876 84.2885 25.3597C84.2606 25.3318 84.2227 25.3161 84.1832 25.3161C84.1438 25.3161 84.1059 25.3318 84.078 25.3597C84.0501 25.3876 84.0344 25.4255 84.0344 25.4649Z" fill="#EBEBEB"/>
<path d="M79.4791 38.2073L52.7578 53.6345C52.2418 53.935 51.8195 53.6147 51.8195 52.9258V50.1392C51.8261 49.7878 51.9144 49.4428 52.0772 49.1314C52.2401 48.82 52.473 48.5507 52.7578 48.3447L79.4791 32.9175C79.9979 32.634 80.4174 32.9373 80.4174 33.629V36.4128C80.4121 36.7644 80.3244 37.1099 80.1614 37.4215C79.9985 37.7332 79.7648 38.0023 79.4791 38.2073Z" fill="#90C5F9"/>
<path opacity="0.6" d="M79.4791 38.2073L52.7578 53.6345C52.2418 53.935 51.8195 53.6147 51.8195 52.9258V50.1392C51.8261 49.7878 51.9144 49.4428 52.0772 49.1314C52.2401 48.82 52.473 48.5507 52.7578 48.3447L79.4791 32.9175C79.9979 32.634 80.4174 32.9373 80.4174 33.629V36.4128C80.4121 36.7644 80.3244 37.1099 80.1614 37.4215C79.9985 37.7332 79.7648 38.0023 79.4791 38.2073Z" fill="white"/>
<path d="M77.3336 35.4636C77.394 35.4093 77.4701 35.3755 77.5509 35.367C77.6317 35.3586 77.7132 35.3758 77.7836 35.4164C77.854 35.4569 77.9098 35.5187 77.943 35.5929C77.9763 35.667 77.9852 35.7498 77.9686 35.8293C77.9616 36.0514 77.8982 36.268 77.7843 36.4587C77.6761 36.6517 77.5211 36.8145 77.3336 36.9321C77.2691 36.9788 77.1935 37.0075 77.1143 37.0155C77.0352 37.0235 76.9553 37.0103 76.8828 36.9774C76.6362 36.8329 76.6362 36.368 76.8828 35.9371C76.9911 35.744 77.146 35.5812 77.3336 35.4636ZM77.3336 35.0809C77.047 35.2585 76.8115 35.5076 76.6504 35.8038C76.2705 36.4587 76.2705 37.1645 76.6504 37.3828C76.7599 37.4337 76.8811 37.4542 77.0013 37.4422C77.1215 37.4302 77.2362 37.3862 77.3336 37.3148C77.6202 37.1372 77.8557 36.8881 78.0168 36.5919C78.3967 35.9371 78.3967 35.2312 78.0168 35.0129C77.9072 34.9621 77.786 34.9415 77.6659 34.9535C77.5457 34.9655 77.4309 35.0095 77.3336 35.0809Z" fill="white"/>
<path d="M78.7106 37.851C78.6663 37.8502 78.6239 37.833 78.5915 37.8028L77.6702 36.8814C77.6441 36.8493 77.6308 36.8087 77.6329 36.7673C77.635 36.726 77.6524 36.6869 77.6817 36.6576C77.711 36.6284 77.75 36.611 77.7914 36.6089C77.8327 36.6067 77.8734 36.62 77.9055 36.6461L78.8268 37.5675C78.8578 37.5988 78.8752 37.6411 78.8752 37.6851C78.8752 37.7292 78.8578 37.7714 78.8268 37.8028C78.7953 37.8326 78.7539 37.8498 78.7106 37.851Z" fill="white"/>
<path d="M55.2148 58.3256C55.9914 56.9806 55.9911 55.5266 55.2142 55.078C54.4372 54.6295 53.1779 55.3562 52.4013 56.7012C51.6248 58.0463 51.6251 59.5003 52.402 59.9488C53.1789 60.3974 54.4383 59.6707 55.2148 58.3256Z" fill="#90C5F9"/>
<path d="M57.6934 54.7147C57.6434 54.7149 57.5943 54.7019 57.551 54.677C57.5077 54.6521 57.4717 54.6162 57.4468 54.5729C57.4098 54.5078 57.4001 54.4308 57.4197 54.3585C57.4394 54.2863 57.4868 54.2248 57.5516 54.1874L66.7082 48.9061C66.7405 48.8856 66.7766 48.8718 66.8143 48.8656C66.852 48.8594 66.8906 48.8609 66.9277 48.87C66.9649 48.8791 66.9998 48.8956 67.0304 48.9185C67.061 48.9414 67.0866 48.9703 67.1057 49.0034C67.1249 49.0365 67.1371 49.0732 67.1417 49.1111C67.1463 49.1491 67.1432 49.1876 67.1326 49.2243C67.1219 49.261 67.1039 49.2952 67.0797 49.3248C67.0555 49.3544 67.0256 49.3788 66.9917 49.3965L57.8351 54.6778C57.7919 54.7023 57.743 54.715 57.6934 54.7147Z" fill="#90C5F9"/>
<path d="M57.6934 56.4476C57.6434 56.4478 57.5943 56.4348 57.551 56.4099C57.5077 56.385 57.4717 56.3491 57.4468 56.3058C57.4098 56.2407 57.4001 56.1637 57.4197 56.0915C57.4394 56.0192 57.4868 55.9577 57.5516 55.9203L63.1646 52.6772C63.197 52.6586 63.2328 52.6466 63.2698 52.6418C63.3069 52.637 63.3445 52.6395 63.3806 52.6492C63.4166 52.659 63.4504 52.6757 63.48 52.6985C63.5096 52.7213 63.5344 52.7497 63.553 52.7821C63.5716 52.8145 63.5837 52.8503 63.5885 52.8873C63.5933 52.9243 63.5907 52.962 63.581 52.998C63.5713 53.0341 63.5545 53.0679 63.5317 53.0975C63.5089 53.1271 63.4805 53.1519 63.4481 53.1705L57.8351 56.4107C57.7919 56.4352 57.743 56.4479 57.6934 56.4476Z" fill="#90C5F9"/>
<path d="M63.4735 71.6304L53.1774 77.5835C52.429 78.0173 51.8195 77.558 51.8195 76.5573V65.1442C51.8195 64.1435 52.429 62.9841 53.1774 62.5503L63.4735 56.5972C64.2248 56.1634 64.8314 56.6227 64.8314 57.6234V69.0336C64.8314 70.0372 64.2248 71.1966 63.4735 71.6304Z" fill="#90C5F9"/>
<path opacity="0.3" d="M63.4735 71.6304L53.1774 77.5835C52.429 78.0173 51.8195 77.558 51.8195 76.5573V65.1442C51.8195 64.1435 52.429 62.9841 53.1774 62.5503L63.4735 56.5972C64.2248 56.1634 64.8314 56.6227 64.8314 57.6234V69.0336C64.8314 70.0372 64.2248 71.1966 63.4735 71.6304Z" fill="white"/>
<path d="M63.9581 68.2193L52.7689 74.6799L56.0744 66.079L58.6909 68.4801L60.7037 65.4638L63.9581 68.2193Z" fill="#90C5F9"/>
<path d="M59.7783 63.8573C60.1768 63.1672 60.1766 62.4211 59.778 62.191C59.3794 61.9608 58.7332 62.3337 58.3347 63.0239C57.9363 63.714 57.9364 64.4601 58.3351 64.6902C58.7337 64.9204 59.3799 64.5475 59.7783 63.8573Z" fill="#90C5F9"/>
<path d="M79.0627 62.6895L68.7637 68.6427C68.0153 69.0764 67.4058 68.6172 67.4058 67.6165V56.2034C67.4058 55.2055 68.0153 54.0432 68.7637 53.6095L79.0627 47.6563C79.8111 47.2254 80.4177 47.6847 80.4177 48.6825V60.0871C80.4177 61.0963 79.8111 62.2586 79.0627 62.6895Z" fill="#90C5F9"/>
<path opacity="0.3" d="M79.0627 62.6895L68.7637 68.6427C68.0153 69.0764 67.4058 68.6172 67.4058 67.6165V56.2034C67.4058 55.2055 68.0153 54.0432 68.7637 53.6095L79.0627 47.6563C79.8111 47.2254 80.4177 47.6847 80.4177 48.6825V60.0871C80.4177 61.0963 79.8111 62.2586 79.0627 62.6895Z" fill="white"/>
<path d="M79.5076 59.0182L68.3185 65.4788L71.6239 56.8779L74.2405 59.279L76.2532 56.2627L79.5076 59.0182Z" fill="#90C5F9"/>
<path d="M75.6267 53.651C75.6067 54.0052 75.504 54.3497 75.3268 54.6569C75.1495 54.9641 74.9027 55.2255 74.6061 55.42C74.0391 55.7432 73.5856 55.4795 73.5856 54.8303C73.6055 54.4762 73.7082 54.1317 73.8855 53.8245C74.0627 53.5173 74.3095 53.2559 74.6061 53.0614C75.1702 52.7354 75.6267 52.999 75.6267 53.651Z" fill="#90C5F9"/>
<path d="M63.4735 103.336L53.1774 109.289C52.429 109.723 51.8195 109.264 51.8195 108.263C51.8195 107.262 52.429 106.103 53.1774 105.669L63.4735 99.7157C64.2248 99.282 64.8314 99.7413 64.8314 100.742C64.8314 101.745 64.2248 102.908 63.4735 103.336Z" fill="#90C5F9"/>
<path d="M79.0627 94.2093L68.7637 100.163C68.0153 100.596 67.4058 100.137 67.4058 99.1363C67.4058 98.1356 68.0153 96.9761 68.7637 96.5424L79.0627 90.5892C79.8111 90.1555 80.4177 90.6147 80.4177 91.6154C80.4177 92.6161 79.8111 93.7756 79.0627 94.2093Z" fill="#90C5F9"/>
<path d="M79.4791 87.4089L52.7578 102.836C52.2418 103.134 51.8195 102.816 51.8195 102.125V82.4309C51.825 82.0798 51.9128 81.7348 52.0758 81.4236C52.2387 81.1125 52.4723 80.8439 52.7578 80.6393L79.4791 65.2121C79.9979 64.9116 80.4174 65.2291 80.4174 65.9208V85.6145C80.4121 85.9661 80.3244 86.3116 80.1614 86.6232C79.9985 86.9348 79.7648 87.2039 79.4791 87.4089Z" fill="#E0E0E0"/>
<path d="M54.5718 82.9243C54.5091 82.9247 54.4479 82.9043 54.398 82.8663C54.3481 82.8282 54.3122 82.7747 54.296 82.714C54.2798 82.6534 54.2842 82.5891 54.3084 82.5312C54.3327 82.4733 54.3755 82.4251 54.4301 82.3942L77.5256 69.0704C77.5904 69.0332 77.6672 69.023 77.7394 69.0422C77.8116 69.0613 77.8733 69.1081 77.9112 69.1724C77.93 69.2046 77.9423 69.2402 77.9474 69.2772C77.9525 69.3141 77.9502 69.3517 77.9407 69.3878C77.9313 69.4239 77.9148 69.4577 77.8922 69.4874C77.8696 69.5171 77.8413 69.5421 77.8091 69.5608L54.7136 82.8846C54.6707 82.9101 54.6218 82.9238 54.5718 82.9243Z" fill="white"/>
<path d="M54.572 85.6064C54.5101 85.6058 54.4501 85.5849 54.4012 85.547C54.3523 85.5091 54.3172 85.4563 54.3011 85.3965C54.285 85.3368 54.289 85.2734 54.3123 85.2161C54.3356 85.1588 54.377 85.1107 54.4302 85.0791L77.5257 71.7553C77.5905 71.7214 77.6659 71.7139 77.7361 71.7342C77.8064 71.7546 77.866 71.8013 77.9026 71.8646C77.9392 71.9279 77.9499 72.0029 77.9325 72.0739C77.9151 72.145 77.8709 72.2065 77.8092 72.2457L54.7137 85.5695C54.6705 85.594 54.6216 85.6067 54.572 85.6064Z" fill="white"/>
<path d="M54.5718 88.2902C54.5091 88.2906 54.4479 88.2702 54.398 88.2322C54.3481 88.1941 54.3122 88.1406 54.296 88.0799C54.2798 88.0193 54.2842 87.955 54.3084 87.8971C54.3327 87.8392 54.3755 87.791 54.4301 87.7601L77.5256 74.4363C77.5904 74.3991 77.6672 74.389 77.7394 74.4081C77.8116 74.4272 77.8733 74.474 77.9112 74.5383C77.93 74.5705 77.9423 74.6061 77.9474 74.6431C77.9525 74.68 77.9502 74.7176 77.9407 74.7537C77.9313 74.7898 77.9148 74.8237 77.8922 74.8533C77.8696 74.883 77.8413 74.908 77.8091 74.9267L54.7136 88.2505C54.6707 88.276 54.6218 88.2897 54.5718 88.2902Z" fill="white"/>
<path d="M54.572 90.9722C54.5101 90.9716 54.4501 90.9507 54.4012 90.9128C54.3523 90.8749 54.3172 90.8221 54.3011 90.7623C54.285 90.7026 54.289 90.6392 54.3123 90.5819C54.3356 90.5246 54.377 90.4765 54.4302 90.4449L77.5257 77.1211C77.5581 77.1025 77.5939 77.0905 77.6309 77.0857C77.668 77.0809 77.7056 77.0834 77.7417 77.0932C77.7777 77.1029 77.8115 77.1196 77.8411 77.1424C77.8707 77.1652 77.8955 77.1936 77.9141 77.226C77.9327 77.2584 77.9448 77.2942 77.9496 77.3312C77.9544 77.3683 77.9518 77.4059 77.9421 77.4419C77.9324 77.478 77.9156 77.5118 77.8928 77.5414C77.87 77.571 77.8416 77.5958 77.8092 77.6144L54.7137 90.9382C54.6702 90.9617 54.6214 90.9734 54.572 90.9722Z" fill="white"/>
<path d="M54.5718 93.6574C54.5091 93.6579 54.4479 93.6375 54.398 93.5994C54.3481 93.5614 54.3122 93.5078 54.296 93.4472C54.2798 93.3865 54.2842 93.3222 54.3084 93.2644C54.3327 93.2065 54.3755 93.1583 54.4301 93.1273L77.5256 79.8035C77.5904 79.7696 77.6658 79.7621 77.736 79.7825C77.8062 79.8028 77.8659 79.8496 77.9025 79.9129C77.939 79.9762 77.9498 80.0512 77.9324 80.1222C77.915 80.1932 77.8708 80.2547 77.8091 80.294L54.7136 93.6178C54.6711 93.6442 54.6219 93.6579 54.5718 93.6574Z" fill="white"/>
<path d="M54.5725 96.3391C54.523 96.3388 54.4745 96.3256 54.4317 96.3007C54.3889 96.2758 54.3534 96.2402 54.3287 96.1974C54.2915 96.1326 54.2813 96.0558 54.3005 95.9836C54.3196 95.9114 54.3664 95.8497 54.4307 95.8118L77.5263 82.488C77.5586 82.4694 77.5944 82.4574 77.6314 82.4526C77.6685 82.4478 77.7061 82.4503 77.7422 82.46C77.7782 82.4698 77.812 82.4865 77.8416 82.5093C77.8712 82.5321 77.896 82.5605 77.9146 82.5929C77.9332 82.6253 77.9453 82.661 77.9501 82.6981C77.9549 82.7351 77.9524 82.7728 77.9426 82.8088C77.9329 82.8449 77.9161 82.8787 77.8933 82.9083C77.8705 82.9379 77.8421 82.9627 77.8097 82.9813L54.7142 96.3051C54.6708 96.3286 54.6219 96.3403 54.5725 96.3391Z" fill="white"/>
<path d="M54.5718 99.0232C54.5091 99.0237 54.4479 99.0033 54.398 98.9652C54.3481 98.9272 54.3122 98.8736 54.296 98.813C54.2798 98.7523 54.2842 98.688 54.3084 98.6301C54.3327 98.5723 54.3755 98.5241 54.4301 98.4931L77.5256 85.1693C77.5904 85.1354 77.6658 85.1279 77.736 85.1482C77.8062 85.1686 77.8659 85.2153 77.9025 85.2786C77.939 85.3419 77.9498 85.4169 77.9324 85.488C77.915 85.559 77.8708 85.6205 77.8091 85.6597L54.7136 98.9835C54.6707 99.009 54.6218 99.0227 54.5718 99.0232Z" fill="white"/>
<path d="M93.1144 62.6197L91.5921 64.4397L95.1583 70.1888L93.8798 71.6799L88.8621 65.7551C88.5728 65.4141 88.4056 64.9863 88.3871 64.5395C88.3686 64.0927 88.4999 63.6525 88.76 63.2888L90.7274 60.5361L93.1144 62.6197Z" fill="#945959"/>
<path d="M97.426 55.9918L96.0256 55.8642C95.4844 55.8142 94.9394 55.9016 94.4409 56.1181C93.9424 56.3346 93.5066 56.6734 93.1738 57.103L90.0923 61.0718C90.0923 61.0718 90.4977 62.58 93.0235 63.3936L96.6663 58.2597L97.426 55.9918Z" fill="#90C5F9"/>
<path opacity="0.3" d="M97.426 55.9918L96.0256 55.8642C95.4844 55.8142 94.9394 55.9016 94.4409 56.1181C93.9424 56.3346 93.5066 56.6734 93.1738 57.103L90.0923 61.0718C90.0923 61.0718 90.4977 62.58 93.0235 63.3936L96.6663 58.2597L97.426 55.9918Z" fill="black"/>
<path d="M96.6182 99.6175C96.8525 100.251 96.9416 100.929 96.879 101.602C96.8563 101.905 95.8556 102.169 95.5722 102.231C95.0036 102.477 94.4637 102.784 93.962 103.147C93.1331 103.787 92.1176 104.138 91.0704 104.148C89.568 104.148 88.8734 103.623 88.8734 103.101C88.8734 102.58 89.8514 101.993 90.5913 101.885C91.0676 101.814 93.463 100.406 93.8968 99.317L96.6182 99.6175Z" fill="#263238"/>
<path d="M96.6182 99.2463C96.8528 99.8799 96.9419 100.558 96.879 101.231C96.8563 101.537 95.8556 101.798 95.5722 101.863C95.0042 102.108 94.4643 102.414 93.962 102.776C93.1337 103.417 92.1179 103.769 91.0704 103.776C89.568 103.776 88.8734 103.255 88.8734 102.733C88.8734 102.212 89.8514 101.625 90.5913 101.514C91.0676 101.443 93.463 100.034 93.8968 98.9487L96.6182 99.2463Z" fill="#455A64"/>
<path d="M92.2866 102.858C92.3093 103.141 92.2866 103.572 92.2866 103.603C91.8898 103.714 91.4797 103.77 91.0676 103.771C89.5651 103.771 88.8706 103.249 88.8706 102.727C88.8706 102.206 89.8486 101.619 90.5885 101.508C90.5914 101.508 92.176 101.42 92.2866 102.858Z" fill="#FAFAFA"/>
<path d="M93.0915 101.511C93.1184 101.511 93.1448 101.504 93.1681 101.491C93.1859 101.481 93.2015 101.468 93.2142 101.452C93.2268 101.436 93.2362 101.418 93.2417 101.398C93.2473 101.379 93.2489 101.359 93.2465 101.338C93.244 101.318 93.2376 101.299 93.2276 101.281C92.8874 100.672 92.0937 100.598 92.0625 100.595C92.0217 100.593 91.9816 100.606 91.9505 100.632C91.9193 100.659 91.8995 100.696 91.8952 100.737C91.8921 100.778 91.9052 100.818 91.9317 100.85C91.9583 100.881 91.9961 100.9 92.037 100.904C92.2193 100.921 92.3959 100.977 92.5548 101.068C92.7137 101.159 92.8513 101.283 92.9583 101.431C92.9712 101.455 92.9904 101.476 93.0139 101.49C93.0374 101.504 93.0642 101.511 93.0915 101.511Z" fill="#FAFAFA"/>
<path d="M93.8089 101.012C93.8356 101.011 93.8616 101.004 93.8855 100.992C93.9211 100.971 93.9472 100.938 93.9583 100.898C93.9694 100.858 93.9646 100.816 93.945 100.78C93.8133 100.587 93.6405 100.425 93.439 100.307C93.2376 100.189 93.0125 100.117 92.7799 100.096C92.7598 100.095 92.7396 100.097 92.7203 100.103C92.7011 100.109 92.6833 100.119 92.6679 100.132C92.6525 100.145 92.6398 100.161 92.6306 100.179C92.6213 100.197 92.6157 100.217 92.6141 100.237C92.6124 100.257 92.6147 100.277 92.6208 100.296C92.627 100.315 92.6368 100.333 92.6499 100.349C92.6629 100.364 92.6788 100.377 92.6968 100.386C92.7147 100.395 92.7343 100.401 92.7544 100.403C92.7544 100.403 93.4149 100.468 93.6729 100.933C93.6865 100.957 93.7062 100.977 93.7301 100.991C93.7541 101.005 93.7813 101.012 93.8089 101.012Z" fill="#FAFAFA"/>
<path d="M94.4612 100.405C94.4878 100.403 94.5138 100.397 94.5377 100.385C94.5556 100.375 94.5713 100.361 94.584 100.345C94.5967 100.329 94.6061 100.31 94.6116 100.291C94.6171 100.271 94.6187 100.25 94.6162 100.23C94.6138 100.21 94.6073 100.19 94.5972 100.172C94.2571 99.5654 93.4633 99.4917 93.4321 99.4889C93.412 99.4869 93.3917 99.489 93.3724 99.4949C93.3531 99.5009 93.3351 99.5106 93.3195 99.5235C93.304 99.5364 93.2912 99.5523 93.2818 99.5702C93.2724 99.5881 93.2666 99.6076 93.2649 99.6278C93.2617 99.6687 93.2748 99.7092 93.3014 99.7405C93.3279 99.7718 93.3657 99.7914 93.4066 99.795C93.589 99.8129 93.7656 99.8694 93.9244 99.9608C94.0833 100.052 94.2208 100.176 94.3279 100.325C94.3408 100.349 94.36 100.369 94.3835 100.383C94.407 100.397 94.4338 100.405 94.4612 100.405Z" fill="#FAFAFA"/>
<path d="M99.1954 70.217L97.846 85.4741C97.846 85.4741 98.0302 87.3026 97.6532 91.5662C97.2762 95.8298 96.8424 99.484 96.8424 99.484C96.8424 99.484 94.7815 100.269 93.5654 99.1381C93.5654 99.1381 93.2195 88.7285 93.2167 85.2474C93.2167 81.5224 93.5654 70.3559 93.5654 70.3559L99.1954 70.217Z" fill="#37474F"/>
<path d="M98.2482 80.9389L97.5792 75.7171C97.5792 75.7171 95.334 75.4109 94.9427 74.2997C94.4552 72.9276 94.7245 71.1672 94.7245 71.1672L99.127 71.0027L98.2482 80.9389Z" fill="#263238"/>
<path d="M104.238 101.507C104.238 101.507 104.706 104.158 104.706 105.071C104.706 105.984 104.139 107.163 102.614 107.163C101.089 107.163 101.143 105.383 101.233 104.648C101.324 103.914 101.701 101.507 101.701 101.507H104.238Z" fill="#263238"/>
<path d="M104.21 101.224C104.21 101.224 104.667 103.815 104.667 104.705C104.667 105.595 104.122 106.752 102.623 106.752C101.123 106.752 101.186 105.011 101.273 104.291C101.361 103.571 101.73 101.224 101.73 101.224H104.21Z" fill="#455A64"/>
<path d="M102.801 104.402H103.013C103.3 104.401 103.582 104.473 103.833 104.61C104.084 104.747 104.297 104.946 104.451 105.187L104.567 105.368C104.451 105.787 104.194 106.153 103.84 106.405C103.486 106.657 103.056 106.779 102.622 106.752C101.675 106.752 101.352 106.057 101.264 105.366C101.403 105.076 101.621 104.832 101.893 104.662C102.165 104.491 102.48 104.401 102.801 104.402Z" fill="#FAFAFA"/>
<path d="M103.688 69.9562L104.383 84.9809C104.954 87.962 105.154 91.0023 104.978 94.0325C104.63 98.6165 104.573 101.749 104.573 101.749C104.573 101.749 102.572 102.792 101.554 101.573L99.4957 84.5471L98.0783 75.2375C98.0783 75.2375 95.3228 75.0901 94.77 73.6415C94.4182 72.6306 94.2037 71.577 94.1322 70.509L103.688 69.9562Z" fill="#37474F"/>
<path d="M103.561 103.656C103.594 103.655 103.625 103.643 103.651 103.622C103.676 103.602 103.695 103.574 103.703 103.542C103.711 103.51 103.709 103.476 103.697 103.446C103.685 103.416 103.663 103.39 103.635 103.373C103.601 103.353 102.799 102.928 102.098 103.373C102.065 103.395 102.041 103.43 102.032 103.47C102.024 103.51 102.031 103.551 102.053 103.585C102.064 103.602 102.078 103.617 102.095 103.629C102.111 103.64 102.13 103.648 102.15 103.652C102.17 103.657 102.19 103.657 102.21 103.653C102.23 103.649 102.249 103.642 102.266 103.631C102.813 103.279 103.479 103.631 103.487 103.631C103.51 103.645 103.535 103.654 103.561 103.656Z" fill="#FAFAFA"/>
<path d="M103.561 102.987C103.594 102.986 103.625 102.974 103.651 102.954C103.676 102.933 103.695 102.905 103.703 102.873C103.711 102.841 103.709 102.808 103.697 102.777C103.685 102.747 103.663 102.721 103.635 102.704C103.601 102.684 102.799 102.259 102.098 102.704C102.065 102.726 102.041 102.761 102.032 102.801C102.024 102.841 102.031 102.882 102.053 102.916C102.064 102.933 102.078 102.948 102.095 102.96C102.111 102.971 102.13 102.979 102.15 102.983C102.17 102.988 102.19 102.988 102.21 102.984C102.23 102.981 102.249 102.973 102.266 102.962C102.813 102.61 103.479 102.962 103.487 102.962C103.509 102.977 103.535 102.986 103.561 102.987Z" fill="#FAFAFA"/>
<path d="M103.561 102.319C103.594 102.317 103.625 102.305 103.651 102.285C103.676 102.264 103.695 102.236 103.703 102.204C103.711 102.172 103.709 102.139 103.697 102.108C103.685 102.078 103.663 102.052 103.635 102.035C103.601 102.015 102.799 101.59 102.098 102.035C102.065 102.058 102.041 102.093 102.032 102.132C102.024 102.172 102.031 102.213 102.053 102.248C102.064 102.265 102.078 102.279 102.095 102.291C102.111 102.302 102.13 102.31 102.15 102.315C102.17 102.319 102.19 102.319 102.21 102.315C102.23 102.312 102.249 102.304 102.266 102.293C102.813 101.942 103.479 102.293 103.487 102.293C103.509 102.309 103.535 102.317 103.561 102.319Z" fill="#FAFAFA"/>
<path d="M93.7354 59.2031L93.3329 71.3505C93.3329 71.3505 97.4406 74.3327 103.986 72.0705V58.4349C103.989 57.9417 103.808 57.4652 103.478 57.0983C103.148 56.7315 102.694 56.5005 102.203 56.4505L97.4264 55.9912C96.9702 55.9448 96.5093 55.9924 96.0722 56.1311C95.6352 56.2699 95.2312 56.4967 94.8853 56.7978C94.5393 57.0988 94.2588 57.4675 94.061 57.8813C93.8633 58.295 93.7525 58.7449 93.7354 59.2031Z" fill="#90C5F9"/>
<path opacity="0.1" d="M93.7354 59.2031L93.3329 71.3505C93.3329 71.3505 97.4406 74.3327 103.986 72.0705V58.4349C103.989 57.9417 103.808 57.4652 103.478 57.0983C103.148 56.7315 102.694 56.5005 102.203 56.4505L97.4264 55.9912C96.9702 55.9448 96.5093 55.9924 96.0722 56.1311C95.6352 56.2699 95.2312 56.4967 94.8853 56.7978C94.5393 57.0988 94.2588 57.4675 94.061 57.8813C93.8633 58.295 93.7525 58.7449 93.7354 59.2031Z" fill="black"/>
<path d="M107.212 62.112L108.431 65.5138L116.462 67.1665V69.3409L107.246 68.7881C106.908 68.769 106.581 68.657 106.302 68.4645C106.023 68.272 105.802 68.0063 105.664 67.6967L103.997 63.983L107.212 62.112Z" fill="#945959"/>
<path d="M102.214 56.4616V58.0605C102.214 59.3464 102.464 60.62 102.949 61.811L104.338 65.2128C104.338 65.2128 107.436 64.5494 107.983 63.0413L105.999 58.4035C105.764 57.8555 105.379 57.3852 104.887 57.0471C104.396 56.709 103.819 56.5168 103.224 56.4928L102.214 56.4616Z" fill="#90C5F9"/>
<path opacity="0.3" d="M102.214 56.4616V58.0605C102.214 59.3464 102.464 60.62 102.949 61.811L104.338 65.2128C104.338 65.2128 107.436 64.5494 107.983 63.0413L105.999 58.4035C105.764 57.8555 105.379 57.3852 104.887 57.0471C104.396 56.709 103.819 56.5168 103.224 56.4928L102.214 56.4616Z" fill="black"/>
<path d="M94.716 47.1277C94.716 47.1277 92.947 48.6784 94.4835 52.1397L96.2836 47.4622L94.716 47.1277Z" fill="#263238"/>
<path d="M100.55 56.2943L97.5651 58.5253V51.4269H100.55V56.2943Z" fill="#945959"/>
<path d="M97.5651 55.4977C98.665 55.0725 100.063 54.3638 100.063 53.6948L100.425 51.4269H97.5651V55.4977Z" fill="#703838"/>
<path d="M98.1748 46.1688C97.089 46.1688 94.7729 46.7726 94.515 49.6132C94.257 52.4537 94.6652 54.8661 95.9721 54.8661C98.5376 54.8661 101.001 54.5401 101.021 50.3304C101.049 46.6366 99.2407 46.1688 98.1748 46.1688Z" fill="#945959"/>
<path d="M100.55 52.8278L100.131 51.5436C100.099 51.5701 100.061 51.587 100.02 51.5925C99.9796 51.5979 99.9382 51.5916 99.901 51.5744C99.8638 51.5571 99.8323 51.5295 99.8102 51.495C99.7881 51.4604 99.7763 51.4202 99.7762 51.3792V49.0915C99.7762 49.0915 98.7103 48.791 98.8237 47.8923C98.8237 47.8923 98.2766 48.3799 96.1845 48.3799C94.0924 48.3799 93.5821 46.6081 93.7919 45.6188C93.7919 45.6188 94.1803 46.0213 95.2858 46.0213C96.3914 46.0213 101.001 44.6294 101.12 47.4132C101.12 47.4132 101.508 46.8463 102.138 47.4132L101.33 47.8923C101.33 47.8923 102.285 47.864 102.138 49.2701C102.019 50.3756 101.557 52.4791 101.367 53.3211C101.313 53.5527 101.173 53.7553 100.975 53.888L100.55 54.1715V52.8278Z" fill="#263238"/>
<path d="M96.5505 50.4632V52.1386L95.5725 51.8381L96.5505 50.4632Z" fill="#703838"/>
<path d="M98.2936 50.7523C98.2941 50.8203 98.2745 50.8868 98.2371 50.9436C98.1998 51.0004 98.1464 51.0448 98.0838 51.0712C98.0212 51.0976 97.9521 51.1048 97.8854 51.0919C97.8187 51.079 97.7573 51.0465 97.709 50.9987C97.6608 50.9508 97.6278 50.8897 97.6143 50.8231C97.6009 50.7565 97.6075 50.6874 97.6334 50.6245C97.6593 50.5617 97.7032 50.5079 97.7597 50.4701C97.8162 50.4323 97.8826 50.4121 97.9505 50.4121C98.041 50.4121 98.1278 50.4479 98.1921 50.5116C98.2563 50.5753 98.2928 50.6618 98.2936 50.7523Z" fill="#263238"/>
<path d="M95.7393 50.5144C95.7393 50.5817 95.7194 50.6474 95.682 50.7034C95.6446 50.7593 95.5915 50.8029 95.5293 50.8287C95.4672 50.8544 95.3988 50.8612 95.3328 50.848C95.2668 50.8349 95.2062 50.8025 95.1586 50.7549C95.111 50.7073 95.0786 50.6467 95.0655 50.5807C95.0524 50.5148 95.0591 50.4464 95.0849 50.3842C95.1106 50.322 95.1542 50.2689 95.2101 50.2315C95.2661 50.1941 95.3319 50.1742 95.3991 50.1742C95.4891 50.1749 95.5752 50.211 95.6389 50.2747C95.7025 50.3383 95.7386 50.4244 95.7393 50.5144Z" fill="#263238"/>
<path d="M94.9827 49.8061L95.6517 49.4092C95.6517 49.4092 95.3938 49.1428 95.1386 49.3043C95.0651 49.3625 95.0108 49.4415 94.983 49.5311C94.9552 49.6206 94.9551 49.7165 94.9827 49.8061Z" fill="#263238"/>
<path d="M98.6451 50.0521L97.9789 49.6552C97.9789 49.6552 98.234 49.3887 98.4892 49.5503C98.5627 49.6085 98.617 49.6875 98.6448 49.7771C98.6726 49.8666 98.6727 49.9625 98.6451 50.0521Z" fill="#263238"/>
<path d="M96.0906 52.8163C96.4158 52.8402 96.7396 52.7533 97.0091 52.5696C97.0091 52.5696 97.0714 53.0544 96.6661 53.1366C96.548 53.1565 96.4267 53.1356 96.3221 53.0773C96.2176 53.0191 96.1359 52.9271 96.0906 52.8163Z" fill="#703838"/>
<path d="M100.298 51.0678C99.9099 51.7368 100.015 52.5504 100.551 52.8283C100.896 53.0069 101.92 52.6213 102.305 51.9523C102.691 51.2833 102.475 50.7078 101.948 50.4045C101.421 50.1011 100.684 50.396 100.298 51.0678Z" fill="#945959"/>
<path d="M100.102 51.5639L101.282 50.2854L100.434 49.7751L100.102 51.5639Z" fill="#253239"/>
<path d="M112.468 91.0217H108.474V92.0905C108.474 92.9124 108.586 93.7306 108.805 94.5228L112.014 106.146C112.041 106.246 112.1 106.335 112.182 106.398C112.265 106.462 112.365 106.496 112.469 106.496C112.573 106.496 112.674 106.462 112.757 106.398C112.839 106.335 112.898 106.246 112.924 106.146L116.133 94.5228C116.352 93.7295 116.462 92.9104 116.462 92.0876V91.0217H112.468Z" fill="#FFA8A7"/>
<path d="M113.517 103.371C113.192 103.535 112.833 103.621 112.469 103.621C112.105 103.621 111.746 103.535 111.422 103.371C111.342 103.325 111.269 103.268 111.204 103.203L112.014 106.14C112.041 106.241 112.1 106.33 112.182 106.393C112.265 106.456 112.365 106.491 112.469 106.491C112.573 106.491 112.674 106.456 112.757 106.393C112.839 106.33 112.898 106.241 112.924 106.14L113.735 103.203C113.669 103.268 113.596 103.324 113.517 103.371Z" fill="#37474F"/>
<path d="M108.474 38.2565V92.3851C108.474 92.9748 108.865 93.5644 109.644 94.0152C111.204 94.9138 113.732 94.9138 115.291 94.0152C116.071 93.5644 116.462 92.9748 116.462 92.3851V38.2565H108.474Z" fill="#90C5F9"/>
<path d="M115.292 47.2892C116.854 48.1878 116.854 49.6478 115.292 50.5493C113.73 51.4507 111.204 51.4507 109.645 50.5493C108.085 49.6478 108.085 48.1878 109.645 47.2892C111.204 46.3905 113.733 46.3877 115.292 47.2892Z" fill="#E6E6E6"/>
<path d="M116.459 40.0544H108.474V48.919H116.459V40.0544Z" fill="#E6E6E6"/>
<path d="M115.291 47.3601C113.732 48.2616 111.204 48.2616 109.644 47.3601C108.865 46.9093 108.474 46.3197 108.474 45.73V46.8328C108.474 47.4224 108.865 48.0121 109.644 48.4628C111.204 49.3643 113.732 49.3643 115.291 48.4628C116.071 48.0121 116.462 47.4224 116.462 46.8328V45.73C116.462 46.3197 116.071 46.9207 115.291 47.3601Z" fill="#90C5F9"/>
<path d="M115.291 43.9913C113.732 44.8899 111.204 44.8899 109.644 43.9913C108.865 43.5405 108.474 42.9509 108.474 42.3584V43.4612C108.474 44.0508 108.865 44.6405 109.644 45.0912C111.204 45.9927 113.732 45.9927 115.291 45.0912C116.071 44.6405 116.462 44.0508 116.462 43.4612V42.3584C116.462 42.9509 116.071 43.5405 115.291 43.9913Z" fill="#90C5F9"/>
<path d="M115.292 38.416C116.854 39.3174 116.854 40.7774 115.292 41.676C113.73 42.5747 111.204 42.5775 109.645 41.676C108.085 40.7746 108.085 39.3174 109.645 38.416C111.204 37.5145 113.733 37.523 115.292 38.416Z" fill="#F28F8F"/>
<path d="M116.459 33.2761H108.474V40.0542H116.459V33.2761Z" fill="#F28F8F"/>
<path d="M115.292 31.6458C116.854 32.5473 116.854 34.0073 115.292 34.9059C113.73 35.8046 111.204 35.8074 109.645 34.9059C108.085 34.0044 108.085 32.5445 109.645 31.643C111.204 30.7415 113.733 30.7614 115.292 31.6458Z" fill="#FFA8A7"/>
<path d="M116.465 65.9782C116.241 66.1039 115.99 66.1699 115.733 66.1699C115.477 66.1699 115.225 66.1039 115.002 65.9782C113.769 65.397 114.401 69.4395 116.465 68.8896C118.529 68.3396 117.882 65.2241 116.465 65.2241V65.9782Z" fill="#945959"/>
</svg>
