<svg width="112" height="105" viewBox="0 0 112 105" fill="none" xmlns="http://www.w3.org/2000/svg">
<path d="M97.2826 0.514893H12.9724V51.6418H97.2826V0.514893Z" fill="white" stroke="#263238" stroke-width="0.155944" stroke-linecap="round" stroke-linejoin="round"/>
<path d="M61.5601 7.23267H15.8408V11.227H61.5601V7.23267Z" stroke="#263238" stroke-width="0.155944" stroke-linecap="round" stroke-linejoin="round"/>
<path d="M61.5601 13.4919H15.8408V36.5678H61.5601V13.4919Z" stroke="#263238" stroke-width="0.155944" stroke-linecap="round" stroke-linejoin="round"/>
<path d="M95.1141 30.1735H64.1504V48.5546H95.1141V30.1735Z" stroke="#263238" stroke-width="0.155944" stroke-linecap="round" stroke-linejoin="round"/>
<path d="M64.1504 48.5546L95.1141 30.1735" stroke="#263238" stroke-width="0.155944" stroke-linecap="round" stroke-linejoin="round"/>
<path d="M95.1141 48.5546L64.1504 30.1735" stroke="#263238" stroke-width="0.155944" stroke-linecap="round" stroke-linejoin="round"/>
<path d="M53.546 40.0726H61.0381" stroke="#263238" stroke-width="0.155944" stroke-linecap="round" stroke-linejoin="round"/>
<path d="M40.2562 40.0726H51.9908" stroke="#263238" stroke-width="0.155944" stroke-linecap="round" stroke-linejoin="round"/>
<path d="M22.1575 40.0726H37.9921" stroke="#263238" stroke-width="0.155944" stroke-linecap="round" stroke-linejoin="round"/>
<path d="M16.0791 40.0726H20.3192" stroke="#263238" stroke-width="0.155944" stroke-linecap="round" stroke-linejoin="round"/>
<path d="M27.1049 42.1915H61.0379" stroke="#263238" stroke-width="0.155944" stroke-linecap="round" stroke-linejoin="round"/>
<path d="M16.0791 42.1915H25.4098" stroke="#263238" stroke-width="0.155944" stroke-linecap="round" stroke-linejoin="round"/>
<path d="M45.0614 44.3121H61.0386" stroke="#263238" stroke-width="0.155944" stroke-linecap="round" stroke-linejoin="round"/>
<path d="M29.2267 44.3121H42.7999" stroke="#263238" stroke-width="0.155944" stroke-linecap="round" stroke-linejoin="round"/>
<path d="M16.0791 44.3121H27.6711" stroke="#263238" stroke-width="0.155944" stroke-linecap="round" stroke-linejoin="round"/>
<path d="M42.5179 46.4341H61.0391" stroke="#263238" stroke-width="0.155944" stroke-linecap="round" stroke-linejoin="round"/>
<path d="M27.3884 46.4341H40.679" stroke="#263238" stroke-width="0.155944" stroke-linecap="round" stroke-linejoin="round"/>
<path d="M16.0791 46.4341H25.835" stroke="#263238" stroke-width="0.155944" stroke-linecap="round" stroke-linejoin="round"/>
<path d="M52.8387 48.5544H61.0387" stroke="#263238" stroke-width="0.155944" stroke-linecap="round" stroke-linejoin="round"/>
<path d="M33.4691 48.5544H51.2824" stroke="#263238" stroke-width="0.155944" stroke-linecap="round" stroke-linejoin="round"/>
<path d="M25.4103 48.5544H31.9142" stroke="#263238" stroke-width="0.155944" stroke-linecap="round" stroke-linejoin="round"/>
<path d="M19.0483 48.5544H22.8656" stroke="#263238" stroke-width="0.155944" stroke-linecap="round" stroke-linejoin="round"/>
<path d="M16.0791 48.5544H19.0484" stroke="#263238" stroke-width="0.155944" stroke-linecap="round" stroke-linejoin="round"/>
<path d="M97.2826 0.514893H12.9724V4.20193H97.2826V0.514893Z" fill="#90C5F9" stroke="#263238" stroke-width="0.155944" stroke-linecap="round" stroke-linejoin="round"/>
<path d="M95.3825 1.62091H25.083V3.10801H95.3825V1.62091Z" fill="white" stroke="#263238" stroke-width="0.155944" stroke-linecap="round" stroke-linejoin="round"/>
<path d="M23.6174 1.62091H14.2695V3.10801H23.6174V1.62091Z" fill="white" stroke="#263238" stroke-width="0.155944" stroke-linecap="round" stroke-linejoin="round"/>
<path d="M102.124 9.3548H70.1699V27.5442H102.124V9.3548Z" fill="white" stroke="#263238" stroke-width="0.155944" stroke-linecap="round" stroke-linejoin="round"/>
<path d="M102.124 24.1011H70.1699V27.5423H102.124V24.1011Z" fill="white" stroke="#263238" stroke-width="0.155944" stroke-linecap="round" stroke-linejoin="round"/>
<path d="M90.3534 17.0475L81.9445 12.1929V21.9021L90.3534 17.0475Z" fill="#90C5F9" stroke="#263238" stroke-width="0.155944" stroke-linecap="round" stroke-linejoin="round"/>
<path d="M71.2201 8.39896H69.3815V10.2376H71.2201V8.39896Z" fill="white" stroke="#263238" stroke-width="0.155944" stroke-linecap="round" stroke-linejoin="round"/>
<path d="M102.96 8.39896H101.121V10.2376H102.96V8.39896Z" fill="white" stroke="#263238" stroke-width="0.155944" stroke-linecap="round" stroke-linejoin="round"/>
<path d="M71.2201 26.2849H69.3815V28.1235H71.2201V26.2849Z" fill="white" stroke="#263238" stroke-width="0.155944" stroke-linecap="round" stroke-linejoin="round"/>
<path d="M102.96 26.2849H101.121V28.1235H102.96V26.2849Z" fill="white" stroke="#263238" stroke-width="0.155944" stroke-linecap="round" stroke-linejoin="round"/>
<path d="M31.9823 24.3183V27.5137H31.1884V20.4051H31.9823V23.6005H33.7299V20.4051H34.5214V27.5186H33.7299V24.3232L31.9823 24.3183Z" fill="#263238"/>
<path d="M36.3602 27.5186V21.1277H35.05V20.4051H38.4544V21.1277H37.1443V27.5186H36.3602Z" fill="#263238"/>
<path d="M41.6132 27.5101H40.8512L39.6739 21.8567V27.5273H38.9832V20.4064H40.0893L41.2593 26.0795L42.3875 20.399H43.4936V27.5126H42.7415V21.8001L41.6132 27.5101Z" fill="#263238"/>
<path d="M44.3068 27.5186V20.4051H45.0982V26.796H47.1384V27.5186H44.3068Z" fill="#263238"/>
<path d="M97.8237 26.6926L99.5222 34.3124C99.538 34.3627 99.5682 34.4073 99.6092 34.4404C99.6502 34.4736 99.7 34.494 99.7525 34.499C99.805 34.5039 99.8578 34.4933 99.9042 34.4685C99.9507 34.4436 99.9888 34.4056 100.014 34.3591L101.115 32.0412C101.137 31.9946 101.171 31.9553 101.215 31.9282C101.259 31.9011 101.309 31.8874 101.361 31.8888L103.922 32.0289C103.976 32.0314 104.03 32.0173 104.076 31.9885C104.122 31.9598 104.159 31.9176 104.18 31.8678C104.202 31.8179 104.208 31.7627 104.197 31.7093C104.187 31.656 104.16 31.6072 104.121 31.5693L98.2661 26.4296C98.2238 26.3899 98.1696 26.365 98.1119 26.3587C98.0542 26.3525 97.996 26.3651 97.9461 26.3948C97.8962 26.4245 97.8573 26.4695 97.8352 26.5232C97.8131 26.577 97.8091 26.6364 97.8237 26.6926Z" fill="#263238"/>
<path d="M104.819 33.4542H102.526V35.7475H104.819V33.4542Z" fill="white" stroke="#263238" stroke-width="0.116958" stroke-linecap="round" stroke-linejoin="round"/>
<path d="M102.684 33.2692H102.34V33.6133H102.684V33.2692Z" fill="#263238"/>
<path d="M103.851 33.2692H103.507V33.6133H103.851V33.2692Z" fill="#263238"/>
<path d="M104.965 33.2692H104.621V33.6133H104.965V33.2692Z" fill="#263238"/>
<path d="M102.684 34.4309H102.34V34.7751H102.684V34.4309Z" fill="#263238"/>
<path d="M103.851 34.4309H103.507V34.7751H103.851V34.4309Z" fill="#263238"/>
<path d="M104.965 34.4309H104.621V34.7751H104.965V34.4309Z" fill="#263238"/>
<path d="M102.684 35.5474H102.34V35.8915H102.684V35.5474Z" fill="#263238"/>
<path d="M103.851 35.5474H103.507V35.8915H103.851V35.5474Z" fill="#263238"/>
<path d="M104.965 35.5474H104.621V35.8915H104.965V35.5474Z" fill="#263238"/>
<path d="M42.3393 68.8097L41.6118 68.9522L39.5052 58.5376L40.2328 58.395L42.3393 68.8097Z" fill="white" stroke="#263238" stroke-width="0.155944" stroke-linecap="round" stroke-linejoin="round"/>
<path d="M55.4065 68.6012H41.5679V69.0953H55.4065V68.6012Z" fill="white" stroke="#263238" stroke-width="0.155944" stroke-linecap="round" stroke-linejoin="round"/>
<path d="M80.6186 94.5458H59.2362V95.5905H80.6186V94.5458Z" fill="white" stroke="#263238" stroke-width="0.155944" stroke-linecap="round" stroke-linejoin="round"/>
<path d="M83.845 62.3548C83.845 62.3548 81.8196 78.4106 81.2591 83.3856C80.6987 88.3607 82.9011 103.979 82.9011 103.979H81.6156L79.0912 86.2812H60.2283L59.0214 103.662H58.0579L59.6752 83.4668V81.2717C59.6752 81.1594 59.6974 81.0482 59.7404 80.9444C59.7833 80.8406 59.8463 80.7463 59.9258 80.6669C60.0052 80.5875 60.0995 80.5245 60.2033 80.4815C60.3071 80.4385 60.4183 80.4164 60.5306 80.4164H78.602L81.4312 60.5899C81.4312 60.5899 81.7507 58.744 83.3558 59.3068C84.9609 59.8697 83.845 62.3548 83.845 62.3548Z" fill="#263238" stroke="#263238" stroke-width="0.155944" stroke-linecap="round" stroke-linejoin="round"/>
<path d="M83.3639 59.3081C83.322 59.2919 83.2794 59.278 83.2361 59.2663C83.359 59.5121 83.4327 59.9398 83.2852 60.7411C82.9632 62.5084 79.5736 83.5393 79.5736 83.5393H59.6636L58.0684 103.897H59.0319L61.1311 86.2677H79.0943L81.6187 103.965H82.9042C82.9042 103.965 80.692 88.3496 81.2623 83.3721C81.8325 78.3946 84.2266 62.7075 84.2266 62.7075C84.2266 62.7075 84.9714 59.8685 83.3639 59.3081Z" fill="white" stroke="#263238" stroke-width="0.155944" stroke-linecap="round" stroke-linejoin="round"/>
<path d="M64.1249 63.7568L54.079 64.327L49.598 66.9178L48.7131 68.4344L49.4063 68.5597L50.9868 67.8641C50.9868 67.8641 52.7566 67.5495 53.2629 67.3602C53.7693 67.171 55.1532 65.6519 55.1532 65.6519L64.4936 67.1685L64.1249 63.7568Z" fill="white" stroke="#263238" stroke-width="0.155944" stroke-linecap="round" stroke-linejoin="round"/>
<path d="M49.6357 94.8046C49.6357 94.8046 47.8659 97.9017 47.6127 97.9017C47.3595 97.9017 45.3095 98.3565 43.6799 97.5355C42.0502 96.7145 40.8359 96.0828 40.3296 96.8399C40.0764 97.194 39.8645 97.5758 39.6979 97.9779C39.6979 97.9779 41.2145 100.126 42.6057 100.883C43.997 101.64 44.5918 101.25 46.047 102.071C47.5021 102.892 47.6275 103.523 48.827 103.273C50.0265 103.022 50.7246 99.1652 51.0392 98.7227C51.3538 98.2803 52.5484 95.8149 52.5484 95.8149L49.6357 94.8046Z" fill="white" stroke="#263238" stroke-width="0.155944" stroke-linecap="round" stroke-linejoin="round"/>
<path d="M47.9175 97.5809C47.7725 97.7776 47.6717 97.9005 47.6127 97.9005C47.3669 97.9005 45.3095 98.3552 43.6799 97.5342C42.0502 96.7132 40.8359 96.0815 40.3296 96.8386C40.0764 97.1927 39.8645 97.5745 39.6979 97.9767C39.6979 97.9767 41.2145 100.125 42.6057 100.882C43.997 101.639 44.5918 101.248 46.047 102.069C47.5021 102.89 47.6275 103.522 48.827 103.271C49.8913 103.045 50.5476 99.9996 50.9163 98.9967C49.8249 98.7165 48.6549 98.0504 47.9175 97.5809Z" fill="#263238" stroke="#263238" stroke-width="0.155944" stroke-linecap="round" stroke-linejoin="round"/>
<path d="M48.8118 103.273C48.8478 103.264 48.8832 103.252 48.9175 103.238C48.9294 103.234 48.9409 103.229 48.9519 103.223L49.0208 103.189L49.0601 103.164L49.1215 103.123L49.1609 103.091L49.2199 103.039L49.2567 103.002C49.2784 102.982 49.299 102.961 49.3182 102.938L49.3526 102.899C49.3723 102.874 49.3944 102.85 49.414 102.823L49.4435 102.786L49.5148 102.683L49.532 102.658C49.5812 102.584 49.6279 102.503 49.6746 102.412C48.4456 102.412 47.6098 101.638 46.285 101.183C44.643 100.616 44.5496 101.073 43.3501 100.249C42.1506 99.4258 42.0228 98.9244 42.0228 98.9244L43.0871 97.2431C41.7425 96.5794 40.7618 96.1714 40.3169 96.8375C40.0637 97.1916 39.8518 97.5734 39.6852 97.9756C39.6852 97.9756 41.2018 100.124 42.593 100.881C43.9843 101.638 44.5791 101.247 46.0343 102.068C47.4894 102.889 47.6123 103.523 48.8118 103.273Z" fill="white" stroke="#263238" stroke-width="0.155944" stroke-linecap="round" stroke-linejoin="round"/>
<path d="M51.5301 79.0067L45.911 93.0346L52.6091 96.8273C52.6091 96.8273 59.7374 80.6511 59.8111 80.334C59.8849 80.0169 61.1385 79.7023 61.1385 79.7023L66.2512 80.4004C66.2512 80.4004 58.5428 76.9886 56.2691 76.4823C53.9955 75.9759 52.4764 76.3544 51.5301 79.0067Z" fill="#90C5F9" stroke="#263238" stroke-width="0.155944" stroke-linecap="round" stroke-linejoin="round"/>
<path d="M57.3629 89.9171L60.5239 92.8864C60.5239 92.8864 59.4497 95.5411 58.1863 97.2469C56.9229 98.9528 56.7951 99.9508 57.3629 100.342C57.9307 100.732 59.0687 100.659 59.8209 100.152C60.573 99.646 64.8746 95.4133 65.3809 94.6562C65.5437 94.3985 65.6084 94.0909 65.5632 93.7895C65.5181 93.4881 65.3662 93.213 65.1351 93.0142C64.9459 92.8864 60.7771 87.8942 60.7771 87.8942L57.3629 89.9171Z" fill="white" stroke="#263238" stroke-width="0.155944" stroke-linecap="round" stroke-linejoin="round"/>
<path d="M65.3884 94.6578C65.5511 94.4002 65.6158 94.0926 65.5707 93.7912C65.5256 93.4898 65.3736 93.2146 65.1426 93.0159C65.0541 92.9544 64.0733 91.8065 63.0631 90.6119C62.1389 91.7303 60.4699 92.3547 60.1012 92.485L60.5313 92.8881C60.5313 92.8881 59.4572 95.5427 58.1937 97.2486C56.9303 98.9545 56.8025 99.9524 57.3703 100.343C57.9381 100.734 59.0762 100.66 59.8283 100.154C60.5805 99.6476 64.882 95.4149 65.3884 94.6578Z" fill="#263238" stroke="#263238" stroke-width="0.155944" stroke-linecap="round" stroke-linejoin="round"/>
<path d="M65.2165 93.0848C65.1844 93.5196 65.0245 93.9352 64.7569 94.2794C63.9998 95.2257 59.7646 99.1438 59.7646 99.1438L57.7982 97.787C56.8937 99.1684 56.847 99.9992 57.3509 100.343C57.9211 100.724 59.0567 100.66 59.8089 100.154C60.561 99.6477 64.8626 95.415 65.3689 94.6579C65.5245 94.4169 65.594 94.1304 65.5664 93.8448C65.5387 93.5593 65.4154 93.2915 65.2165 93.0848Z" fill="white" stroke="#263238" stroke-width="0.155944" stroke-linecap="round" stroke-linejoin="round"/>
<path d="M63.4287 92.7623C63.4351 92.8948 63.4017 93.0261 63.3328 93.1393C63.2638 93.2526 63.1625 93.3426 63.042 93.3978C62.9214 93.4529 62.7871 93.4707 62.6563 93.4488C62.5255 93.427 62.4043 93.3664 62.3083 93.275C62.2122 93.1836 62.1458 93.0655 62.1175 92.936C62.0892 92.8064 62.1003 92.6714 62.1495 92.5482C62.1986 92.4251 62.2835 92.3195 62.3933 92.2451C62.503 92.1706 62.6325 92.1308 62.7651 92.1306C62.9368 92.1266 63.103 92.1909 63.2274 92.3093C63.3518 92.4277 63.4242 92.5906 63.4287 92.7623Z" fill="white"/>
<path d="M65.4523 69.9519L65.1352 71.026C65.1352 71.026 55.5957 71.1514 51.4244 72.2895C47.2531 73.4275 46.1175 74.0592 46.4321 76.3968C46.7468 78.7344 53.1942 92.1995 53.1942 92.1995C54.4916 91.8354 55.7589 91.371 56.9844 90.8107C58.4358 90.1033 59.8119 89.2509 61.0918 88.2666L56.2888 79.1031C56.2888 79.1031 61.7874 80.2412 67.9153 80.809C74.0431 81.3768 76.6363 80.7451 77.6466 78.9138C78.6568 77.0826 76.951 69.7528 76.951 69.7528L65.5162 69.3718L65.4523 69.9519Z" fill="#90C5F9" stroke="#263238" stroke-width="0.155944" stroke-linecap="round" stroke-linejoin="round"/>
<path d="M52.0556 76.0853C51.8403 75.8745 51.6513 75.6385 51.4927 75.3823" stroke="#263238" stroke-width="0.155944" stroke-linecap="round" stroke-linejoin="round"/>
<path d="M56.289 79.1127C55.0118 78.3843 53.7938 77.5566 52.6462 76.6375" stroke="#263238" stroke-width="0.155944" stroke-linecap="round" stroke-linejoin="round"/>
<path d="M56.9968 84.3875L57.5032 84.6333" stroke="#263238" stroke-width="0.155944" stroke-linecap="round" stroke-linejoin="round"/>
<path d="M48.1494 76.9401C50.3139 79.7715 53.0235 82.1409 56.1183 83.9086" stroke="#263238" stroke-width="0.155944" stroke-linecap="round" stroke-linejoin="round"/>
<path d="M74.623 74.1392C74.8644 74.3267 75.0935 74.5295 75.3088 74.7464" stroke="#263238" stroke-width="0.155944" stroke-linecap="round" stroke-linejoin="round"/>
<path d="M65.7675 71.1506C65.7675 71.1506 70.3984 71.5094 73.6675 73.4808" stroke="#263238" stroke-width="0.155944" stroke-linecap="round" stroke-linejoin="round"/>
<path d="M72.0857 72.225C72.0857 72.225 75.1189 72.2889 76.3184 73.5523" stroke="#263238" stroke-width="0.155944" stroke-linecap="round" stroke-linejoin="round"/>
<path d="M66.3375 50.9955C66.3375 50.9955 64.1892 57.3863 63.8795 59.3356C63.5698 61.2848 63.7542 69.8239 63.7542 69.8239C63.7542 69.8239 68.8079 71.3405 71.6518 71.0259C74.4957 70.7113 78.0426 70.141 78.0426 70.141C78.0426 70.141 77.4109 58.8341 76.8431 54.9136C76.2753 50.993 74.948 48.7194 73.6846 47.773C72.8445 47.1557 71.9568 46.6058 71.0299 46.1286L66.3375 50.9955Z" fill="#263238" stroke="#263238" stroke-width="0.155944" stroke-linecap="round" stroke-linejoin="round"/>
<path d="M55.2145 41.1377C55.3518 41.9384 55.6306 42.7084 56.0379 43.4113C56.6696 44.4216 57.5545 44.864 57.3013 45.8694C57.0482 46.8747 57.0555 47.5752 57.793 47.6367L58.5525 47.7006C58.5525 47.7006 60.0691 50.2914 61.2072 50.2914C62.3452 50.2914 65.5751 47.3933 65.5751 47.3933C65.5751 47.3933 63.8692 39.3679 63.8692 39.1147C63.8692 38.8615 54.8335 40.0635 54.8335 40.0635L55.2145 41.1377Z" fill="white" stroke="#263238" stroke-width="0.155944" stroke-linecap="round" stroke-linejoin="round"/>
<path d="M58.976 44.3858C59.0964 44.6316 59.0546 44.9094 58.8801 44.993C58.7056 45.0765 58.4696 44.9389 58.3492 44.6857C58.2287 44.4325 58.2705 44.1622 58.445 44.0811C58.6196 43.9999 58.8555 44.1351 58.976 44.3858Z" fill="#263238"/>
<path d="M57.4271 43.6663C57.4271 43.6663 57.3632 42.7814 58.6905 42.9706" stroke="#263238" stroke-width="0.155944" stroke-linecap="round" stroke-linejoin="round"/>
<path d="M59.2731 47.9098C59.3124 48.0499 60.8167 47.9663 60.5857 46.6341" stroke="#263238" stroke-width="0.155944" stroke-linecap="round" stroke-linejoin="round"/>
<path d="M68.0332 38.1664C67.8242 35.6076 64.6386 36.5883 63.1466 37.3626L63.1048 37.2839L57.1023 38.9898C57.0532 39.2333 57.0816 39.4861 57.1834 39.7127C57.2852 39.9393 57.4554 40.1283 57.6701 40.2532C58.9267 41.189 60.4114 41.7705 61.9692 41.937C62.4166 44.6113 63.0409 48.6081 63.0409 50.1099C63.0409 52.4475 62.156 53.3324 62.156 53.3324C62.156 53.3324 66.1995 52.0689 68.5469 49.8567C69.9107 48.5865 71.1008 47.1418 72.0864 45.5601C72.0864 45.5601 68.2962 41.2635 68.0332 38.1664Z" fill="#90C5F9" stroke="#263238" stroke-width="0.155944" stroke-linecap="round" stroke-linejoin="round"/>
<path d="M61.9791 41.9363L61.7997 41.1006" stroke="#263238" stroke-width="0.155944" stroke-linecap="round" stroke-linejoin="round"/>
<path d="M64.9774 47.7538C65.029 48.0414 65.0708 48.3093 65.1003 48.5428" stroke="#263238" stroke-width="0.155944" stroke-linecap="round" stroke-linejoin="round"/>
<path d="M63.4137 41.1006C63.4137 41.1006 64.306 44.3968 64.8099 46.8721" stroke="#263238" stroke-width="0.155944" stroke-linecap="round" stroke-linejoin="round"/>
<path d="M66.3979 41.9298L67.6245 45.172" stroke="#263238" stroke-width="0.155944" stroke-linecap="round" stroke-linejoin="round"/>
<path d="M65.8728 40.5395L66.1899 41.3777" stroke="#263238" stroke-width="0.155944" stroke-linecap="round" stroke-linejoin="round"/>
<path d="M67.4161 40.6102L67.9766 42.0138" stroke="#263238" stroke-width="0.155944" stroke-linecap="round" stroke-linejoin="round"/>
<path d="M54.5948 41.0394C54.5948 41.0394 50.367 43.2836 51.7755 43.2836C53.1839 43.2836 60.2335 40.3708 60.5137 40.3708C60.794 40.3708 55.8165 40.8502 54.5948 41.0394Z" fill="#757575" stroke="#263238" stroke-width="0.155944" stroke-linecap="round" stroke-linejoin="round"/>
<path d="M54.5952 41.0402C54.5952 41.0402 52.0659 41.8415 53.1942 39.1155C54.3224 36.3896 62.0037 32.4174 65.1991 32.4174C68.3946 32.4174 70.7567 37.186 70.2872 38.6903C69.8178 40.1946 68.7829 40.3814 68.3208 40.3814C67.8587 40.3814 54.5952 41.0402 54.5952 41.0402Z" fill="#757575" stroke="#263238" stroke-width="0.155944" stroke-linecap="round" stroke-linejoin="round"/>
<path d="M55.8163 40.1943C55.8163 40.1943 60.4202 40.2877 64.3677 39.7248C68.3153 39.1619 69.9106 38.5966 69.9106 38.5966" stroke="#263238" stroke-width="0.155944" stroke-linecap="round" stroke-linejoin="round"/>
<path d="M69.3482 39.8183L63.1466 39.9117" stroke="#263238" stroke-width="0.155944" stroke-linecap="round" stroke-linejoin="round"/>
<path d="M65.4518 64.6413L64.6308 65.4057C64.6308 65.4057 54.3932 64.0784 53.6975 64.2677C53.0019 64.4569 50.539 65.1525 50.539 65.1525L48.5726 65.2779L46.9945 67.9326H47.4984L48.6365 66.3521H49.3518L48.1498 67.7433L47.6311 68.4955L49.3985 68.5594L49.6565 68.3406L50.6643 67.4852L50.3473 68.434H50.7258L51.6107 66.9174L52.8126 66.2857L54.0761 65.4008C54.0761 65.4008 66.9659 69.8867 67.2806 70.071C67.5952 70.2554 68.2933 70.7667 68.8611 70.2603C69.4289 69.754 70.9455 65.5212 70.9455 65.5212L65.4518 64.6413Z" fill="white" stroke="#263238" stroke-width="0.155944" stroke-linecap="round" stroke-linejoin="round"/>
<path d="M48.4226 68.4098C49.0781 67.8951 49.6574 67.2902 50.1432 66.613C50.1432 66.613 50.2293 65.9469 50.8093 65.8412" stroke="#263238" stroke-width="0.155944" stroke-linecap="round" stroke-linejoin="round"/>
<path d="M50.6674 67.4851L50.9525 66.3864L51.2671 66.1332" stroke="#263238" stroke-width="0.155944" stroke-linecap="round" stroke-linejoin="round"/>
<path d="M49.3528 66.3493C49.5193 66.0825 49.7211 65.8395 49.9525 65.6266C50.1664 65.4988 50.2967 65.4349 50.2967 65.4349" stroke="#263238" stroke-width="0.155944" stroke-linecap="round" stroke-linejoin="round"/>
<path d="M60.0443 67.4858C63.4659 68.6853 67.1185 69.9783 67.2955 70.0766C67.6126 70.2659 68.3082 70.7722 68.876 70.2659C69.4438 69.7595 70.9604 65.5268 70.9604 65.5268L65.4643 64.6419L64.631 65.4063C64.631 65.4063 62.7481 65.1605 60.5458 64.8975L60.0443 67.4858Z" fill="#757575" stroke="#263238" stroke-width="0.155944" stroke-linecap="round" stroke-linejoin="round"/>
<path d="M67.2957 55.0374L64.5673 64.1984C64.5673 64.1984 64.8131 65.4643 67.3473 66.1648C68.7434 66.573 70.1894 66.7856 71.6439 66.7965L73.6669 55.4233" fill="#263238"/>
<path d="M67.2957 55.0374L64.5673 64.1984C64.5673 64.1984 64.8131 65.4643 67.3473 66.1648C68.7434 66.573 70.1894 66.7856 71.6439 66.7965L73.6669 55.4233" stroke="#263238" stroke-width="0.155944" stroke-linecap="round" stroke-linejoin="round"/>
<path d="M67.1138 55.8638L64.6484 63.5058" stroke="#707070" stroke-width="0.155944" stroke-linecap="round" stroke-linejoin="round"/>
<path d="M73.1337 58.3124L71.9219 66.0945" stroke="#707070" stroke-width="0.155944" stroke-linecap="round" stroke-linejoin="round"/>
<path d="M73.3991 56.6024L73.2664 57.4578" stroke="#707070" stroke-width="0.155944" stroke-linecap="round" stroke-linejoin="round"/>
<path d="M44.5573 69.7071H42.3451V102.595H44.5573V69.7071Z" fill="#263238" stroke="#263238" stroke-width="0.155944" stroke-linecap="round" stroke-linejoin="round"/>
<path d="M59.6376 69.1276H26.71V70.4869H59.6376V69.1276Z" fill="#757575" stroke="#263238" stroke-width="0.155944" stroke-linecap="round" stroke-linejoin="round"/>
<path d="M55.3061 103.939H31.601C31.6016 103.579 31.745 103.234 31.9998 102.979C32.2546 102.724 32.5999 102.581 32.9602 102.58H53.9468C54.3072 102.581 54.6525 102.724 54.9073 102.979C55.1621 103.234 55.3055 103.579 55.3061 103.939Z" fill="#757575" stroke="#263238" stroke-width="0.155944" stroke-linecap="round" stroke-linejoin="round"/>
<path d="M36.2292 69.3689H31.9031L31.2542 61.2771H36.8781L36.2292 69.3689Z" fill="#90C5F9" stroke="#263238" stroke-width="0.155944" stroke-linecap="round" stroke-linejoin="round"/>
<path d="M37.109 60.4781H30.8607V62.3216H37.109V60.4781Z" fill="white" stroke="#263238" stroke-width="0.155944" stroke-linecap="round" stroke-linejoin="round"/>
<path d="M36.4087 67.1224L36.6471 64.1605H31.4852L31.7237 67.1224H36.4087Z" fill="white" stroke="#263238" stroke-width="0.155944" stroke-linecap="round" stroke-linejoin="round"/>
<path d="M106.458 103.98H109.408" stroke="#263238" stroke-width="0.155944" stroke-linecap="round" stroke-linejoin="round"/>
<path d="M101.541 103.98H104.655" stroke="#263238" stroke-width="0.155944" stroke-linecap="round" stroke-linejoin="round"/>
<path d="M26.6562 103.98H99.7407" stroke="#263238" stroke-width="0.155944" stroke-linecap="round" stroke-linejoin="round"/>
<path d="M6.45056 103.98H24.3597" stroke="#263238" stroke-width="0.155944" stroke-linecap="round" stroke-linejoin="round"/>
</svg>
